<svg xmlns="http://www.w3.org/2000/svg" xmlns:xlink="http://www.w3.org/1999/xlink" width="49" zoomAndPan="magnify" viewBox="0 0 36.75 36.750001" height="49" preserveAspectRatio="xMidYMid meet" version="1.0"><defs><filter x="0%" y="0%" width="100%" height="100%" id="6f7457c66d"><feColorMatrix values="0 0 0 0 1 0 0 0 0 1 0 0 0 0 1 0 0 0 1 0" color-interpolation-filters="sRGB"/></filter><clipPath id="b100d325bc"><path d="M 0 0 L 36.5 0 L 36.5 36.5 L 0 36.5 Z M 0 0 " clip-rule="nonzero"/></clipPath><clipPath id="771f9f9ff1"><path d="M 19.046875 19.863281 L 25.257812 19.863281 L 25.257812 27.417969 L 19.046875 27.417969 Z M 19.046875 19.863281 " clip-rule="nonzero"/></clipPath><mask id="003e5c30ae"><g filter="url(#6f7457c66d)"><rect x="-3.675" width="44.1" fill="#000000" y="-3.675" height="44.100001" fill-opacity="0.2"/></g></mask><clipPath id="0180317962"><path d="M 9 8 L 11.9375 8 L 11.9375 9 L 9 9 Z M 9 8 " clip-rule="nonzero"/></clipPath><clipPath id="07c97957b7"><path d="M 0.734375 0.773438 L 9 0.773438 L 9 26.757812 L 0.734375 26.757812 Z M 0.734375 0.773438 " clip-rule="nonzero"/></clipPath><clipPath id="3d5946d8c7"><rect x="0" width="12" y="0" height="27"/></clipPath><clipPath id="22fbfcabbb"><path d="M 1.527344 3.175781 L 18 3.175781 L 18 17 L 1.527344 17 Z M 1.527344 3.175781 " clip-rule="nonzero"/></clipPath><clipPath id="fd3b11edf4"><path d="M 14 3.175781 L 18 3.175781 L 18 9 L 14 9 Z M 14 3.175781 " clip-rule="nonzero"/></clipPath><clipPath id="0f07cadbc5"><path d="M 14 3.175781 L 19 3.175781 L 19 9 L 14 9 Z M 14 3.175781 " clip-rule="nonzero"/></clipPath><clipPath id="2fc4c4bcf6"><path d="M 20 3.175781 L 23 3.175781 L 23 6 L 20 6 Z M 20 3.175781 " clip-rule="nonzero"/></clipPath></defs><g clip-path="url(#b100d325bc)"><path fill="#ffffff" d="M 0 0 L 36.5 0 L 36.5 36.5 L 0 36.5 Z M 0 0 " fill-opacity="1" fill-rule="nonzero"/><path fill="#ffffff" d="M 0 0 L 36.5 0 L 36.5 36.5 L 0 36.5 Z M 0 0 " fill-opacity="1" fill-rule="nonzero"/></g><g clip-path="url(#771f9f9ff1)"><path fill="#fccd60" d="M 19.046875 19.863281 L 25.257812 19.863281 L 25.257812 27.414062 L 19.046875 27.414062 Z M 19.046875 19.863281 " fill-opacity="1" fill-rule="nonzero"/></g><path fill="#f2355b" d="M 16.480469 4.804688 C 17.703125 4.28125 19.292969 4.972656 19.746094 6.230469 C 20.179688 5.800781 20.886719 5.679688 21.441406 5.941406 C 21.992188 6.199219 22.355469 6.824219 22.304688 7.433594 C 22.558594 6.3125 23.976562 5.761719 25.0625 6.128906 C 25.726562 6.359375 26.304688 6.867188 26.566406 7.523438 C 26.832031 8.179688 26.765625 8.972656 26.351562 9.546875 C 27.1875 9.917969 27.65625 10.886719 27.605469 11.804688 C 27.578125 12.289062 27.417969 12.78125 27.078125 13.125 C 26.738281 13.472656 26.203125 13.640625 25.75 13.472656 C 26.1875 14.335938 25.546875 15.394531 24.734375 15.914062 C 24.074219 16.335938 23.273438 16.554688 22.496094 16.460938 C 21.71875 16.371094 20.972656 15.953125 20.53125 15.300781 C 20.589844 16.015625 20.023438 16.769531 19.378906 17.078125 C 18.734375 17.390625 17.90625 17.261719 17.382812 16.769531 C 17.304688 17.316406 16.816406 17.722656 16.308594 17.941406 C 14.957031 18.523438 13.230469 18.066406 12.363281 16.871094 C 11.5 15.675781 11.605469 13.863281 12.621094 12.796875 C 13.160156 12.234375 13.890625 11.890625 14.632812 11.648438 C 14.253906 10.1875 15.179688 8.507812 16.613281 8.054688 C 16.382812 7.546875 16.144531 7.027344 16.097656 6.472656 C 16.046875 5.917969 15.972656 5.027344 16.480469 4.804688 Z M 16.480469 4.804688 " fill-opacity="1" fill-rule="nonzero"/><path fill="#252835" d="M 26.414062 9.578125 L 26.347656 9.578125 C 26.734375 10.03125 26.9375 10.664062 26.902344 11.269531 C 26.878906 11.742188 26.71875 12.222656 26.386719 12.558594 C 26.28125 12.667969 26.160156 12.753906 26.023438 12.824219 C 25.953125 12.859375 25.878906 12.890625 25.800781 12.910156 C 25.746094 12.921875 25.691406 12.898438 25.640625 12.910156 C 25.53125 12.933594 25.449219 13.140625 25.394531 13.230469 C 25.316406 13.363281 25.238281 13.503906 25.222656 13.660156 C 25.191406 13.875 25.128906 14.078125 25.027344 14.273438 C 24.808594 14.691406 24.5 15.023438 24.105469 15.273438 C 23.460938 15.6875 22.679688 15.898438 21.921875 15.808594 C 21.164062 15.71875 20.4375 15.3125 20.011719 14.675781 C 20.066406 15.375 19.515625 16.105469 18.886719 16.410156 C 18.257812 16.714844 17.449219 16.585938 16.941406 16.105469 C 16.863281 16.640625 16.390625 17.035156 15.894531 17.25 C 14.578125 17.816406 12.894531 17.371094 12.050781 16.207031 C 12.015625 16.15625 11.980469 16.109375 11.949219 16.054688 C 12.046875 16.347656 12.183594 16.621094 12.363281 16.871094 C 13.230469 18.066406 14.957031 18.523438 16.308594 17.941406 C 16.816406 17.722656 17.304688 17.316406 17.382812 16.765625 C 17.902344 17.261719 18.734375 17.390625 19.378906 17.078125 C 20.023438 16.769531 20.589844 16.015625 20.53125 15.300781 C 20.972656 15.953125 21.71875 16.371094 22.496094 16.460938 C 23.273438 16.554688 24.074219 16.335938 24.734375 15.914062 C 25.546875 15.394531 26.183594 14.335938 25.75 13.472656 C 26.203125 13.640625 26.738281 13.472656 27.078125 13.125 C 27.417969 12.78125 27.578125 12.289062 27.605469 11.800781 C 27.652344 10.910156 27.210938 9.96875 26.414062 9.578125 Z M 26.414062 9.578125 " fill-opacity="0.2" fill-rule="nonzero"/><path fill="#252835" d="M 15.058594 18.40625 C 14.734375 18.40625 14.414062 18.363281 14.101562 18.277344 C 13.316406 18.066406 12.640625 17.613281 12.195312 16.996094 C 11.746094 16.378906 11.527344 15.589844 11.574219 14.773438 C 11.625 13.957031 11.941406 13.203125 12.46875 12.648438 C 12.925781 12.167969 13.539062 11.804688 14.382812 11.507812 C 14.257812 10.808594 14.390625 10.039062 14.757812 9.371094 C 15.121094 8.714844 15.683594 8.199219 16.328125 7.933594 C 16.128906 7.496094 15.933594 7.011719 15.886719 6.492188 C 15.832031 5.894531 15.746094 4.894531 16.398438 4.609375 C 17.027344 4.339844 17.78125 4.351562 18.46875 4.648438 C 19.070312 4.90625 19.554688 5.351562 19.828125 5.890625 C 20.320312 5.554688 20.988281 5.492188 21.53125 5.746094 C 21.949219 5.953125 22.242188 6.273438 22.40625 6.714844 C 22.613281 6.441406 22.871094 6.230469 23.175781 6.078125 C 23.78125 5.773438 24.511719 5.71875 25.128906 5.929688 C 25.871094 6.183594 26.484375 6.75 26.761719 7.445312 C 27.027344 8.101562 26.980469 8.871094 26.652344 9.464844 C 27.398438 9.910156 27.871094 10.84375 27.816406 11.816406 C 27.785156 12.402344 27.574219 12.921875 27.226562 13.273438 C 26.910156 13.601562 26.523438 13.757812 26.066406 13.75 C 26.144531 14.121094 26.085938 14.53125 25.890625 14.9375 C 25.671875 15.386719 25.292969 15.8125 24.847656 16.09375 C 24.113281 16.5625 23.269531 16.769531 22.46875 16.671875 C 21.78125 16.589844 21.1875 16.308594 20.691406 15.824219 C 20.519531 16.464844 19.984375 17.023438 19.46875 17.269531 C 18.847656 17.570312 18.074219 17.507812 17.5 17.128906 C 17.324219 17.542969 16.933594 17.902344 16.390625 18.136719 C 15.964844 18.316406 15.519531 18.40625 15.058594 18.40625 Z M 17.367188 4.839844 C 17.089844 4.839844 16.820312 4.894531 16.566406 5 C 16.195312 5.164062 16.265625 6.003906 16.308594 6.453125 C 16.351562 6.980469 16.589844 7.492188 16.796875 7.945312 C 16.828125 8.007812 16.828125 8.070312 16.800781 8.132812 C 16.773438 8.199219 16.726562 8.238281 16.660156 8.261719 C 15.351562 8.6875 14.496094 10.238281 14.832031 11.582031 C 14.867188 11.71875 14.816406 11.8125 14.683594 11.855469 C 13.816406 12.140625 13.210938 12.484375 12.773438 12.945312 C 11.835938 13.929688 11.730469 15.632812 12.535156 16.746094 C 13.339844 17.851562 14.960938 18.292969 16.226562 17.746094 C 16.746094 17.519531 17.101562 17.152344 17.171875 16.761719 C 17.1875 16.671875 17.238281 16.613281 17.320312 16.585938 C 17.40625 16.554688 17.484375 16.570312 17.550781 16.632812 C 18.011719 17.054688 18.726562 17.15625 19.289062 16.886719 C 19.8125 16.636719 20.34375 15.996094 20.324219 15.367188 C 20.320312 15.253906 20.375 15.179688 20.480469 15.144531 C 20.589844 15.109375 20.675781 15.136719 20.742188 15.230469 C 21.136719 15.78125 21.800781 16.164062 22.519531 16.25 C 23.222656 16.335938 23.96875 16.152344 24.621094 15.734375 C 25.359375 15.265625 25.917969 14.335938 25.578125 13.601562 C 25.535156 13.511719 25.546875 13.429688 25.613281 13.351562 C 25.679688 13.277344 25.757812 13.253906 25.855469 13.285156 C 26.203125 13.398438 26.632812 13.273438 26.925781 12.976562 C 27.203125 12.695312 27.367188 12.277344 27.394531 11.792969 C 27.441406 10.910156 26.984375 10.070312 26.285156 9.75 C 26.21875 9.71875 26.175781 9.667969 26.15625 9.601562 C 26.140625 9.53125 26.148438 9.464844 26.191406 9.40625 C 26.542969 8.90625 26.613281 8.199219 26.371094 7.605469 C 26.136719 7.023438 25.621094 6.546875 24.992188 6.332031 C 24.480469 6.15625 23.871094 6.203125 23.367188 6.457031 C 22.957031 6.664062 22.667969 6.984375 22.546875 7.359375 C 22.503906 7.480469 22.421875 7.535156 22.292969 7.515625 C 22.167969 7.496094 22.101562 7.421875 22.097656 7.292969 C 22.085938 6.804688 21.785156 6.335938 21.351562 6.132812 C 20.886719 5.914062 20.28125 6.011719 19.910156 6.367188 C 19.851562 6.421875 19.78125 6.441406 19.699219 6.421875 C 19.621094 6.402344 19.566406 6.355469 19.539062 6.277344 C 19.335938 5.742188 18.886719 5.289062 18.304688 5.039062 C 18.003906 4.910156 17.691406 4.84375 17.367188 4.839844 Z M 22.519531 7.28125 Z M 16.480469 4.804688 Z M 16.480469 4.804688 " fill-opacity="1" fill-rule="nonzero"/><path fill="#f3ffff" d="M 23.519531 16.832031 L 21.007812 9.839844 L 17.085938 11.261719 L 19.597656 18.253906 C 19.679688 18.484375 19.683594 18.71875 19.617188 18.953125 C 19.550781 19.1875 19.417969 19.382812 19.226562 19.53125 C 16.25 21.890625 14.964844 25.980469 16.320312 29.761719 C 16.519531 30.324219 16.773438 30.859375 17.078125 31.371094 C 17.386719 31.882812 17.738281 32.363281 18.136719 32.804688 C 18.539062 33.246094 18.976562 33.644531 19.453125 34 C 19.933594 34.355469 20.441406 34.660156 20.980469 34.914062 C 21.515625 35.167969 22.074219 35.367188 22.652344 35.511719 C 23.226562 35.65625 23.8125 35.738281 24.40625 35.765625 C 25 35.792969 25.59375 35.761719 26.179688 35.675781 C 26.769531 35.585938 27.339844 35.4375 27.898438 35.234375 C 32.605469 33.53125 35.046875 28.316406 33.351562 23.589844 C 31.992188 19.804688 28.394531 17.480469 24.601562 17.578125 C 24.359375 17.585938 24.140625 17.519531 23.941406 17.382812 C 23.742188 17.242188 23.601562 17.0625 23.519531 16.832031 Z M 23.519531 16.832031 " fill-opacity="1" fill-rule="nonzero"/><g mask="url(#003e5c30ae)"><g transform="matrix(1, 0, 0, 1, 15, 9)"><g clip-path="url(#3d5946d8c7)"><g clip-path="url(#0180317962)"><path fill="#252835" d="M 11.761719 8.785156 C 11.078125 8.636719 10.386719 8.566406 9.6875 8.578125 C 9.851562 8.65625 10.023438 8.695312 10.207031 8.691406 C 10.726562 8.675781 11.246094 8.710938 11.761719 8.785156 Z M 11.761719 8.785156 " fill-opacity="1" fill-rule="nonzero"/></g><g clip-path="url(#07c97957b7)"><path fill="#252835" d="M 1.921875 20.871094 C 0.566406 17.09375 1.855469 13.003906 4.828125 10.644531 C 5.023438 10.492188 5.152344 10.300781 5.21875 10.0625 C 5.289062 9.828125 5.28125 9.59375 5.199219 9.363281 L 2.6875 2.371094 L 6.113281 1.128906 L 6.007812 0.839844 L 2.085938 2.261719 L 4.597656 9.253906 C 4.679688 9.484375 4.683594 9.71875 4.617188 9.953125 C 4.550781 10.1875 4.417969 10.382812 4.226562 10.53125 C 1.25 12.890625 -0.0351562 16.980469 1.320312 20.761719 C 1.59375 21.535156 1.96875 22.257812 2.441406 22.929688 C 2.910156 23.601562 3.460938 24.195312 4.09375 24.71875 C 4.726562 25.238281 5.414062 25.664062 6.164062 26 C 6.910156 26.332031 7.6875 26.558594 8.496094 26.679688 C 7.75 26.515625 7.035156 26.257812 6.351562 25.910156 C 5.667969 25.566406 5.039062 25.136719 4.464844 24.628906 C 3.886719 24.121094 3.386719 23.550781 2.957031 22.914062 C 2.523438 22.277344 2.179688 21.597656 1.921875 20.871094 Z M 1.921875 20.871094 " fill-opacity="1" fill-rule="nonzero"/></g></g></g></g><path fill="#252835" d="M 24.8125 35.992188 C 23.4375 35.992188 22.132812 35.695312 20.890625 35.105469 C 18.65625 34.050781 16.960938 32.179688 16.121094 29.832031 C 15.792969 28.914062 15.609375 27.964844 15.578125 26.988281 C 15.542969 26.011719 15.660156 25.054688 15.929688 24.117188 C 16.195312 23.175781 16.597656 22.300781 17.140625 21.492188 C 17.679688 20.679688 18.332031 19.96875 19.097656 19.363281 C 19.253906 19.242188 19.359375 19.085938 19.414062 18.894531 C 19.46875 18.703125 19.464844 18.511719 19.398438 18.324219 L 16.816406 11.132812 L 21.136719 9.566406 L 23.71875 16.761719 C 23.785156 16.945312 23.898438 17.09375 24.058594 17.207031 C 24.222656 17.316406 24.402344 17.371094 24.597656 17.367188 C 25.144531 17.351562 25.6875 17.386719 26.226562 17.46875 C 26.765625 17.550781 27.292969 17.679688 27.8125 17.859375 C 28.328125 18.035156 28.824219 18.253906 29.304688 18.519531 C 29.78125 18.785156 30.234375 19.089844 30.660156 19.433594 C 31.082031 19.777344 31.472656 20.160156 31.832031 20.574219 C 32.191406 20.988281 32.507812 21.429688 32.789062 21.902344 C 33.070312 22.371094 33.304688 22.863281 33.5 23.378906 C 33.691406 23.890625 33.839844 24.417969 33.941406 24.957031 C 34.039062 25.496094 34.09375 26.039062 34.097656 26.589844 C 34.105469 27.136719 34.0625 27.683594 33.96875 28.222656 C 33.878906 28.765625 33.742188 29.292969 33.558594 29.808594 C 33.375 30.328125 33.144531 30.824219 32.875 31.300781 C 32.601562 31.773438 32.292969 32.222656 31.941406 32.644531 C 31.59375 33.066406 31.207031 33.453125 30.789062 33.804688 C 30.371094 34.15625 29.925781 34.472656 29.453125 34.746094 C 28.980469 35.019531 28.484375 35.246094 27.972656 35.433594 C 26.949219 35.804688 25.898438 35.992188 24.8125 35.992188 Z M 17.355469 11.386719 L 19.796875 18.179688 C 19.894531 18.457031 19.902344 18.730469 19.820312 19.011719 C 19.738281 19.289062 19.585938 19.519531 19.359375 19.699219 C 18.628906 20.277344 18.003906 20.953125 17.488281 21.726562 C 16.972656 22.5 16.585938 23.335938 16.332031 24.234375 C 16.078125 25.128906 15.964844 26.042969 15.996094 26.976562 C 16.027344 27.90625 16.203125 28.8125 16.519531 29.6875 C 18.171875 34.292969 23.246094 36.691406 27.828125 35.035156 C 28.320312 34.855469 28.789062 34.636719 29.242188 34.375 C 29.691406 34.113281 30.117188 33.816406 30.519531 33.480469 C 30.917969 33.144531 31.285156 32.773438 31.617188 32.371094 C 31.953125 31.96875 32.25 31.542969 32.507812 31.085938 C 32.765625 30.632812 32.984375 30.160156 33.160156 29.667969 C 33.335938 29.171875 33.464844 28.667969 33.550781 28.152344 C 33.640625 27.636719 33.679688 27.117188 33.675781 26.59375 C 33.671875 26.070312 33.621094 25.550781 33.523438 25.035156 C 33.425781 24.519531 33.289062 24.019531 33.101562 23.527344 C 32.917969 23.039062 32.691406 22.570312 32.425781 22.121094 C 32.15625 21.667969 31.855469 21.246094 31.511719 20.851562 C 31.171875 20.457031 30.796875 20.09375 30.390625 19.765625 C 29.988281 19.433594 29.554688 19.144531 29.101562 18.890625 C 28.644531 18.640625 28.167969 18.429688 27.675781 18.261719 C 27.179688 18.09375 26.675781 17.96875 26.160156 17.890625 C 25.648438 17.8125 25.128906 17.777344 24.609375 17.792969 C 24.320312 17.800781 24.058594 17.722656 23.820312 17.558594 C 23.582031 17.394531 23.417969 17.175781 23.320312 16.902344 L 20.882812 10.109375 Z M 17.355469 11.386719 " fill-opacity="1" fill-rule="nonzero"/><path fill="#f3ffff" d="M 16.789062 11.367188 L 21.308594 9.730469 C 21.433594 9.683594 21.558594 9.664062 21.691406 9.671875 C 21.824219 9.679688 21.949219 9.710938 22.070312 9.765625 C 22.191406 9.824219 22.296875 9.898438 22.382812 10 C 22.472656 10.097656 22.539062 10.207031 22.585938 10.332031 L 22.605469 10.386719 C 22.648438 10.511719 22.667969 10.640625 22.664062 10.773438 C 22.65625 10.90625 22.625 11.03125 22.570312 11.152344 C 22.511719 11.273438 22.433594 11.378906 22.335938 11.46875 C 22.238281 11.558594 22.128906 11.625 22.003906 11.667969 L 17.484375 13.308594 C 17.359375 13.351562 17.230469 13.371094 17.097656 13.367188 C 16.964844 13.359375 16.839844 13.328125 16.722656 13.273438 C 16.601562 13.214844 16.496094 13.136719 16.40625 13.039062 C 16.316406 12.941406 16.25 12.828125 16.207031 12.703125 L 16.1875 12.652344 C 16.144531 12.527344 16.125 12.398438 16.128906 12.265625 C 16.136719 12.132812 16.167969 12.003906 16.222656 11.886719 C 16.28125 11.765625 16.355469 11.660156 16.453125 11.570312 C 16.550781 11.480469 16.664062 11.414062 16.789062 11.367188 Z M 16.789062 11.367188 " fill-opacity="1" fill-rule="nonzero"/><path fill="#252835" d="M 22.007812 11.195312 L 17.925781 12.675781 C 17.691406 12.761719 17.460938 12.75 17.238281 12.644531 C 17.011719 12.539062 16.855469 12.367188 16.773438 12.128906 L 16.753906 12.085938 C 16.667969 11.835938 16.683594 11.597656 16.800781 11.363281 L 16.789062 11.367188 C 16.664062 11.414062 16.550781 11.480469 16.453125 11.570312 C 16.355469 11.660156 16.28125 11.765625 16.222656 11.886719 C 16.167969 12.003906 16.136719 12.132812 16.128906 12.265625 C 16.125 12.398438 16.140625 12.527344 16.1875 12.652344 L 16.207031 12.703125 C 16.25 12.828125 16.316406 12.941406 16.40625 13.039062 C 16.496094 13.136719 16.601562 13.214844 16.71875 13.273438 C 16.839844 13.328125 16.964844 13.359375 17.097656 13.367188 C 17.230469 13.371094 17.359375 13.351562 17.484375 13.308594 L 22.003906 11.671875 C 22.128906 11.625 22.238281 11.558594 22.335938 11.46875 C 22.433594 11.378906 22.511719 11.273438 22.570312 11.152344 C 22.625 11.03125 22.65625 10.90625 22.664062 10.773438 C 22.667969 10.640625 22.648438 10.511719 22.605469 10.386719 L 22.605469 10.382812 C 22.597656 10.566406 22.539062 10.734375 22.429688 10.882812 C 22.320312 11.027344 22.179688 11.132812 22.007812 11.195312 Z M 22.007812 11.195312 " fill-opacity="0.2" fill-rule="nonzero"/><path fill="#252835" d="M 18.679688 13.027344 C 18.546875 13.121094 18.40625 13.199219 18.253906 13.257812 C 18.109375 13.3125 17.957031 13.367188 17.808594 13.421875 L 17.585938 13.503906 L 17.558594 13.515625 L 17.523438 13.523438 L 17.453125 13.546875 C 17.40625 13.558594 17.359375 13.566406 17.3125 13.574219 C 16.894531 13.632812 16.542969 13.507812 16.253906 13.203125 C 16.222656 13.167969 16.191406 13.128906 16.160156 13.089844 C 16.132812 13.050781 16.105469 13.011719 16.082031 12.96875 L 16.046875 12.902344 C 16.035156 12.882812 16.027344 12.859375 16.019531 12.835938 L 16.003906 12.800781 C 16 12.792969 15.996094 12.777344 15.992188 12.769531 L 15.980469 12.742188 L 15.972656 12.710938 C 15.871094 12.421875 15.878906 12.132812 15.992188 11.847656 C 16.105469 11.5625 16.296875 11.351562 16.570312 11.210938 C 16.59375 11.199219 16.613281 11.191406 16.636719 11.183594 L 16.703125 11.152344 L 16.816406 11.113281 L 17.042969 11.03125 L 17.9375 10.703125 L 19.726562 10.054688 L 20.625 9.730469 L 21.074219 9.570312 L 21.183594 9.527344 L 21.214844 9.519531 C 21.222656 9.515625 21.230469 9.511719 21.246094 9.507812 L 21.3125 9.488281 L 21.347656 9.476562 L 21.386719 9.46875 L 21.457031 9.457031 C 21.503906 9.449219 21.554688 9.445312 21.601562 9.441406 C 22.027344 9.425781 22.363281 9.589844 22.621094 9.925781 C 22.648438 9.96875 22.675781 10.007812 22.703125 10.050781 C 22.726562 10.09375 22.746094 10.136719 22.765625 10.179688 L 22.792969 10.25 C 22.804688 10.269531 22.808594 10.285156 22.816406 10.304688 C 22.828125 10.351562 22.84375 10.398438 22.855469 10.445312 C 22.898438 10.640625 22.898438 10.832031 22.847656 11.027344 C 22.796875 11.21875 22.707031 11.390625 22.578125 11.539062 C 22.445312 11.683594 22.289062 11.792969 22.101562 11.867188 C 22.078125 11.875 22.0625 11.882812 22.042969 11.886719 L 21.988281 11.910156 L 21.648438 12.027344 L 21.203125 12.1875 L 20.304688 12.507812 C 20.003906 12.617188 19.695312 12.703125 19.382812 12.761719 C 19.308594 12.773438 19.257812 12.746094 19.230469 12.675781 C 19.207031 12.601562 19.226562 12.546875 19.292969 12.511719 C 19.570312 12.355469 19.863281 12.222656 20.164062 12.113281 L 21.058594 11.785156 L 21.726562 11.539062 L 21.839844 11.496094 L 21.894531 11.476562 C 21.914062 11.46875 21.933594 11.460938 21.945312 11.457031 C 22.0625 11.410156 22.164062 11.339844 22.246094 11.242188 C 22.328125 11.148438 22.386719 11.039062 22.417969 10.917969 C 22.445312 10.792969 22.445312 10.671875 22.417969 10.550781 C 22.410156 10.519531 22.398438 10.492188 22.390625 10.460938 C 22.382812 10.441406 22.378906 10.421875 22.371094 10.40625 L 22.351562 10.363281 C 22.339844 10.335938 22.328125 10.308594 22.3125 10.28125 C 22.296875 10.253906 22.277344 10.230469 22.261719 10.203125 C 22.097656 9.992188 21.882812 9.890625 21.621094 9.902344 C 21.589844 9.902344 21.558594 9.90625 21.527344 9.910156 L 21.484375 9.917969 L 21.460938 9.925781 L 21.4375 9.929688 L 21.394531 9.945312 C 21.386719 9.945312 21.378906 9.949219 21.371094 9.953125 L 21.339844 9.964844 L 21.230469 10.003906 L 20.78125 10.167969 L 19.886719 10.496094 L 18.09375 11.140625 L 17.199219 11.464844 L 16.972656 11.546875 L 16.863281 11.585938 L 16.820312 11.605469 C 16.804688 11.609375 16.792969 11.617188 16.777344 11.625 C 16.667969 11.679688 16.574219 11.757812 16.5 11.859375 C 16.429688 11.960938 16.382812 12.074219 16.363281 12.199219 C 16.34375 12.324219 16.355469 12.445312 16.394531 12.566406 L 16.398438 12.574219 L 16.402344 12.589844 L 16.414062 12.617188 C 16.417969 12.628906 16.417969 12.632812 16.421875 12.640625 L 16.429688 12.664062 C 16.4375 12.675781 16.441406 12.691406 16.449219 12.707031 L 16.472656 12.746094 C 16.484375 12.773438 16.503906 12.800781 16.519531 12.824219 C 16.539062 12.851562 16.558594 12.875 16.578125 12.898438 C 16.761719 13.09375 16.984375 13.175781 17.25 13.140625 C 17.28125 13.132812 17.3125 13.128906 17.34375 13.121094 L 17.386719 13.109375 L 17.410156 13.101562 L 17.4375 13.09375 L 17.660156 13.011719 C 17.8125 12.957031 17.960938 12.902344 18.109375 12.851562 C 18.265625 12.800781 18.421875 12.769531 18.582031 12.757812 C 18.65625 12.753906 18.707031 12.785156 18.730469 12.855469 C 18.757812 12.925781 18.738281 12.984375 18.679688 13.027344 Z M 18.679688 13.027344 " fill-opacity="1" fill-rule="nonzero"/><path fill="#81cd27" d="M 30.714844 22.871094 C 28.167969 22.824219 26.34375 24.316406 25.519531 25.15625 C 24.628906 24.8125 23.644531 24.378906 22.378906 24.117188 C 20.222656 23.675781 18.507812 24.835938 17.472656 25.828125 C 17.097656 26.191406 16.925781 26.632812 16.957031 27.15625 C 16.976562 27.464844 17.015625 27.769531 17.066406 28.070312 C 17.121094 28.371094 17.191406 28.667969 17.28125 28.964844 C 17.371094 29.257812 17.476562 29.542969 17.597656 29.828125 C 17.71875 30.109375 17.855469 30.382812 18.007812 30.648438 C 18.160156 30.914062 18.328125 31.167969 18.511719 31.414062 C 18.695312 31.660156 18.890625 31.894531 19.101562 32.117188 C 19.308594 32.339844 19.53125 32.550781 19.765625 32.746094 C 20 32.945312 20.246094 33.128906 20.5 33.296875 C 20.753906 33.464844 21.019531 33.617188 21.292969 33.753906 C 21.566406 33.894531 21.84375 34.015625 22.132812 34.121094 C 22.417969 34.226562 22.710938 34.3125 23.007812 34.386719 C 23.304688 34.457031 23.605469 34.511719 23.90625 34.546875 C 24.210938 34.582031 24.515625 34.601562 24.820312 34.601562 C 25.125 34.601562 25.429688 34.585938 25.734375 34.550781 C 26.035156 34.515625 26.335938 34.464844 26.632812 34.394531 C 26.933594 34.324219 27.222656 34.238281 27.511719 34.132812 C 31.609375 32.648438 33.734375 28.105469 32.257812 23.984375 C 32.253906 23.980469 32.253906 23.976562 32.253906 23.976562 C 32.132812 23.648438 31.933594 23.386719 31.652344 23.183594 C 31.375 22.984375 31.058594 22.878906 30.714844 22.871094 Z M 30.714844 22.871094 " fill-opacity="1" fill-rule="nonzero"/><path fill="#f3ffff" d="M 30.445312 31.183594 C 30.660156 30.859375 30.855469 30.523438 31.03125 30.175781 L 31.15625 29.914062 C 31.195312 29.824219 31.234375 29.738281 31.273438 29.648438 L 31.375 29.378906 L 31.472656 29.105469 C 31.59375 28.734375 31.6875 28.359375 31.757812 27.980469 C 31.828125 27.597656 31.878906 27.210938 31.90625 26.824219 C 31.910156 26.789062 31.929688 26.769531 31.964844 26.769531 C 32 26.769531 32.019531 26.789062 32.023438 26.824219 C 32.058594 27.222656 32.046875 27.621094 31.992188 28.019531 C 31.9375 28.417969 31.84375 28.804688 31.710938 29.183594 C 31.675781 29.28125 31.644531 29.375 31.605469 29.46875 L 31.488281 29.742188 C 31.445312 29.832031 31.40625 29.925781 31.359375 30.011719 L 31.21875 30.277344 C 31.019531 30.625 30.792969 30.949219 30.527344 31.25 C 30.507812 31.273438 30.480469 31.277344 30.457031 31.257812 C 30.429688 31.234375 30.425781 31.210938 30.445312 31.183594 Z M 30.445312 31.183594 " fill-opacity="0.3" fill-rule="nonzero"/><path fill="#f3ffff" d="M 29.585938 32.113281 C 29.621094 32.046875 29.664062 31.984375 29.710938 31.921875 C 29.757812 31.863281 29.804688 31.804688 29.855469 31.75 C 29.902344 31.695312 29.957031 31.644531 30.011719 31.597656 C 30.070312 31.542969 30.136719 31.503906 30.207031 31.46875 C 30.230469 31.460938 30.253906 31.460938 30.273438 31.480469 C 30.292969 31.496094 30.300781 31.519531 30.292969 31.546875 C 30.269531 31.621094 30.234375 31.691406 30.1875 31.757812 C 30.144531 31.820312 30.09375 31.878906 30.035156 31.929688 C 29.980469 31.984375 29.921875 32.03125 29.859375 32.078125 C 29.796875 32.125 29.726562 32.160156 29.65625 32.195312 C 29.632812 32.203125 29.609375 32.199219 29.59375 32.179688 C 29.574219 32.160156 29.570312 32.136719 29.585938 32.113281 Z M 29.585938 32.113281 " fill-opacity="0.3" fill-rule="nonzero"/><path fill="#f3ffff" d="M 30.613281 24.421875 C 31.125 24.015625 31.476562 23.613281 31.703125 23.21875 C 31.417969 23 31.09375 22.882812 30.734375 22.871094 C 30.722656 22.871094 30.710938 22.871094 30.703125 22.871094 C 30.6875 22.871094 30.671875 22.871094 30.65625 22.871094 C 30.628906 22.871094 30.601562 22.871094 30.574219 22.871094 C 30.558594 22.871094 30.539062 22.871094 30.523438 22.871094 C 30.5 22.871094 30.472656 22.871094 30.445312 22.871094 C 30.429688 22.875 30.414062 22.875 30.394531 22.875 C 30.371094 22.875 30.34375 22.875 30.320312 22.878906 C 30.304688 22.878906 30.285156 22.878906 30.269531 22.878906 C 30.246094 22.878906 30.21875 22.882812 30.191406 22.882812 C 30.175781 22.886719 30.160156 22.886719 30.148438 22.886719 C 30.117188 22.890625 30.089844 22.890625 30.058594 22.894531 C 30.046875 22.894531 30.035156 22.894531 30.023438 22.898438 C 29.984375 22.902344 29.945312 22.90625 29.902344 22.910156 C 29.898438 22.910156 29.890625 22.910156 29.882812 22.910156 C 29.851562 22.914062 29.816406 22.917969 29.785156 22.921875 C 29.769531 22.925781 29.757812 22.925781 29.742188 22.929688 C 29.714844 22.933594 29.691406 22.9375 29.664062 22.941406 C 29.648438 22.941406 29.632812 22.945312 29.621094 22.945312 C 29.59375 22.949219 29.570312 22.953125 29.546875 22.957031 C 29.53125 22.960938 29.515625 22.964844 29.5 22.964844 C 29.476562 22.972656 29.453125 22.976562 29.429688 22.980469 C 29.414062 22.980469 29.398438 22.984375 29.382812 22.988281 C 29.359375 22.992188 29.335938 22.996094 29.3125 23.003906 C 29.300781 23.003906 29.285156 23.007812 29.269531 23.011719 C 29.246094 23.015625 29.21875 23.023438 29.191406 23.027344 C 29.179688 23.03125 29.167969 23.035156 29.15625 23.035156 C 29.121094 23.046875 29.082031 23.054688 29.046875 23.0625 L 29.039062 23.066406 C 29.003906 23.074219 28.96875 23.082031 28.9375 23.09375 C 28.925781 23.09375 28.914062 23.097656 28.898438 23.101562 C 28.875 23.109375 28.851562 23.117188 28.828125 23.121094 C 28.8125 23.125 28.800781 23.132812 28.785156 23.136719 C 28.765625 23.140625 28.742188 23.148438 28.71875 23.15625 C 28.707031 23.160156 28.691406 23.164062 28.675781 23.167969 C 28.65625 23.175781 28.632812 23.183594 28.613281 23.1875 C 28.597656 23.195312 28.585938 23.199219 28.570312 23.203125 C 28.550781 23.210938 28.527344 23.21875 28.507812 23.226562 C 28.492188 23.230469 28.480469 23.234375 28.464844 23.238281 C 28.445312 23.246094 28.421875 23.253906 28.398438 23.265625 C 28.386719 23.269531 28.375 23.273438 28.363281 23.277344 C 28.332031 23.289062 28.300781 23.300781 28.269531 23.3125 L 28.261719 23.3125 C 28.230469 23.328125 28.195312 23.339844 28.164062 23.355469 C 28.152344 23.359375 28.140625 23.363281 28.132812 23.367188 C 28.109375 23.375 28.085938 23.386719 28.066406 23.394531 C 28.050781 23.398438 28.039062 23.40625 28.027344 23.410156 C 28.007812 23.417969 27.988281 23.429688 27.96875 23.4375 C 27.953125 23.441406 27.941406 23.449219 27.929688 23.453125 C 27.910156 23.464844 27.890625 23.472656 27.871094 23.480469 C 27.859375 23.488281 27.84375 23.492188 27.832031 23.5 C 27.8125 23.507812 27.792969 23.515625 27.777344 23.527344 C 27.761719 23.53125 27.75 23.539062 27.738281 23.542969 C 27.71875 23.554688 27.699219 23.5625 27.679688 23.574219 C 27.667969 23.578125 27.65625 23.582031 27.648438 23.589844 C 27.621094 23.601562 27.597656 23.613281 27.570312 23.628906 C 27.566406 23.628906 27.5625 23.632812 27.554688 23.636719 C 27.527344 23.652344 27.496094 23.667969 27.46875 23.683594 C 27.457031 23.6875 27.449219 23.691406 27.441406 23.695312 C 27.421875 23.707031 27.398438 23.71875 27.378906 23.730469 C 27.367188 23.738281 27.359375 23.742188 27.347656 23.75 C 27.328125 23.757812 27.3125 23.769531 27.292969 23.78125 C 27.28125 23.785156 27.269531 23.792969 27.257812 23.800781 C 27.242188 23.808594 27.222656 23.820312 27.207031 23.828125 C 27.195312 23.835938 27.183594 23.84375 27.171875 23.851562 C 27.15625 23.859375 27.140625 23.871094 27.125 23.878906 C 27.113281 23.886719 27.101562 23.894531 27.089844 23.898438 C 27.074219 23.910156 27.054688 23.921875 27.039062 23.933594 C 27.027344 23.9375 27.019531 23.945312 27.007812 23.949219 C 26.988281 23.964844 26.96875 23.976562 26.949219 23.992188 C 26.941406 23.992188 26.933594 23.996094 26.929688 24 C 26.902344 24.019531 26.878906 24.035156 26.851562 24.054688 C 26.84375 24.058594 26.839844 24.0625 26.832031 24.066406 C 26.8125 24.078125 26.792969 24.09375 26.773438 24.105469 C 26.765625 24.109375 26.757812 24.117188 26.746094 24.125 C 26.730469 24.136719 26.714844 24.144531 26.699219 24.15625 C 26.691406 24.164062 26.679688 24.171875 26.671875 24.175781 C 26.65625 24.1875 26.640625 24.199219 26.625 24.210938 L 26.597656 24.230469 C 26.582031 24.242188 26.566406 24.25 26.550781 24.261719 L 26.523438 24.28125 C 26.507812 24.292969 26.496094 24.304688 26.480469 24.316406 C 26.472656 24.324219 26.464844 24.328125 26.453125 24.335938 C 26.4375 24.347656 26.421875 24.359375 26.40625 24.375 C 26.398438 24.378906 26.390625 24.382812 26.386719 24.386719 C 26.363281 24.40625 26.339844 24.421875 26.320312 24.4375 L 26.304688 24.449219 C 26.289062 24.464844 26.273438 24.476562 26.253906 24.492188 C 26.246094 24.496094 26.238281 24.503906 26.230469 24.511719 C 26.21875 24.519531 26.203125 24.53125 26.191406 24.542969 C 26.183594 24.550781 26.175781 24.554688 26.167969 24.5625 C 26.152344 24.574219 26.140625 24.585938 26.128906 24.59375 L 26.105469 24.617188 C 26.089844 24.625 26.078125 24.636719 26.066406 24.644531 C 26.058594 24.652344 26.050781 24.660156 26.042969 24.667969 C 26.03125 24.675781 26.019531 24.6875 26.007812 24.699219 C 26 24.703125 25.992188 24.710938 25.984375 24.71875 C 25.972656 24.730469 25.960938 24.738281 25.945312 24.75 C 25.941406 24.757812 25.933594 24.761719 25.929688 24.765625 C 25.910156 24.78125 25.890625 24.800781 25.875 24.816406 C 25.871094 24.816406 25.871094 24.820312 25.871094 24.820312 C 25.851562 24.835938 25.835938 24.847656 25.820312 24.863281 C 25.816406 24.871094 25.808594 24.875 25.804688 24.882812 C 25.792969 24.890625 25.78125 24.902344 25.769531 24.914062 C 25.761719 24.917969 25.757812 24.925781 25.75 24.929688 C 25.738281 24.941406 25.730469 24.949219 25.71875 24.960938 C 25.714844 24.964844 25.707031 24.972656 25.699219 24.980469 C 25.691406 24.988281 25.679688 24.996094 25.671875 25.007812 L 25.652344 25.023438 C 25.644531 25.035156 25.632812 25.042969 25.625 25.050781 C 25.617188 25.058594 25.613281 25.0625 25.605469 25.070312 C 25.597656 25.078125 25.585938 25.089844 25.578125 25.097656 L 25.5625 25.113281 C 25.546875 25.128906 25.535156 25.144531 25.519531 25.15625 C 27.167969 25.792969 28.480469 26.113281 30.613281 24.421875 Z M 30.613281 24.421875 " fill-opacity="0.33" fill-rule="nonzero"/><path fill="#252835" d="M 27.695312 25.570312 C 27.746094 25.542969 27.800781 25.523438 27.859375 25.507812 C 27.914062 25.492188 27.96875 25.484375 28.023438 25.476562 C 28.082031 25.472656 28.136719 25.46875 28.191406 25.472656 C 28.253906 25.476562 28.3125 25.488281 28.371094 25.507812 C 28.4375 25.53125 28.457031 25.574219 28.433594 25.636719 C 28.429688 25.652344 28.417969 25.664062 28.40625 25.675781 C 28.359375 25.722656 28.304688 25.753906 28.242188 25.777344 C 28.183594 25.796875 28.125 25.8125 28.0625 25.820312 C 28 25.828125 27.941406 25.828125 27.878906 25.820312 C 27.816406 25.8125 27.753906 25.796875 27.695312 25.769531 C 27.65625 25.75 27.636719 25.714844 27.636719 25.671875 C 27.632812 25.628906 27.652344 25.59375 27.691406 25.574219 Z M 27.695312 25.570312 " fill-opacity="1" fill-rule="nonzero"/><path fill="#252835" d="M 25.585938 24.980469 C 25.734375 25.023438 25.878906 25.074219 26.023438 25.125 C 26.167969 25.175781 26.3125 25.222656 26.457031 25.273438 C 26.527344 25.292969 26.597656 25.320312 26.671875 25.339844 C 26.742188 25.363281 26.816406 25.382812 26.886719 25.40625 C 27.03125 25.449219 27.175781 25.5 27.320312 25.558594 L 27.320312 25.5625 C 27.363281 25.578125 27.382812 25.613281 27.375 25.660156 C 27.371094 25.707031 27.347656 25.734375 27.300781 25.742188 C 27.136719 25.773438 26.976562 25.777344 26.8125 25.753906 C 26.734375 25.746094 26.652344 25.730469 26.574219 25.714844 C 26.496094 25.695312 26.417969 25.679688 26.34375 25.65625 C 26.1875 25.617188 26.035156 25.570312 25.886719 25.515625 C 25.738281 25.460938 25.59375 25.402344 25.449219 25.335938 C 25.34375 25.285156 25.3125 25.203125 25.355469 25.09375 C 25.394531 24.980469 25.472656 24.945312 25.585938 24.980469 Z M 25.585938 24.980469 " fill-opacity="1" fill-rule="nonzero"/><path fill="#252835" d="M 27.917969 33.890625 C 23.820312 35.375 19.296875 33.242188 17.820312 29.121094 C 17.726562 28.859375 17.644531 28.59375 17.578125 28.320312 C 17.496094 27.980469 17.464844 27.636719 17.488281 27.289062 C 17.511719 26.9375 17.585938 26.601562 17.714844 26.273438 C 17.839844 25.949219 18.015625 25.652344 18.234375 25.378906 C 18.457031 25.109375 18.710938 24.875 19.003906 24.683594 C 19.011719 24.679688 19.015625 24.675781 19.023438 24.671875 C 18.851562 24.765625 18.6875 24.867188 18.53125 24.96875 L 18.53125 24.972656 C 18.28125 25.140625 18.042969 25.320312 17.816406 25.515625 L 17.8125 25.519531 C 17.691406 25.625 17.574219 25.730469 17.46875 25.832031 C 17.097656 26.191406 16.929688 26.628906 16.957031 27.144531 C 16.960938 27.183594 16.964844 27.222656 16.964844 27.261719 C 16.96875 27.273438 16.96875 27.285156 16.96875 27.292969 C 16.972656 27.351562 16.976562 27.40625 16.984375 27.460938 C 16.984375 27.476562 16.988281 27.492188 16.988281 27.507812 C 16.992188 27.546875 16.996094 27.589844 17.003906 27.628906 C 17.003906 27.648438 17.007812 27.667969 17.007812 27.6875 C 17.015625 27.726562 17.019531 27.765625 17.027344 27.804688 C 17.027344 27.824219 17.03125 27.839844 17.03125 27.859375 C 17.042969 27.914062 17.050781 27.96875 17.058594 28.023438 C 17.058594 28.027344 17.058594 28.027344 17.0625 28.027344 C 17.070312 28.082031 17.082031 28.136719 17.089844 28.191406 C 17.09375 28.210938 17.097656 28.226562 17.101562 28.246094 C 17.109375 28.285156 17.117188 28.324219 17.125 28.363281 C 17.128906 28.382812 17.132812 28.402344 17.140625 28.417969 C 17.148438 28.460938 17.15625 28.503906 17.167969 28.546875 C 17.171875 28.558594 17.175781 28.574219 17.179688 28.589844 C 17.191406 28.644531 17.207031 28.699219 17.222656 28.753906 C 17.226562 28.765625 17.226562 28.777344 17.230469 28.789062 C 17.242188 28.835938 17.257812 28.878906 17.269531 28.921875 C 17.273438 28.941406 17.28125 28.960938 17.285156 28.976562 C 17.296875 29.015625 17.308594 29.054688 17.324219 29.09375 C 17.328125 29.113281 17.332031 29.128906 17.339844 29.148438 C 17.355469 29.195312 17.371094 29.242188 17.386719 29.289062 C 17.390625 29.296875 17.394531 29.304688 17.394531 29.316406 C 17.414062 29.371094 17.4375 29.425781 17.457031 29.484375 C 17.46875 29.511719 17.476562 29.535156 17.488281 29.5625 C 17.503906 29.601562 17.519531 29.640625 17.535156 29.675781 C 17.539062 29.691406 17.546875 29.703125 17.550781 29.71875 C 19.117188 33.507812 23.371094 35.5 27.292969 34.207031 C 27.300781 34.207031 27.308594 34.203125 27.316406 34.199219 C 27.390625 34.175781 27.460938 34.148438 27.535156 34.125 C 27.554688 34.117188 27.578125 34.109375 27.597656 34.097656 C 27.648438 34.082031 27.699219 34.0625 27.75 34.042969 C 27.773438 34.03125 27.796875 34.023438 27.820312 34.011719 C 27.871094 33.992188 27.921875 33.972656 27.96875 33.949219 C 27.988281 33.941406 28.011719 33.933594 28.03125 33.921875 C 28.09375 33.894531 28.152344 33.867188 28.214844 33.839844 C 28.21875 33.835938 28.226562 33.832031 28.234375 33.828125 C 28.378906 33.761719 28.519531 33.6875 28.65625 33.613281 L 28.671875 33.601562 C 28.734375 33.566406 28.796875 33.53125 28.859375 33.492188 L 28.878906 33.484375 C 28.945312 33.445312 29.007812 33.402344 29.074219 33.363281 C 28.703125 33.570312 28.316406 33.746094 27.917969 33.890625 Z M 27.917969 33.890625 " fill-opacity="0.2" fill-rule="nonzero"/><path fill="#81cd27" d="M 26.851562 21.851562 C 26.851562 22.027344 26.816406 22.199219 26.75 22.359375 C 26.683594 22.523438 26.585938 22.667969 26.460938 22.792969 C 26.339844 22.917969 26.195312 23.015625 26.03125 23.085938 C 25.867188 23.152344 25.699219 23.1875 25.523438 23.1875 C 25.347656 23.1875 25.175781 23.152344 25.015625 23.085938 C 24.851562 23.015625 24.707031 22.917969 24.582031 22.792969 C 24.457031 22.667969 24.363281 22.523438 24.292969 22.359375 C 24.226562 22.199219 24.195312 22.027344 24.195312 21.851562 C 24.195312 21.671875 24.226562 21.503906 24.292969 21.339844 C 24.363281 21.175781 24.457031 21.03125 24.582031 20.90625 C 24.707031 20.78125 24.851562 20.683594 25.015625 20.617188 C 25.175781 20.546875 25.347656 20.515625 25.523438 20.515625 C 25.699219 20.515625 25.867188 20.546875 26.03125 20.617188 C 26.195312 20.683594 26.339844 20.78125 26.460938 20.90625 C 26.585938 21.03125 26.683594 21.175781 26.75 21.339844 C 26.816406 21.503906 26.851562 21.671875 26.851562 21.851562 Z M 26.851562 21.851562 " fill-opacity="1" fill-rule="nonzero"/><path fill="#f3ffff" d="M 22.109375 21.3125 C 22.109375 21.417969 22.058594 21.46875 21.953125 21.46875 C 21.847656 21.46875 21.796875 21.417969 21.796875 21.3125 C 21.796875 21.207031 21.847656 21.15625 21.953125 21.15625 C 22.058594 21.15625 22.109375 21.207031 22.109375 21.3125 Z M 22.109375 21.3125 " fill-opacity="0.33" fill-rule="nonzero"/><path fill="#81cd27" d="M 29.4375 21.4375 C 29.4375 21.601562 29.378906 21.738281 29.265625 21.855469 C 29.152344 21.96875 29.011719 22.027344 28.851562 22.027344 C 28.691406 22.027344 28.550781 21.96875 28.4375 21.855469 C 28.324219 21.738281 28.265625 21.601562 28.265625 21.4375 C 28.265625 21.277344 28.324219 21.136719 28.4375 21.023438 C 28.550781 20.90625 28.691406 20.851562 28.851562 20.851562 C 29.011719 20.851562 29.152344 20.90625 29.265625 21.023438 C 29.378906 21.136719 29.4375 21.277344 29.4375 21.4375 Z M 29.4375 21.4375 " fill-opacity="1" fill-rule="nonzero"/><path fill="#81cd27" d="M 22.613281 17.484375 C 22.613281 17.648438 22.554688 17.785156 22.441406 17.902344 C 22.328125 18.015625 22.191406 18.074219 22.027344 18.074219 C 21.867188 18.074219 21.726562 18.015625 21.613281 17.902344 C 21.5 17.785156 21.441406 17.648438 21.441406 17.484375 C 21.441406 17.324219 21.5 17.183594 21.613281 17.070312 C 21.726562 16.953125 21.867188 16.898438 22.027344 16.898438 C 22.191406 16.898438 22.328125 16.953125 22.441406 17.070312 C 22.554688 17.183594 22.613281 17.324219 22.613281 17.484375 Z M 22.613281 17.484375 " fill-opacity="1" fill-rule="nonzero"/><path fill="#81cd27" d="M 22.9375 20.765625 C 22.9375 21.035156 22.839844 21.265625 22.652344 21.457031 C 22.460938 21.648438 22.230469 21.746094 21.960938 21.746094 C 21.691406 21.746094 21.460938 21.648438 21.269531 21.457031 C 21.078125 21.265625 20.984375 21.035156 20.984375 20.765625 C 20.984375 20.496094 21.078125 20.261719 21.269531 20.070312 C 21.460938 19.878906 21.691406 19.785156 21.960938 19.785156 C 22.230469 19.785156 22.460938 19.878906 22.652344 20.070312 C 22.839844 20.261719 22.9375 20.496094 22.9375 20.765625 Z M 22.9375 20.765625 " fill-opacity="1" fill-rule="nonzero"/><path fill="#252835" d="M 20.761719 29.738281 C 20.761719 29.90625 20.703125 30.054688 20.582031 30.171875 C 20.464844 30.292969 20.320312 30.351562 20.152344 30.351562 C 19.980469 30.351562 19.835938 30.292969 19.71875 30.171875 C 19.597656 30.054688 19.539062 29.90625 19.539062 29.738281 C 19.539062 29.566406 19.597656 29.421875 19.71875 29.304688 C 19.835938 29.183594 19.980469 29.121094 20.152344 29.121094 C 20.320312 29.121094 20.464844 29.183594 20.582031 29.304688 C 20.703125 29.421875 20.761719 29.566406 20.761719 29.738281 Z M 20.761719 29.738281 " fill-opacity="0.2" fill-rule="nonzero"/><path fill="#252835" d="M 26.898438 29.929688 C 26.898438 30.101562 26.839844 30.246094 26.71875 30.367188 C 26.601562 30.484375 26.457031 30.546875 26.289062 30.546875 C 26.117188 30.546875 25.972656 30.484375 25.855469 30.367188 C 25.734375 30.246094 25.675781 30.101562 25.675781 29.929688 C 25.675781 29.761719 25.734375 29.617188 25.855469 29.496094 C 25.972656 29.375 26.117188 29.316406 26.289062 29.316406 C 26.457031 29.316406 26.601562 29.375 26.71875 29.496094 C 26.839844 29.617188 26.898438 29.761719 26.898438 29.929688 Z M 26.898438 29.929688 " fill-opacity="0.2" fill-rule="nonzero"/><path fill="#252835" d="M 25.285156 29.054688 C 25.285156 29.128906 25.261719 29.191406 25.207031 29.246094 C 25.15625 29.296875 25.09375 29.324219 25.019531 29.324219 C 24.945312 29.324219 24.878906 29.296875 24.828125 29.246094 C 24.777344 29.191406 24.75 29.128906 24.75 29.054688 C 24.75 28.980469 24.777344 28.917969 24.828125 28.863281 C 24.878906 28.8125 24.945312 28.785156 25.019531 28.785156 C 25.09375 28.785156 25.15625 28.8125 25.207031 28.863281 C 25.261719 28.917969 25.285156 28.980469 25.285156 29.054688 Z M 25.285156 29.054688 " fill-opacity="0.4" fill-rule="nonzero"/><path fill="#252835" d="M 30.765625 26.960938 C 30.765625 27.039062 30.738281 27.101562 30.6875 27.152344 C 30.636719 27.207031 30.570312 27.234375 30.496094 27.234375 C 30.421875 27.234375 30.359375 27.207031 30.308594 27.152344 C 30.253906 27.101562 30.230469 27.039062 30.230469 26.960938 C 30.230469 26.886719 30.253906 26.824219 30.308594 26.773438 C 30.359375 26.71875 30.421875 26.691406 30.496094 26.691406 C 30.570312 26.691406 30.636719 26.71875 30.6875 26.773438 C 30.738281 26.824219 30.765625 26.886719 30.765625 26.960938 Z M 30.765625 26.960938 " fill-opacity="0.2" fill-rule="nonzero"/><path fill="#81cd27" d="M 28.328125 24.488281 C 28.328125 24.5625 28.304688 24.625 28.25 24.679688 C 28.199219 24.730469 28.136719 24.757812 28.0625 24.757812 C 27.988281 24.757812 27.925781 24.730469 27.871094 24.679688 C 27.820312 24.625 27.792969 24.5625 27.792969 24.488281 C 27.792969 24.414062 27.820312 24.347656 27.871094 24.296875 C 27.925781 24.242188 27.988281 24.21875 28.0625 24.21875 C 28.136719 24.21875 28.199219 24.242188 28.25 24.296875 C 28.304688 24.347656 28.328125 24.414062 28.328125 24.488281 Z M 28.328125 24.488281 " fill-opacity="1" fill-rule="nonzero"/><path fill="#81cd27" d="M 29.234375 24.554688 C 29.234375 24.65625 29.199219 24.738281 29.128906 24.808594 C 29.058594 24.878906 28.976562 24.914062 28.878906 24.914062 C 28.78125 24.914062 28.695312 24.878906 28.625 24.808594 C 28.558594 24.738281 28.523438 24.65625 28.523438 24.554688 C 28.523438 24.457031 28.558594 24.375 28.625 24.304688 C 28.695312 24.234375 28.78125 24.199219 28.878906 24.199219 C 28.976562 24.199219 29.058594 24.234375 29.128906 24.304688 C 29.199219 24.375 29.234375 24.457031 29.234375 24.554688 Z M 29.234375 24.554688 " fill-opacity="1" fill-rule="nonzero"/><path fill="#252835" d="M 22.34375 26.449219 C 22.34375 26.523438 22.316406 26.585938 22.265625 26.640625 C 22.210938 26.691406 22.148438 26.71875 22.074219 26.71875 C 22 26.71875 21.9375 26.691406 21.882812 26.640625 C 21.832031 26.585938 21.804688 26.523438 21.804688 26.449219 C 21.804688 26.375 21.832031 26.308594 21.882812 26.257812 C 21.9375 26.203125 22 26.179688 22.074219 26.179688 C 22.148438 26.179688 22.210938 26.203125 22.265625 26.257812 C 22.316406 26.308594 22.34375 26.375 22.34375 26.449219 Z M 22.34375 26.449219 " fill-opacity="0.2" fill-rule="nonzero"/><path fill="#252835" d="M 25.726562 32.605469 C 25.726562 32.679688 25.699219 32.746094 25.648438 32.796875 C 25.597656 32.851562 25.53125 32.875 25.457031 32.875 C 25.382812 32.875 25.320312 32.851562 25.269531 32.796875 C 25.214844 32.746094 25.191406 32.679688 25.191406 32.605469 C 25.191406 32.53125 25.214844 32.46875 25.269531 32.414062 C 25.320312 32.363281 25.382812 32.335938 25.457031 32.335938 C 25.53125 32.335938 25.597656 32.363281 25.648438 32.414062 C 25.699219 32.46875 25.726562 32.53125 25.726562 32.605469 Z M 25.726562 32.605469 " fill-opacity="0.2" fill-rule="nonzero"/><path fill="#252835" d="M 21.242188 30.636719 C 21.242188 30.707031 21.21875 30.765625 21.167969 30.816406 C 21.117188 30.867188 21.058594 30.890625 20.988281 30.890625 C 20.917969 30.890625 20.859375 30.867188 20.808594 30.816406 C 20.761719 30.765625 20.734375 30.707031 20.734375 30.636719 C 20.734375 30.566406 20.761719 30.503906 20.808594 30.457031 C 20.859375 30.40625 20.917969 30.382812 20.988281 30.382812 C 21.058594 30.382812 21.117188 30.40625 21.167969 30.457031 C 21.21875 30.503906 21.242188 30.566406 21.242188 30.636719 Z M 21.242188 30.636719 " fill-opacity="0.2" fill-rule="nonzero"/><path fill="#252835" d="M 24.816406 34.800781 C 24.304688 34.800781 23.800781 34.75 23.300781 34.652344 C 22.800781 34.554688 22.316406 34.410156 21.84375 34.21875 C 21.371094 34.03125 20.921875 33.796875 20.492188 33.523438 C 20.0625 33.246094 19.664062 32.933594 19.292969 32.582031 C 18.921875 32.230469 18.585938 31.847656 18.289062 31.433594 C 17.992188 31.019531 17.734375 30.582031 17.519531 30.117188 C 17.300781 29.652344 17.132812 29.175781 17.003906 28.679688 C 16.878906 28.183594 16.800781 27.679688 16.769531 27.167969 C 16.730469 26.585938 16.921875 26.09375 17.34375 25.6875 C 18.441406 24.636719 20.210938 23.476562 22.417969 23.929688 C 23.5 24.152344 24.382812 24.503906 25.160156 24.8125 C 25.265625 24.851562 25.371094 24.894531 25.472656 24.933594 C 26.382812 24.03125 28.207031 22.632812 30.71875 22.679688 C 31.101562 22.691406 31.453125 22.804688 31.765625 23.03125 C 32.078125 23.253906 32.300781 23.546875 32.433594 23.910156 L 32.4375 23.921875 C 32.617188 24.421875 32.746094 24.9375 32.824219 25.464844 C 32.902344 25.992188 32.929688 26.519531 32.90625 27.054688 C 32.882812 27.585938 32.804688 28.109375 32.675781 28.628906 C 32.550781 29.144531 32.375 29.644531 32.148438 30.128906 C 31.921875 30.609375 31.652344 31.066406 31.335938 31.496094 C 31.023438 31.925781 30.667969 32.316406 30.277344 32.675781 C 29.882812 33.035156 29.460938 33.351562 29.007812 33.628906 C 28.550781 33.902344 28.074219 34.132812 27.578125 34.3125 C 26.683594 34.636719 25.765625 34.800781 24.816406 34.800781 Z M 21.441406 24.214844 C 19.808594 24.214844 18.480469 25.125 17.605469 25.964844 C 17.269531 26.289062 17.117188 26.679688 17.148438 27.144531 C 17.195312 27.921875 17.355469 28.671875 17.628906 29.394531 C 19.125 33.402344 23.4375 35.40625 27.445312 33.953125 C 31.441406 32.503906 33.519531 28.0625 32.078125 24.050781 L 32.074219 24.039062 C 31.96875 23.75 31.789062 23.519531 31.542969 23.339844 C 31.292969 23.164062 31.015625 23.070312 30.710938 23.0625 C 30.671875 23.0625 30.632812 23.0625 30.59375 23.0625 C 28.199219 23.0625 26.476562 24.453125 25.65625 25.292969 L 25.566406 25.382812 L 25.449219 25.335938 C 25.308594 25.28125 25.167969 25.226562 25.019531 25.167969 C 24.257812 24.863281 23.390625 24.523438 22.339844 24.304688 C 22.042969 24.246094 21.742188 24.214844 21.441406 24.214844 Z M 21.441406 24.214844 " fill-opacity="1" fill-rule="nonzero"/><path fill="#f3ffff" d="M 2.371094 15.179688 C 2.523438 15.410156 2.714844 15.601562 2.945312 15.757812 C 3.171875 15.910156 3.421875 16.015625 3.695312 16.070312 C 3.964844 16.125 4.238281 16.125 4.507812 16.070312 C 4.777344 16.019531 5.03125 15.914062 5.257812 15.761719 L 17.261719 7.726562 L 14.949219 4.238281 L 2.949219 12.273438 C 2.71875 12.429688 2.527344 12.621094 2.371094 12.851562 C 2.21875 13.082031 2.113281 13.332031 2.0625 13.605469 C 2.007812 13.878906 2.007812 14.152344 2.058594 14.421875 C 2.113281 14.695312 2.214844 14.945312 2.371094 15.179688 Z M 2.371094 15.179688 " fill-opacity="1" fill-rule="nonzero"/><path fill="#252835" d="M 5.015625 15.390625 L 17.015625 7.355469 L 17.261719 7.726562 L 5.257812 15.761719 C 5.03125 15.914062 4.777344 16.019531 4.507812 16.070312 C 4.238281 16.125 3.964844 16.125 3.695312 16.070312 C 3.421875 16.015625 3.171875 15.910156 2.945312 15.757812 C 2.714844 15.601562 2.523438 15.410156 2.371094 15.179688 C 2.328125 15.117188 2.289062 15.050781 2.257812 14.988281 C 2.421875 15.183594 2.617188 15.347656 2.839844 15.472656 C 3.0625 15.601562 3.304688 15.683594 3.558594 15.71875 C 3.8125 15.757812 4.066406 15.746094 4.316406 15.691406 C 4.566406 15.632812 4.800781 15.53125 5.015625 15.390625 Z M 5.015625 15.390625 " fill-opacity="0.2" fill-rule="nonzero"/><path fill="#fdbf30" d="M 13.160156 9.792969 L 5.050781 15.21875 C 4.355469 15.683594 3.40625 15.519531 2.929688 14.824219 C 2.816406 14.65625 2.738281 14.472656 2.695312 14.269531 C 2.652344 14.070312 2.652344 13.867188 2.691406 13.667969 C 2.730469 13.464844 2.804688 13.28125 2.917969 13.109375 C 3.03125 12.9375 3.171875 12.796875 3.339844 12.679688 L 9.410156 8.617188 C 9.746094 8.390625 10.101562 8.351562 10.480469 8.496094 C 11.8125 9.011719 13.441406 9.125 13.269531 9.648438 C 13.25 9.707031 13.214844 9.757812 13.160156 9.792969 Z M 13.160156 9.792969 " fill-opacity="1" fill-rule="nonzero"/><path fill="#f3ffff" d="M 3.96875 12.773438 C 4.207031 12.570312 4.457031 12.382812 4.707031 12.199219 C 4.832031 12.105469 4.960938 12.015625 5.089844 11.925781 C 5.21875 11.839844 5.347656 11.75 5.476562 11.664062 C 5.605469 11.578125 5.734375 11.492188 5.867188 11.40625 C 6 11.324219 6.128906 11.238281 6.261719 11.160156 C 6.527344 10.996094 6.796875 10.835938 7.074219 10.6875 C 7.089844 10.679688 7.101562 10.679688 7.113281 10.695312 C 7.125 10.714844 7.121094 10.726562 7.105469 10.738281 C 6.863281 10.9375 6.613281 11.125 6.363281 11.308594 C 6.234375 11.402344 6.109375 11.488281 5.980469 11.578125 C 5.851562 11.667969 5.722656 11.757812 5.59375 11.84375 C 5.464844 11.929688 5.335938 12.015625 5.203125 12.101562 C 5.074219 12.183594 4.941406 12.269531 4.808594 12.347656 C 4.542969 12.511719 4.273438 12.671875 3.996094 12.816406 C 3.980469 12.820312 3.96875 12.820312 3.960938 12.808594 C 3.953125 12.792969 3.957031 12.785156 3.96875 12.773438 Z M 3.96875 12.773438 " fill-opacity="0.3" fill-rule="nonzero"/><path fill="#f3ffff" d="M 3.085938 13.691406 C 3.085938 13.617188 3.101562 13.542969 3.128906 13.46875 C 3.152344 13.398438 3.1875 13.332031 3.230469 13.269531 C 3.277344 13.207031 3.324219 13.152344 3.382812 13.101562 C 3.441406 13.050781 3.503906 13.011719 3.574219 12.980469 C 3.585938 12.976562 3.59375 12.980469 3.601562 12.988281 C 3.609375 12.996094 3.613281 13.007812 3.605469 13.019531 C 3.566406 13.082031 3.523438 13.136719 3.484375 13.195312 L 3.367188 13.363281 L 3.25 13.535156 C 3.210938 13.589844 3.171875 13.648438 3.121094 13.707031 C 3.117188 13.714844 3.109375 13.714844 3.101562 13.710938 C 3.089844 13.707031 3.085938 13.703125 3.085938 13.691406 Z M 3.085938 13.691406 " fill-opacity="0.3" fill-rule="nonzero"/><path fill="#f3ffff" d="M 9.523438 9.429688 C 9.277344 8.925781 9.695312 8.347656 10.246094 8.433594 C 10.324219 8.445312 10.402344 8.46875 10.480469 8.496094 C 11.8125 9.011719 13.441406 9.125 13.269531 9.648438 C 13.257812 9.683594 13.234375 9.710938 13.199219 9.726562 C 11.949219 10.289062 10.003906 10.390625 9.527344 9.4375 C 9.527344 9.433594 9.523438 9.429688 9.523438 9.429688 Z M 9.523438 9.429688 " fill-opacity="0.33" fill-rule="nonzero"/><path fill="#252835" d="M 13.28125 9.613281 C 13.277344 9.617188 13.277344 9.621094 13.277344 9.621094 C 13.277344 9.621094 13.277344 9.617188 13.28125 9.613281 Z M 13.28125 9.613281 " fill-opacity="0.2" fill-rule="nonzero"/><path fill="#252835" d="M 13.234375 9.441406 C 13.234375 9.4375 13.234375 9.433594 13.230469 9.433594 C 13.234375 9.433594 13.234375 9.4375 13.234375 9.441406 Z M 13.234375 9.441406 " fill-opacity="0.2" fill-rule="nonzero"/><path fill="#252835" d="M 13.261719 9.484375 C 13.261719 9.480469 13.257812 9.476562 13.257812 9.476562 C 13.257812 9.476562 13.261719 9.480469 13.261719 9.484375 Z M 13.261719 9.484375 " fill-opacity="0.2" fill-rule="nonzero"/><path fill="#252835" d="M 13.21875 9.417969 C 13.21875 9.417969 13.214844 9.414062 13.214844 9.414062 C 13.214844 9.414062 13.21875 9.417969 13.21875 9.417969 Z M 13.21875 9.417969 " fill-opacity="0.2" fill-rule="nonzero"/><path fill="#252835" d="M 13.199219 9.398438 C 13.195312 9.394531 13.195312 9.394531 13.195312 9.394531 C 13.195312 9.394531 13.195312 9.394531 13.199219 9.398438 Z M 13.199219 9.398438 " fill-opacity="0.2" fill-rule="nonzero"/><path fill="#252835" d="M 13.246094 9.453125 C 13.246094 9.457031 13.25 9.457031 13.25 9.460938 C 13.25 9.457031 13.246094 9.457031 13.246094 9.453125 Z M 13.246094 9.453125 " fill-opacity="0.2" fill-rule="nonzero"/><path fill="#252835" d="M 4.835938 14.890625 L 12.023438 10.078125 C 12.429688 10.011719 12.824219 9.890625 13.199219 9.726562 C 13.234375 9.710938 13.257812 9.683594 13.269531 9.648438 C 13.25 9.710938 13.210938 9.757812 13.160156 9.792969 L 5.050781 15.21875 C 4.355469 15.683594 3.40625 15.519531 2.929688 14.824219 C 2.890625 14.765625 2.851562 14.703125 2.820312 14.636719 C 3.320312 15.210938 4.1875 15.328125 4.835938 14.890625 Z M 4.835938 14.890625 " fill-opacity="0.2" fill-rule="nonzero"/><path fill="#252835" d="M 13.296875 9.351562 C 13.347656 9.40625 13.378906 9.46875 13.386719 9.539062 C 13.390625 9.578125 13.390625 9.613281 13.382812 9.648438 C 13.378906 9.667969 13.371094 9.6875 13.363281 9.703125 C 13.355469 9.726562 13.34375 9.746094 13.328125 9.761719 C 13.3125 9.777344 13.296875 9.792969 13.277344 9.804688 C 13.269531 9.8125 13.261719 9.816406 13.25 9.820312 L 13.230469 9.832031 L 13.160156 9.859375 C 13.117188 9.882812 13.070312 9.898438 13.023438 9.917969 C 12.835938 9.992188 12.644531 10.050781 12.449219 10.097656 C 12.257812 10.144531 12.058594 10.179688 11.863281 10.199219 C 11.664062 10.222656 11.464844 10.226562 11.265625 10.210938 C 11.230469 10.207031 11.210938 10.191406 11.210938 10.152344 C 11.210938 10.117188 11.226562 10.097656 11.261719 10.09375 L 11.265625 10.09375 C 11.457031 10.074219 11.648438 10.046875 11.835938 10.011719 C 12.027344 9.980469 12.214844 9.941406 12.398438 9.890625 C 12.492188 9.867188 12.582031 9.839844 12.671875 9.808594 C 12.765625 9.78125 12.855469 9.75 12.945312 9.714844 C 12.988281 9.695312 13.03125 9.679688 13.078125 9.660156 L 13.140625 9.632812 L 13.15625 9.625 C 13.15625 9.625 13.160156 9.625 13.160156 9.625 C 13.164062 9.625 13.164062 9.621094 13.164062 9.621094 C 13.167969 9.625 13.179688 9.582031 13.179688 9.5625 C 13.175781 9.535156 13.164062 9.511719 13.144531 9.488281 C 13.101562 9.4375 13.105469 9.390625 13.15625 9.34375 C 13.207031 9.300781 13.253906 9.304688 13.296875 9.351562 Z M 13.296875 9.351562 " fill-opacity="1" fill-rule="nonzero"/><path fill="#252835" d="M 4.191406 15.625 C 3.824219 15.628906 3.492188 15.519531 3.195312 15.300781 C 2.898438 15.078125 2.699219 14.792969 2.589844 14.441406 C 2.484375 14.085938 2.492188 13.734375 2.617188 13.386719 C 2.742188 13.039062 2.957031 12.765625 3.261719 12.558594 L 9.332031 8.496094 C 9.707031 8.246094 10.109375 8.199219 10.53125 8.363281 C 10.992188 8.539062 11.496094 8.671875 11.941406 8.785156 C 12.6875 8.980469 13.230469 9.117188 13.382812 9.402344 C 13.433594 9.496094 13.441406 9.59375 13.410156 9.691406 C 13.378906 9.785156 13.320312 9.859375 13.238281 9.914062 L 5.132812 15.339844 C 4.847656 15.53125 4.53125 15.625 4.191406 15.625 Z M 10.0625 8.5625 C 9.855469 8.5625 9.664062 8.621094 9.492188 8.738281 L 3.421875 12.800781 C 3.269531 12.90625 3.140625 13.035156 3.039062 13.1875 C 2.933594 13.34375 2.867188 13.511719 2.832031 13.695312 C 2.796875 13.878906 2.796875 14.058594 2.835938 14.242188 C 2.875 14.421875 2.945312 14.589844 3.050781 14.742188 C 3.476562 15.363281 4.335938 15.523438 4.972656 15.097656 L 13.078125 9.671875 C 13.105469 9.65625 13.125 9.632812 13.132812 9.601562 C 13.144531 9.582031 13.140625 9.5625 13.128906 9.542969 C 13.035156 9.367188 12.445312 9.214844 11.871094 9.066406 C 11.417969 8.949219 10.90625 8.816406 10.429688 8.632812 C 10.3125 8.585938 10.1875 8.5625 10.0625 8.5625 Z M 10.0625 8.5625 " fill-opacity="1" fill-rule="nonzero"/><g clip-path="url(#22fbfcabbb)"><path fill="#252835" d="M 4.109375 16.292969 C 3.957031 16.292969 3.808594 16.277344 3.660156 16.25 C 3.046875 16.125 2.566406 15.804688 2.21875 15.277344 C 2.054688 15.027344 1.941406 14.753906 1.882812 14.457031 C 1.824219 14.160156 1.824219 13.867188 1.882812 13.570312 C 1.941406 13.273438 2.054688 13 2.222656 12.75 C 2.390625 12.5 2.597656 12.292969 2.847656 12.125 L 15 3.988281 L 17.511719 7.773438 L 5.359375 15.910156 C 4.980469 16.164062 4.5625 16.292969 4.109375 16.292969 Z M 14.898438 4.492188 L 3.046875 12.425781 C 2.839844 12.566406 2.664062 12.742188 2.523438 12.953125 C 2.382812 13.164062 2.285156 13.394531 2.238281 13.640625 C 2.1875 13.890625 2.1875 14.140625 2.234375 14.386719 C 2.285156 14.636719 2.378906 14.867188 2.519531 15.078125 C 2.660156 15.289062 2.835938 15.464844 3.042969 15.605469 C 3.253906 15.746094 3.484375 15.84375 3.730469 15.894531 C 3.976562 15.941406 4.226562 15.941406 4.472656 15.894531 C 4.71875 15.84375 4.949219 15.75 5.160156 15.609375 L 17.011719 7.675781 Z M 14.898438 4.492188 " fill-opacity="1" fill-rule="nonzero"/></g><g clip-path="url(#fd3b11edf4)"><path fill="#f3ffff" d="M 14.558594 3.722656 L 14.597656 3.699219 C 14.78125 3.578125 14.980469 3.539062 15.199219 3.582031 C 15.414062 3.625 15.585938 3.738281 15.707031 3.925781 L 17.84375 7.144531 C 17.964844 7.328125 18.003906 7.53125 17.960938 7.75 C 17.917969 7.964844 17.804688 8.136719 17.621094 8.261719 L 17.582031 8.285156 C 17.398438 8.40625 17.199219 8.445312 16.980469 8.402344 C 16.765625 8.359375 16.597656 8.246094 16.472656 8.0625 L 14.339844 4.839844 C 14.214844 4.65625 14.175781 4.453125 14.21875 4.234375 C 14.261719 4.019531 14.375 3.847656 14.558594 3.722656 Z M 14.558594 3.722656 " fill-opacity="1" fill-rule="nonzero"/></g><path fill="#252835" d="M 14.441406 4.457031 L 16.578125 7.679688 C 16.699219 7.863281 16.867188 7.976562 17.085938 8.023438 C 17.300781 8.066406 17.503906 8.027344 17.6875 7.902344 L 17.722656 7.878906 C 17.828125 7.808594 17.914062 7.714844 17.976562 7.601562 C 17.972656 7.886719 17.851562 8.105469 17.621094 8.261719 L 17.582031 8.285156 C 17.398438 8.40625 17.199219 8.445312 16.984375 8.402344 C 16.765625 8.359375 16.597656 8.246094 16.472656 8.0625 L 14.339844 4.839844 C 14.15625 4.566406 14.144531 4.285156 14.308594 4 C 14.304688 4.167969 14.347656 4.320312 14.441406 4.457031 Z M 14.441406 4.457031 " fill-opacity="0.2" fill-rule="nonzero"/><g clip-path="url(#0f07cadbc5)"><path fill="#252835" d="M 16.03125 7.175781 C 16.238281 7.34375 16.359375 7.570312 16.503906 7.78125 L 16.613281 7.941406 L 16.625 7.960938 L 16.636719 7.972656 L 16.660156 8.003906 C 16.675781 8.023438 16.691406 8.039062 16.707031 8.058594 C 16.859375 8.207031 17.042969 8.261719 17.25 8.222656 C 17.273438 8.214844 17.296875 8.210938 17.320312 8.203125 C 17.34375 8.195312 17.367188 8.1875 17.390625 8.175781 L 17.421875 8.160156 C 17.433594 8.15625 17.441406 8.148438 17.453125 8.144531 C 17.464844 8.136719 17.472656 8.132812 17.488281 8.121094 L 17.507812 8.109375 L 17.515625 8.101562 L 17.523438 8.097656 C 17.605469 8.039062 17.667969 7.96875 17.714844 7.878906 C 17.761719 7.792969 17.785156 7.699219 17.785156 7.597656 C 17.785156 7.5 17.765625 7.40625 17.71875 7.316406 C 17.710938 7.296875 17.695312 7.277344 17.683594 7.253906 L 17.632812 7.175781 L 17.527344 7.015625 L 17.101562 6.378906 L 16.253906 5.101562 L 15.621094 4.140625 L 15.566406 4.0625 L 15.554688 4.042969 C 15.550781 4.035156 15.546875 4.027344 15.542969 4.023438 L 15.519531 3.996094 L 15.511719 3.980469 L 15.496094 3.96875 L 15.472656 3.941406 C 15.457031 3.921875 15.4375 3.90625 15.417969 3.890625 C 15.253906 3.757812 15.074219 3.722656 14.871094 3.78125 C 14.847656 3.789062 14.824219 3.796875 14.800781 3.804688 C 14.78125 3.816406 14.757812 3.824219 14.738281 3.835938 L 14.707031 3.855469 C 14.695312 3.863281 14.679688 3.875 14.667969 3.882812 C 14.648438 3.898438 14.625 3.910156 14.609375 3.925781 C 14.53125 3.992188 14.476562 4.070312 14.4375 4.160156 C 14.398438 4.253906 14.382812 4.347656 14.390625 4.449219 C 14.398438 4.546875 14.429688 4.640625 14.484375 4.726562 L 14.902344 5.363281 L 15.320312 6.003906 C 15.460938 6.21875 15.585938 6.445312 15.691406 6.679688 C 15.714844 6.738281 15.703125 6.78125 15.648438 6.816406 C 15.597656 6.851562 15.550781 6.847656 15.503906 6.800781 C 15.332031 6.613281 15.171875 6.414062 15.027344 6.199219 L 14.601562 5.5625 L 14.390625 5.246094 L 14.28125 5.085938 L 14.230469 5.007812 L 14.203125 4.964844 C 14.195312 4.953125 14.183594 4.941406 14.175781 4.921875 C 14.089844 4.789062 14.039062 4.640625 14.023438 4.480469 C 14.007812 4.320312 14.03125 4.167969 14.089844 4.019531 C 14.152344 3.867188 14.242188 3.742188 14.363281 3.636719 C 14.394531 3.613281 14.425781 3.589844 14.457031 3.566406 C 14.472656 3.554688 14.480469 3.546875 14.5 3.539062 L 14.546875 3.507812 C 14.582031 3.488281 14.617188 3.46875 14.652344 3.453125 C 14.691406 3.4375 14.726562 3.425781 14.765625 3.414062 C 15.09375 3.316406 15.390625 3.375 15.660156 3.589844 C 15.6875 3.613281 15.71875 3.640625 15.746094 3.667969 L 15.785156 3.714844 L 15.804688 3.734375 L 15.824219 3.757812 L 15.859375 3.804688 C 15.867188 3.816406 15.871094 3.820312 15.875 3.828125 L 15.886719 3.847656 L 15.941406 3.925781 L 16.152344 4.246094 L 16.578125 4.882812 L 17.421875 6.160156 L 17.847656 6.800781 L 17.953125 6.960938 L 18.003906 7.042969 C 18.023438 7.074219 18.046875 7.109375 18.0625 7.144531 C 18.132812 7.289062 18.167969 7.441406 18.167969 7.605469 C 18.160156 7.945312 18.019531 8.214844 17.734375 8.40625 L 17.722656 8.417969 L 17.714844 8.421875 L 17.695312 8.4375 C 17.679688 8.445312 17.660156 8.457031 17.644531 8.464844 C 17.628906 8.476562 17.613281 8.484375 17.59375 8.496094 L 17.542969 8.519531 C 17.503906 8.535156 17.46875 8.550781 17.429688 8.5625 C 17.394531 8.574219 17.355469 8.582031 17.316406 8.589844 C 16.984375 8.648438 16.695312 8.558594 16.453125 8.320312 C 16.425781 8.292969 16.398438 8.265625 16.375 8.234375 L 16.339844 8.1875 L 16.320312 8.164062 L 16.308594 8.144531 L 16.203125 7.984375 C 16.066406 7.765625 15.90625 7.566406 15.832031 7.308594 C 15.8125 7.25 15.832031 7.203125 15.882812 7.167969 C 15.933594 7.132812 15.984375 7.136719 16.03125 7.175781 Z M 16.03125 7.175781 " fill-opacity="1" fill-rule="nonzero"/></g><path fill="#252835" d="M 9.035156 11.253906 C 9.035156 11.371094 8.992188 11.46875 8.914062 11.550781 C 8.832031 11.632812 8.734375 11.675781 8.617188 11.675781 C 8.503906 11.675781 8.40625 11.632812 8.324219 11.550781 C 8.242188 11.46875 8.203125 11.371094 8.203125 11.253906 C 8.203125 11.140625 8.242188 11.042969 8.324219 10.960938 C 8.40625 10.878906 8.503906 10.835938 8.617188 10.835938 C 8.734375 10.835938 8.832031 10.878906 8.914062 10.960938 C 8.992188 11.042969 9.035156 11.140625 9.035156 11.253906 Z M 9.035156 11.253906 " fill-opacity="0.2" fill-rule="nonzero"/><path fill="#252835" d="M 8.027344 11.1875 C 8.027344 11.335938 7.953125 11.410156 7.804688 11.410156 C 7.65625 11.410156 7.582031 11.335938 7.582031 11.1875 C 7.582031 11.035156 7.65625 10.960938 7.804688 10.960938 C 7.953125 10.960938 8.027344 11.035156 8.027344 11.1875 Z M 8.027344 11.1875 " fill-opacity="0.2" fill-rule="nonzero"/><path fill="#252835" d="M 4.53125 13.550781 C 4.53125 13.628906 4.503906 13.699219 4.449219 13.753906 C 4.390625 13.8125 4.324219 13.839844 4.246094 13.839844 C 4.164062 13.839844 4.097656 13.8125 4.039062 13.753906 C 3.984375 13.699219 3.957031 13.628906 3.957031 13.550781 C 3.957031 13.46875 3.984375 13.402344 4.039062 13.34375 C 4.097656 13.289062 4.164062 13.261719 4.246094 13.261719 C 4.324219 13.261719 4.390625 13.289062 4.449219 13.34375 C 4.503906 13.402344 4.53125 13.46875 4.53125 13.550781 Z M 4.53125 13.550781 " fill-opacity="0.2" fill-rule="nonzero"/><path fill="#252835" d="M 6.101562 13.183594 C 6.101562 13.339844 6.019531 13.417969 5.863281 13.417969 C 5.707031 13.417969 5.628906 13.339844 5.628906 13.183594 C 5.628906 13.023438 5.707031 12.945312 5.863281 12.945312 C 6.019531 12.945312 6.101562 13.023438 6.101562 13.183594 Z M 6.101562 13.183594 " fill-opacity="0.2" fill-rule="nonzero"/><path fill="#fdbf30" d="M 13.691406 7.726562 C 13.691406 7.941406 13.613281 8.125 13.464844 8.273438 C 13.316406 8.425781 13.132812 8.5 12.921875 8.5 C 12.707031 8.5 12.527344 8.425781 12.378906 8.273438 C 12.226562 8.125 12.152344 7.941406 12.152344 7.726562 C 12.152344 7.515625 12.226562 7.332031 12.378906 7.183594 C 12.527344 7.03125 12.707031 6.957031 12.921875 6.957031 C 13.132812 6.957031 13.316406 7.03125 13.464844 7.183594 C 13.613281 7.332031 13.691406 7.515625 13.691406 7.726562 Z M 13.691406 7.726562 " fill-opacity="1" fill-rule="nonzero"/><path fill="#fdbf30" d="M 15.058594 7.597656 C 15.058594 7.6875 15.027344 7.761719 14.960938 7.828125 C 14.898438 7.890625 14.824219 7.921875 14.734375 7.921875 C 14.644531 7.921875 14.566406 7.890625 14.503906 7.828125 C 14.441406 7.761719 14.410156 7.6875 14.410156 7.597656 C 14.410156 7.507812 14.441406 7.429688 14.503906 7.367188 C 14.566406 7.300781 14.644531 7.269531 14.734375 7.269531 C 14.824219 7.269531 14.898438 7.300781 14.960938 7.367188 C 15.027344 7.429688 15.058594 7.507812 15.058594 7.597656 Z M 15.058594 7.597656 " fill-opacity="1" fill-rule="nonzero"/><path fill="#fdbf30" d="M 14.566406 6.402344 C 14.566406 6.554688 14.511719 6.683594 14.40625 6.792969 C 14.296875 6.902344 14.167969 6.957031 14.015625 6.957031 C 13.863281 6.957031 13.730469 6.902344 13.625 6.792969 C 13.515625 6.683594 13.460938 6.554688 13.460938 6.402344 C 13.460938 6.246094 13.515625 6.117188 13.625 6.007812 C 13.730469 5.898438 13.863281 5.84375 14.015625 5.84375 C 14.167969 5.84375 14.296875 5.898438 14.40625 6.007812 C 14.511719 6.117188 14.566406 6.246094 14.566406 6.402344 Z M 14.566406 6.402344 " fill-opacity="1" fill-rule="nonzero"/><g clip-path="url(#2fc4c4bcf6)"><path fill="#f2355b" d="M 22.183594 4.121094 C 22.183594 4.378906 22.089844 4.601562 21.90625 4.785156 C 21.722656 4.96875 21.503906 5.0625 21.246094 5.0625 C 20.984375 5.0625 20.765625 4.96875 20.582031 4.785156 C 20.398438 4.601562 20.308594 4.378906 20.308594 4.121094 C 20.308594 3.859375 20.398438 3.636719 20.582031 3.453125 C 20.765625 3.269531 20.984375 3.179688 21.246094 3.179688 C 21.503906 3.179688 21.722656 3.269531 21.90625 3.453125 C 22.089844 3.636719 22.183594 3.859375 22.183594 4.121094 Z M 22.183594 4.121094 " fill-opacity="1" fill-rule="nonzero"/></g><path fill="#f2355b" d="M 29 14.640625 C 29 14.902344 28.90625 15.121094 28.722656 15.304688 C 28.539062 15.488281 28.320312 15.582031 28.0625 15.582031 C 27.800781 15.582031 27.582031 15.488281 27.398438 15.304688 C 27.214844 15.121094 27.125 14.902344 27.125 14.640625 C 27.125 14.378906 27.214844 14.160156 27.398438 13.976562 C 27.582031 13.792969 27.800781 13.699219 28.0625 13.699219 C 28.320312 13.699219 28.539062 13.792969 28.722656 13.976562 C 28.90625 14.160156 29 14.378906 29 14.640625 Z M 29 14.640625 " fill-opacity="1" fill-rule="nonzero"/><path fill="#f2355b" d="M 29.4375 8.582031 C 29.4375 8.804688 29.359375 8.992188 29.203125 9.148438 C 29.046875 9.304688 28.859375 9.382812 28.640625 9.382812 C 28.417969 9.382812 28.230469 9.304688 28.078125 9.148438 C 27.921875 8.992188 27.84375 8.804688 27.84375 8.582031 C 27.84375 8.359375 27.921875 8.171875 28.078125 8.015625 C 28.230469 7.859375 28.417969 7.78125 28.640625 7.78125 C 28.859375 7.78125 29.046875 7.859375 29.203125 8.015625 C 29.359375 8.171875 29.4375 8.359375 29.4375 8.582031 Z M 29.4375 8.582031 " fill-opacity="1" fill-rule="nonzero"/><path fill="#f2355b" d="M 16.851562 19.785156 C 16.851562 20.042969 16.757812 20.265625 16.578125 20.449219 C 16.394531 20.632812 16.171875 20.726562 15.914062 20.726562 C 15.65625 20.726562 15.433594 20.632812 15.25 20.449219 C 15.070312 20.265625 14.976562 20.042969 14.976562 19.785156 C 14.976562 19.523438 15.070312 19.300781 15.25 19.117188 C 15.433594 18.933594 15.65625 18.84375 15.914062 18.84375 C 16.171875 18.84375 16.394531 18.933594 16.578125 19.117188 C 16.757812 19.300781 16.851562 19.523438 16.851562 19.785156 Z M 16.851562 19.785156 " fill-opacity="1" fill-rule="nonzero"/><path fill="#f2355b" d="M 23.910156 4.414062 C 23.910156 4.527344 23.867188 4.625 23.789062 4.707031 C 23.707031 4.789062 23.609375 4.828125 23.496094 4.828125 C 23.382812 4.828125 23.285156 4.789062 23.207031 4.707031 C 23.125 4.625 23.085938 4.527344 23.085938 4.414062 C 23.085938 4.300781 23.125 4.203125 23.207031 4.121094 C 23.285156 4.039062 23.382812 4 23.496094 4 C 23.609375 4 23.707031 4.039062 23.789062 4.121094 C 23.867188 4.203125 23.910156 4.300781 23.910156 4.414062 Z M 23.910156 4.414062 " fill-opacity="1" fill-rule="nonzero"/><path fill="#f2355b" d="M 30.351562 10.582031 C 30.351562 10.695312 30.3125 10.792969 30.230469 10.875 C 30.148438 10.953125 30.054688 10.996094 29.9375 10.996094 C 29.824219 10.996094 29.726562 10.953125 29.648438 10.875 C 29.566406 10.792969 29.527344 10.695312 29.527344 10.582031 C 29.527344 10.464844 29.566406 10.367188 29.648438 10.289062 C 29.726562 10.207031 29.824219 10.167969 29.9375 10.167969 C 30.054688 10.167969 30.148438 10.207031 30.230469 10.289062 C 30.3125 10.367188 30.351562 10.464844 30.351562 10.582031 Z M 30.351562 10.582031 " fill-opacity="1" fill-rule="nonzero"/><path fill="#f2355b" d="M 26.664062 16.550781 C 26.664062 16.664062 26.625 16.761719 26.542969 16.84375 C 26.464844 16.921875 26.367188 16.964844 26.253906 16.964844 C 26.140625 16.964844 26.042969 16.921875 25.960938 16.84375 C 25.882812 16.761719 25.839844 16.664062 25.839844 16.550781 C 25.839844 16.433594 25.882812 16.335938 25.960938 16.257812 C 26.042969 16.175781 26.140625 16.136719 26.253906 16.136719 C 26.367188 16.136719 26.464844 16.175781 26.542969 16.257812 C 26.625 16.335938 26.664062 16.433594 26.664062 16.550781 Z M 26.664062 16.550781 " fill-opacity="1" fill-rule="nonzero"/><path fill="#f2355b" d="M 12.921875 19.34375 C 12.921875 19.460938 12.882812 19.558594 12.800781 19.636719 C 12.71875 19.71875 12.621094 19.757812 12.507812 19.757812 C 12.394531 19.757812 12.296875 19.71875 12.21875 19.636719 C 12.136719 19.558594 12.097656 19.460938 12.097656 19.34375 C 12.097656 19.230469 12.136719 19.132812 12.21875 19.050781 C 12.296875 18.972656 12.394531 18.929688 12.507812 18.929688 C 12.621094 18.929688 12.71875 18.972656 12.800781 19.050781 C 12.882812 19.132812 12.921875 19.230469 12.921875 19.34375 Z M 12.921875 19.34375 " fill-opacity="1" fill-rule="nonzero"/><path fill="#f2355b" d="M 21.355469 8.230469 C 21.054688 8.230469 20.792969 8.332031 20.570312 8.539062 C 20.347656 8.742188 20.226562 8.996094 20.199219 9.296875 C 19.957031 9.203125 19.707031 9.195312 19.453125 9.269531 C 19.203125 9.347656 19 9.492188 18.847656 9.707031 C 18.75 9.476562 18.609375 9.28125 18.425781 9.121094 C 18.242188 8.957031 18.03125 8.84375 17.792969 8.78125 C 17.554688 8.714844 17.316406 8.707031 17.074219 8.753906 C 16.832031 8.796875 16.613281 8.894531 16.417969 9.042969 C 16.21875 9.191406 16.066406 9.375 15.953125 9.59375 C 15.839844 9.8125 15.78125 10.046875 15.777344 10.292969 C 15.769531 10.542969 15.820312 10.777344 15.921875 11 C 16.023438 11.226562 16.171875 11.417969 16.359375 11.574219 C 16.550781 11.730469 16.765625 11.835938 17.003906 11.894531 C 17.246094 11.949219 17.484375 11.953125 17.722656 11.898438 C 17.964844 11.84375 18.179688 11.738281 18.371094 11.585938 C 18.5625 11.429688 18.710938 11.242188 18.816406 11.019531 C 18.953125 11.226562 19.136719 11.375 19.367188 11.46875 C 19.597656 11.558594 19.832031 11.574219 20.070312 11.511719 C 20.308594 11.449219 20.511719 11.324219 20.667969 11.136719 C 20.828125 10.945312 20.917969 10.726562 20.941406 10.480469 C 21.101562 10.542969 21.265625 10.566406 21.4375 10.554688 C 21.609375 10.542969 21.769531 10.492188 21.917969 10.410156 C 22.070312 10.324219 22.195312 10.210938 22.292969 10.070312 C 22.394531 9.929688 22.460938 9.777344 22.492188 9.605469 C 22.523438 9.4375 22.515625 9.269531 22.472656 9.101562 C 22.429688 8.933594 22.355469 8.785156 22.242188 8.652344 C 22.132812 8.519531 22 8.414062 21.84375 8.339844 C 21.691406 8.269531 21.527344 8.230469 21.355469 8.230469 Z M 21.355469 8.230469 " fill-opacity="1" fill-rule="nonzero"/><path fill="#252835" d="M 22.382812 8.859375 C 22.394531 9.035156 22.363281 9.207031 22.300781 9.371094 C 22.234375 9.53125 22.136719 9.675781 22.003906 9.792969 C 21.875 9.910156 21.726562 9.996094 21.558594 10.046875 C 21.390625 10.097656 21.21875 10.109375 21.046875 10.082031 C 20.902344 10.058594 20.808594 10.117188 20.769531 10.257812 C 20.710938 10.449219 20.613281 10.613281 20.472656 10.75 C 20.328125 10.890625 20.164062 10.988281 19.972656 11.039062 C 19.785156 11.09375 19.59375 11.101562 19.402344 11.054688 C 19.207031 11.011719 19.039062 10.921875 18.890625 10.789062 C 18.835938 10.742188 18.773438 10.722656 18.699219 10.730469 C 18.628906 10.738281 18.570312 10.773438 18.527344 10.832031 C 18.445312 10.941406 18.347656 11.042969 18.238281 11.128906 C 18.128906 11.214844 18.011719 11.285156 17.882812 11.34375 C 17.753906 11.398438 17.621094 11.4375 17.484375 11.457031 C 17.347656 11.476562 17.207031 11.480469 17.070312 11.464844 C 16.929688 11.449219 16.796875 11.414062 16.667969 11.363281 C 16.535156 11.3125 16.414062 11.246094 16.304688 11.164062 C 16.191406 11.082031 16.089844 10.988281 16.003906 10.878906 C 15.917969 10.769531 15.84375 10.648438 15.789062 10.523438 C 15.828125 10.878906 15.972656 11.183594 16.21875 11.441406 C 16.46875 11.699219 16.765625 11.859375 17.117188 11.914062 C 17.46875 11.972656 17.800781 11.917969 18.117188 11.753906 C 18.429688 11.585938 18.664062 11.34375 18.816406 11.019531 C 18.953125 11.226562 19.136719 11.375 19.367188 11.46875 C 19.597656 11.558594 19.832031 11.570312 20.070312 11.511719 C 20.308594 11.449219 20.511719 11.324219 20.667969 11.136719 C 20.828125 10.945312 20.917969 10.726562 20.941406 10.480469 C 21.164062 10.566406 21.394531 10.582031 21.625 10.523438 C 21.859375 10.46875 22.054688 10.347656 22.214844 10.167969 C 22.375 9.988281 22.472656 9.78125 22.503906 9.539062 C 22.53125 9.300781 22.492188 9.074219 22.382812 8.859375 Z M 22.382812 8.859375 " fill-opacity="0.2" fill-rule="nonzero"/><path fill="#252835" d="M 15.875 10.332031 C 15.898438 10.527344 15.953125 10.714844 16.039062 10.894531 C 16.121094 11.066406 16.230469 11.222656 16.371094 11.355469 C 16.660156 11.632812 17 11.765625 17.398438 11.761719 C 17.589844 11.761719 17.773438 11.722656 17.949219 11.648438 C 18.125 11.570312 18.28125 11.460938 18.414062 11.324219 C 18.445312 11.289062 18.476562 11.25 18.507812 11.214844 C 18.535156 11.175781 18.566406 11.140625 18.589844 11.097656 L 18.609375 11.066406 L 18.613281 11.058594 C 18.621094 11.050781 18.625 11.042969 18.628906 11.035156 C 18.640625 11.019531 18.65625 11.007812 18.667969 10.996094 C 18.769531 10.914062 18.871094 10.910156 18.976562 10.980469 C 18.988281 10.992188 19.003906 11.003906 19.015625 11.015625 L 19.035156 11.039062 C 19.050781 11.054688 19.0625 11.070312 19.082031 11.085938 C 19.210938 11.222656 19.367188 11.308594 19.550781 11.355469 C 19.730469 11.398438 19.910156 11.390625 20.085938 11.335938 C 20.175781 11.308594 20.257812 11.269531 20.332031 11.21875 C 20.410156 11.167969 20.476562 11.109375 20.539062 11.039062 C 20.597656 10.96875 20.648438 10.894531 20.6875 10.8125 C 20.707031 10.769531 20.722656 10.726562 20.734375 10.683594 C 20.742188 10.660156 20.75 10.640625 20.753906 10.617188 L 20.773438 10.535156 C 20.808594 10.410156 20.890625 10.347656 21.019531 10.347656 C 21.039062 10.347656 21.054688 10.347656 21.074219 10.355469 L 21.097656 10.359375 C 21.140625 10.371094 21.1875 10.378906 21.230469 10.386719 C 21.320312 10.394531 21.414062 10.394531 21.503906 10.378906 C 21.59375 10.363281 21.679688 10.339844 21.761719 10.300781 C 21.84375 10.261719 21.917969 10.210938 21.988281 10.152344 C 22.054688 10.09375 22.117188 10.023438 22.167969 9.949219 C 22.21875 9.875 22.261719 9.792969 22.292969 9.710938 C 22.320312 9.621094 22.339844 9.535156 22.347656 9.441406 C 22.355469 9.351562 22.351562 9.257812 22.335938 9.167969 C 22.304688 8.976562 22.234375 8.796875 22.128906 8.632812 C 22.105469 8.597656 22.109375 8.566406 22.140625 8.535156 C 22.167969 8.507812 22.203125 8.507812 22.234375 8.53125 C 22.433594 8.671875 22.5625 8.863281 22.628906 9.101562 C 22.691406 9.339844 22.6875 9.582031 22.609375 9.816406 C 22.570312 9.933594 22.519531 10.042969 22.449219 10.144531 C 22.3125 10.351562 22.128906 10.503906 21.898438 10.605469 C 21.789062 10.65625 21.671875 10.6875 21.550781 10.707031 C 21.433594 10.726562 21.3125 10.726562 21.191406 10.710938 C 21.132812 10.703125 21.070312 10.691406 21.011719 10.675781 L 21.003906 10.671875 L 20.996094 10.671875 L 21 10.671875 C 21.003906 10.671875 21.007812 10.671875 21.015625 10.671875 C 21.050781 10.675781 21.074219 10.65625 21.085938 10.621094 L 21.070312 10.691406 C 21.0625 10.722656 21.054688 10.75 21.042969 10.78125 C 21.027344 10.839844 21.003906 10.894531 20.980469 10.949219 C 20.925781 11.058594 20.859375 11.160156 20.78125 11.253906 C 20.703125 11.34375 20.613281 11.425781 20.511719 11.492188 C 20.410156 11.558594 20.300781 11.613281 20.183594 11.648438 C 19.949219 11.722656 19.710938 11.730469 19.472656 11.671875 C 19.230469 11.613281 19.023438 11.492188 18.851562 11.316406 C 18.828125 11.296875 18.808594 11.273438 18.789062 11.25 L 18.78125 11.242188 C 18.78125 11.242188 18.777344 11.238281 18.777344 11.238281 L 18.78125 11.242188 C 18.785156 11.246094 18.789062 11.246094 18.792969 11.25 C 18.820312 11.269531 18.847656 11.269531 18.875 11.246094 C 18.878906 11.242188 18.882812 11.238281 18.886719 11.234375 C 18.890625 11.230469 18.890625 11.230469 18.890625 11.226562 C 18.894531 11.226562 18.890625 11.230469 18.890625 11.230469 L 18.886719 11.234375 L 18.863281 11.273438 C 18.835938 11.324219 18.800781 11.367188 18.765625 11.417969 C 18.726562 11.460938 18.691406 11.507812 18.652344 11.550781 C 18.488281 11.722656 18.300781 11.855469 18.085938 11.953125 C 17.867188 12.050781 17.640625 12.101562 17.40625 12.109375 C 17.167969 12.113281 16.9375 12.070312 16.71875 11.984375 C 16.496094 11.894531 16.304688 11.765625 16.136719 11.59375 C 15.96875 11.429688 15.84375 11.234375 15.761719 11.011719 C 15.679688 10.789062 15.652344 10.5625 15.675781 10.332031 C 15.683594 10.273438 15.71875 10.242188 15.773438 10.242188 C 15.832031 10.242188 15.863281 10.269531 15.871094 10.328125 Z M 15.875 10.332031 " fill-opacity="1" fill-rule="nonzero"/><path fill="#252835" d="M 16.601562 15.375 C 16.613281 15.574219 16.679688 15.757812 16.800781 15.917969 C 16.921875 16.070312 17.070312 16.1875 17.246094 16.265625 C 17.335938 16.304688 17.425781 16.335938 17.519531 16.359375 C 17.566406 16.371094 17.613281 16.378906 17.664062 16.382812 C 17.710938 16.386719 17.761719 16.390625 17.808594 16.390625 C 17.855469 16.390625 17.902344 16.390625 17.949219 16.382812 C 17.996094 16.375 18.039062 16.363281 18.082031 16.347656 C 18.179688 16.308594 18.277344 16.261719 18.367188 16.210938 C 18.402344 16.195312 18.429688 16.199219 18.453125 16.230469 C 18.476562 16.257812 18.476562 16.289062 18.453125 16.320312 C 18.417969 16.363281 18.378906 16.40625 18.335938 16.449219 C 18.292969 16.492188 18.246094 16.53125 18.195312 16.566406 C 18.140625 16.601562 18.082031 16.632812 18.019531 16.652344 C 17.960938 16.675781 17.898438 16.691406 17.832031 16.699219 C 17.769531 16.707031 17.710938 16.710938 17.648438 16.710938 C 17.582031 16.710938 17.519531 16.707031 17.457031 16.699219 C 17.332031 16.679688 17.214844 16.640625 17.097656 16.589844 C 16.859375 16.480469 16.675781 16.3125 16.542969 16.085938 C 16.476562 15.972656 16.4375 15.851562 16.421875 15.722656 C 16.414062 15.660156 16.414062 15.597656 16.421875 15.53125 C 16.429688 15.472656 16.441406 15.410156 16.460938 15.351562 C 16.476562 15.316406 16.5 15.300781 16.539062 15.304688 C 16.578125 15.308594 16.597656 15.332031 16.601562 15.371094 Z M 16.601562 15.375 " fill-opacity="1" fill-rule="nonzero"/><path fill="#252835" d="M 25.570312 11.527344 C 25.683594 11.632812 25.761719 11.757812 25.804688 11.902344 C 25.851562 12.039062 25.878906 12.183594 25.882812 12.328125 C 25.890625 12.472656 25.878906 12.617188 25.847656 12.757812 C 25.820312 12.902344 25.773438 13.042969 25.707031 13.175781 C 25.640625 13.3125 25.546875 13.433594 25.4375 13.535156 C 25.324219 13.632812 25.203125 13.714844 25.070312 13.777344 C 24.804688 13.902344 24.527344 13.945312 24.238281 13.910156 C 24.199219 13.90625 24.179688 13.882812 24.179688 13.839844 C 24.179688 13.796875 24.199219 13.773438 24.242188 13.769531 C 24.492188 13.742188 24.726562 13.664062 24.941406 13.535156 C 25.152344 13.414062 25.308594 13.246094 25.414062 13.03125 C 25.464844 12.921875 25.5 12.808594 25.523438 12.691406 C 25.546875 12.570312 25.5625 12.449219 25.566406 12.328125 C 25.574219 12.207031 25.570312 12.082031 25.558594 11.960938 C 25.542969 11.839844 25.511719 11.726562 25.460938 11.613281 L 25.460938 11.609375 C 25.445312 11.574219 25.453125 11.546875 25.484375 11.523438 C 25.511719 11.5 25.542969 11.503906 25.570312 11.527344 Z M 25.570312 11.527344 " fill-opacity="1" fill-rule="nonzero"/><path fill="#f3ffff" d="M 23.328125 7.285156 C 23.371094 7.183594 23.433594 7.097656 23.515625 7.027344 C 23.59375 6.957031 23.683594 6.902344 23.78125 6.855469 C 23.972656 6.769531 24.175781 6.730469 24.386719 6.730469 C 24.601562 6.726562 24.800781 6.773438 24.992188 6.867188 C 25.183594 6.953125 25.339844 7.085938 25.457031 7.261719 C 25.476562 7.289062 25.476562 7.316406 25.453125 7.339844 C 25.433594 7.367188 25.40625 7.375 25.375 7.359375 C 25.210938 7.292969 25.042969 7.234375 24.875 7.1875 C 24.546875 7.105469 24.214844 7.097656 23.882812 7.164062 C 23.714844 7.191406 23.558594 7.253906 23.414062 7.347656 L 23.414062 7.351562 C 23.382812 7.371094 23.355469 7.367188 23.335938 7.335938 C 23.324219 7.320312 23.320312 7.304688 23.328125 7.285156 Z M 23.328125 7.285156 " fill-opacity="0.33" fill-rule="nonzero"/><path fill="#f3ffff" d="M 19.867188 7.105469 C 19.894531 7.011719 19.941406 6.929688 20.015625 6.863281 C 20.085938 6.792969 20.167969 6.742188 20.261719 6.707031 C 20.355469 6.667969 20.453125 6.65625 20.550781 6.664062 C 20.65625 6.671875 20.746094 6.710938 20.824219 6.777344 C 20.851562 6.804688 20.859375 6.835938 20.847656 6.871094 C 20.839844 6.90625 20.816406 6.929688 20.777344 6.9375 L 20.769531 6.9375 C 20.6875 6.953125 20.621094 6.960938 20.554688 6.972656 C 20.484375 6.984375 20.421875 6.992188 20.355469 7.007812 C 20.289062 7.023438 20.222656 7.042969 20.15625 7.070312 C 20.085938 7.097656 20.015625 7.132812 19.949219 7.167969 L 19.949219 7.171875 C 19.925781 7.183594 19.90625 7.179688 19.886719 7.167969 C 19.867188 7.152344 19.859375 7.132812 19.867188 7.105469 Z M 19.867188 7.105469 " fill-opacity="0.33" fill-rule="nonzero"/><path fill="#f3ffff" d="M 13.679688 13.199219 C 13.410156 13.445312 13.222656 13.742188 13.113281 14.09375 C 13.0625 14.261719 13.03125 14.4375 13.019531 14.617188 C 13.007812 14.800781 13.003906 14.984375 13.015625 15.167969 C 13.015625 15.203125 13 15.226562 12.964844 15.234375 C 12.929688 15.242188 12.90625 15.230469 12.894531 15.195312 C 12.816406 15.007812 12.777344 14.8125 12.769531 14.613281 C 12.761719 14.40625 12.789062 14.207031 12.847656 14.007812 C 12.910156 13.808594 13.007812 13.628906 13.144531 13.46875 C 13.273438 13.308594 13.4375 13.191406 13.628906 13.113281 C 13.65625 13.101562 13.675781 13.109375 13.691406 13.132812 C 13.707031 13.15625 13.703125 13.179688 13.683594 13.199219 Z M 13.679688 13.199219 " fill-opacity="0.33" fill-rule="nonzero"/><path fill="#f3ffff" d="M 16.785156 9.253906 C 16.765625 9.34375 16.75 9.433594 16.738281 9.519531 C 16.722656 9.605469 16.714844 9.691406 16.710938 9.777344 C 16.707031 9.863281 16.710938 9.949219 16.710938 10.035156 C 16.714844 10.125 16.71875 10.210938 16.722656 10.304688 C 16.722656 10.34375 16.707031 10.367188 16.671875 10.378906 C 16.636719 10.390625 16.605469 10.378906 16.585938 10.351562 C 16.527344 10.261719 16.488281 10.167969 16.472656 10.066406 C 16.453125 9.964844 16.449219 9.863281 16.460938 9.757812 C 16.46875 9.65625 16.496094 9.558594 16.535156 9.460938 C 16.570312 9.367188 16.625 9.28125 16.691406 9.203125 C 16.710938 9.183594 16.734375 9.179688 16.757812 9.191406 C 16.78125 9.207031 16.792969 9.226562 16.785156 9.253906 Z M 16.785156 9.253906 " fill-opacity="0.33" fill-rule="nonzero"/><path fill="#f3ffff" d="M 24.171875 11.085938 C 24.269531 11.09375 24.367188 11.121094 24.457031 11.167969 C 24.542969 11.210938 24.625 11.269531 24.695312 11.339844 C 24.769531 11.410156 24.828125 11.492188 24.871094 11.582031 C 24.917969 11.675781 24.941406 11.773438 24.9375 11.875 C 24.9375 11.898438 24.925781 11.914062 24.90625 11.921875 C 24.886719 11.929688 24.867188 11.929688 24.851562 11.914062 L 24.847656 11.914062 C 24.78125 11.855469 24.71875 11.792969 24.65625 11.726562 C 24.597656 11.664062 24.542969 11.605469 24.488281 11.546875 C 24.433594 11.484375 24.375 11.425781 24.316406 11.367188 C 24.257812 11.308594 24.195312 11.246094 24.128906 11.179688 L 24.128906 11.175781 C 24.109375 11.160156 24.105469 11.140625 24.117188 11.117188 C 24.128906 11.09375 24.144531 11.082031 24.171875 11.085938 Z M 24.171875 11.085938 " fill-opacity="0.33" fill-rule="nonzero"/></svg>