<svg xmlns="http://www.w3.org/2000/svg" xmlns:xlink="http://www.w3.org/1999/xlink" width="49" zoomAndPan="magnify" viewBox="0 0 36.75 36.750001" height="49" preserveAspectRatio="xMidYMid meet" version="1.0"><defs><clipPath id="22fe95e716"><path d="M 0 0 L 36.5 0 L 36.5 36.5 L 0 36.5 Z M 0 0 " clip-rule="nonzero"/></clipPath><clipPath id="bd3ae94006"><path d="M 19.046875 19.863281 L 25.257812 19.863281 L 25.257812 27.417969 L 19.046875 27.417969 Z M 19.046875 19.863281 " clip-rule="nonzero"/></clipPath><clipPath id="e765de3aa8"><path d="M 4.167969 6 L 33.964844 6 L 33.964844 33.183594 L 4.167969 33.183594 Z M 4.167969 6 " clip-rule="nonzero"/></clipPath><clipPath id="7b89355822"><path d="M 27 11 L 33.964844 11 L 33.964844 23 L 27 23 Z M 27 11 " clip-rule="nonzero"/></clipPath><clipPath id="e657105b4c"><path d="M 4.167969 5.621094 L 33.964844 5.621094 L 33.964844 33.183594 L 4.167969 33.183594 Z M 4.167969 5.621094 " clip-rule="nonzero"/></clipPath></defs><g clip-path="url(#22fe95e716)"><path fill="#ffffff" d="M 0 0 L 36.5 0 L 36.5 36.5 L 0 36.5 Z M 0 0 " fill-opacity="1" fill-rule="nonzero"/><path fill="#ffffff" d="M 0 0 L 36.5 0 L 36.5 36.5 L 0 36.5 Z M 0 0 " fill-opacity="1" fill-rule="nonzero"/></g><g clip-path="url(#bd3ae94006)"><path fill="#fccd60" d="M 19.046875 19.863281 L 25.257812 19.863281 L 25.257812 27.414062 L 19.046875 27.414062 Z M 19.046875 19.863281 " fill-opacity="1" fill-rule="nonzero"/></g><g clip-path="url(#e765de3aa8)"><path fill="#eac8b8" d="M 12.722656 32.039062 C 11.847656 31.429688 11.175781 30.640625 10.707031 29.675781 C 9.894531 28.441406 9.5625 27.097656 9.472656 25.757812 C 9.382812 24.417969 9.523438 23.070312 9.703125 21.738281 C 10.082031 18.507812 10.453125 15.242188 10.117188 12 C 10.015625 11.984375 8.851562 12.207031 8.851562 12.207031 L 6.90625 12.558594 C 6.332031 12.835938 5.605469 12.714844 5.109375 12.3125 C 4.613281 11.910156 4.347656 11.253906 4.359375 10.609375 C 4.371094 9.96875 4.640625 9.34375 5.054688 8.855469 C 5.46875 8.367188 6.015625 8.003906 6.605469 7.753906 C 7.589844 7.339844 8.609375 7.226562 9.660156 7.417969 C 11.113281 7.789062 12.632812 7.78125 14.117188 7.585938 C 15.597656 7.390625 17.046875 7.011719 18.492188 6.632812 C 19.457031 6.441406 20.339844 6.125 21.257812 6.066406 C 22.035156 6.023438 22.78125 6.160156 23.496094 6.472656 C 24.210938 6.789062 24.816406 7.246094 25.3125 7.851562 C 26.527344 9.046875 27.203125 10.726562 27.496094 12.429688 C 27.789062 14.128906 27.726562 15.867188 27.667969 17.59375 C 27.527344 18.992188 27.492188 20.394531 27.558594 21.796875 C 27.664062 23.292969 28.1875 24.621094 29.125 25.785156 C 29.800781 25.671875 30.457031 25.542969 31.117188 25.574219 C 31.777344 25.605469 32.453125 25.816406 32.921875 26.28125 C 33.1875 26.542969 33.371094 26.855469 33.472656 27.214844 C 33.605469 27.632812 33.59375 28.042969 33.4375 28.453125 C 33.253906 28.921875 32.859375 29.28125 32.4375 29.554688 C 31.230469 30.347656 29.757812 30.597656 28.332031 30.828125 C 25.769531 31.3125 23.265625 31.664062 20.75 31.914062 C 19.109375 32.648438 17.398438 33.027344 15.605469 33.050781 C 14.59375 33.066406 13.582031 32.636719 12.722656 32.039062 Z M 12.722656 32.039062 " fill-opacity="1" fill-rule="nonzero"/></g><g clip-path="url(#7b89355822)"><path fill="#fff7eb" d="M 27.441406 19.054688 C 28.632812 16.066406 30.9375 13.503906 33.796875 11.96875 C 33.832031 13.101562 33.664062 14.203125 33.292969 15.269531 C 32.714844 15.550781 32.117188 15.828125 31.519531 16.105469 C 32.046875 15.988281 32.578125 15.90625 33.113281 15.867188 C 32.671875 17.039062 32.039062 18.101562 31.21875 19.046875 C 30.703125 19.257812 30.164062 19.390625 29.609375 19.445312 C 30.019531 19.527344 30.433594 19.574219 30.847656 19.589844 C 29.890625 20.792969 28.695312 21.65625 27.257812 22.1875 C 26.851562 21.207031 26.957031 20.039062 27.441406 19.054688 Z M 27.441406 19.054688 " fill-opacity="1" fill-rule="nonzero"/></g><g clip-path="url(#e657105b4c)"><path fill="#000000" d="M 24.789062 16.132812 C 24.835938 16.15625 24.859375 16.191406 24.871094 16.238281 C 24.890625 16.339844 24.882812 16.441406 24.839844 16.539062 C 24.84375 16.550781 24.847656 16.5625 24.851562 16.574219 C 24.859375 16.585938 24.863281 16.597656 24.871094 16.609375 C 25.003906 16.675781 25.1875 16.726562 25.285156 16.695312 C 25.351562 16.675781 25.398438 16.699219 25.429688 16.757812 C 25.457031 16.820312 25.449219 16.871094 25.394531 16.914062 C 25.261719 16.988281 25.09375 16.949219 24.953125 16.910156 C 24.863281 16.875 24.757812 16.855469 24.691406 16.78125 C 24.648438 16.828125 24.605469 16.871094 24.558594 16.914062 C 24.320312 17.140625 23.929688 17.253906 23.617188 17.128906 C 23.558594 17.097656 23.507812 17.058594 23.460938 17.011719 C 23.417969 17.050781 23.375 17.085938 23.335938 17.117188 C 23.09375 17.324219 21.957031 17.753906 21.9375 17.289062 C 21.894531 17.3125 21.847656 17.335938 21.808594 17.359375 C 21.539062 17.5 21.21875 17.605469 20.914062 17.566406 C 20.726562 17.519531 20.621094 17.191406 20.59375 17.140625 C 20.578125 17.109375 20.558594 17.078125 20.539062 17.050781 L 20.539062 17.046875 C 20.476562 17.027344 20.417969 17.054688 20.335938 17.089844 C 19.808594 17.332031 19.378906 17.761719 18.824219 17.945312 C 18.605469 17.988281 18.304688 17.984375 18.171875 17.777344 C 18.167969 17.769531 18.167969 17.765625 18.164062 17.757812 C 17.847656 17.925781 17.394531 17.945312 17.199219 17.945312 C 16.976562 17.988281 16.765625 18.171875 16.480469 18.269531 C 16.28125 18.332031 15.996094 18.40625 15.835938 18.230469 C 15.792969 18.175781 15.773438 18.117188 15.769531 18.046875 C 15.667969 18.167969 15.5625 18.292969 15.414062 18.355469 C 15.359375 18.375 15.304688 18.371094 15.257812 18.332031 C 14.984375 18.550781 14.675781 18.695312 14.332031 18.769531 C 14.105469 18.828125 13.792969 18.761719 13.820312 18.46875 C 13.832031 18.300781 13.945312 18.160156 14.023438 18.015625 C 14.027344 18.003906 14.035156 17.992188 14.042969 17.980469 C 13.914062 18.125 13.789062 18.269531 13.65625 18.410156 C 13.523438 18.570312 13.367188 18.703125 13.191406 18.8125 C 13.054688 18.882812 12.898438 18.902344 12.75 18.925781 C 12.675781 18.9375 12.605469 18.949219 12.53125 18.953125 C 12.511719 18.957031 12.453125 18.960938 12.449219 18.957031 C 12.398438 18.960938 12.363281 18.941406 12.335938 18.894531 C 12.296875 18.832031 12.308594 18.777344 12.367188 18.734375 C 12.414062 18.691406 12.484375 18.710938 12.542969 18.703125 C 12.589844 18.699219 13.035156 18.628906 13.054688 18.601562 C 13.246094 18.5 13.359375 18.367188 13.539062 18.167969 C 13.792969 17.890625 14.039062 17.609375 14.273438 17.316406 C 14.320312 17.261719 14.375 17.253906 14.433594 17.289062 C 14.496094 17.320312 14.519531 17.371094 14.5 17.441406 C 14.511719 17.777344 14.265625 18.050781 14.125 18.339844 C 14.070312 18.453125 14.050781 18.480469 14.078125 18.523438 C 14.3125 18.597656 14.847656 18.355469 15.167969 18.066406 C 15.171875 18.050781 15.175781 18.03125 15.179688 18.015625 C 15.21875 17.871094 15.277344 17.738281 15.351562 17.613281 C 15.378906 17.554688 15.417969 17.503906 15.46875 17.460938 C 15.542969 17.414062 15.605469 17.429688 15.652344 17.507812 C 15.675781 17.605469 15.675781 17.703125 15.648438 17.800781 C 15.738281 17.6875 15.839844 17.582031 15.976562 17.648438 C 16.105469 17.738281 16.003906 17.910156 16.019531 18.039062 C 16.019531 18.046875 16.023438 18.054688 16.023438 18.0625 C 16.027344 18.066406 16.027344 18.066406 16.03125 18.070312 C 16.03125 18.074219 16.035156 18.074219 16.035156 18.074219 C 16.042969 18.078125 16.046875 18.078125 16.054688 18.078125 C 16.09375 18.082031 16.132812 18.085938 16.167969 18.082031 C 16.417969 18.085938 16.71875 17.84375 17.074219 17.71875 C 17.414062 17.660156 17.609375 17.714844 17.910156 17.59375 C 18.011719 17.566406 18.097656 17.515625 18.171875 17.441406 C 18.199219 17.355469 18.238281 17.269531 18.285156 17.191406 C 18.320312 17.15625 18.359375 17.144531 18.40625 17.15625 C 18.453125 17.167969 18.484375 17.199219 18.496094 17.242188 C 18.507812 17.34375 18.484375 17.433594 18.429688 17.515625 C 18.421875 17.535156 18.410156 17.550781 18.394531 17.566406 C 18.386719 17.59375 18.382812 17.621094 18.386719 17.644531 C 18.390625 17.652344 18.390625 17.65625 18.390625 17.660156 C 18.4375 17.707031 18.648438 17.726562 18.714844 17.710938 C 19.257812 17.578125 19.789062 16.988281 20.417969 16.796875 C 20.695312 16.714844 20.824219 17.03125 20.847656 17.109375 C 20.878906 17.179688 20.917969 17.242188 20.960938 17.304688 C 20.964844 17.3125 20.96875 17.316406 20.972656 17.320312 C 21.0625 17.351562 21.5 17.257812 21.679688 17.144531 C 21.839844 17.082031 22.027344 16.871094 22.203125 16.933594 C 22.308594 17 22.257812 17.105469 22.207031 17.1875 C 22.203125 17.195312 22.199219 17.203125 22.199219 17.207031 C 22.195312 17.21875 22.191406 17.230469 22.1875 17.242188 C 22.328125 17.253906 22.820312 17.160156 23.0625 16.992188 C 23.15625 16.9375 23.246094 16.875 23.324219 16.796875 C 23.289062 16.667969 23.324219 16.53125 23.472656 16.414062 C 23.644531 16.308594 23.722656 16.523438 23.679688 16.664062 C 23.667969 16.71875 23.648438 16.769531 23.621094 16.816406 C 23.664062 16.867188 23.710938 16.898438 23.773438 16.921875 C 24.09375 16.988281 24.433594 16.75 24.574219 16.515625 C 24.539062 16.40625 24.550781 16.300781 24.597656 16.195312 C 24.640625 16.109375 24.707031 16.089844 24.789062 16.132812 Z M 13.246094 22.152344 C 12.886719 22.390625 12.496094 22.496094 12.066406 22.464844 C 12.011719 22.460938 11.972656 22.4375 11.953125 22.386719 C 11.929688 22.335938 11.941406 22.289062 11.976562 22.25 C 12.027344 22.195312 12.101562 22.21875 12.167969 22.21875 C 12.554688 22.226562 12.902344 22.109375 13.207031 21.875 C 13.222656 21.773438 13.261719 21.679688 13.320312 21.597656 C 13.398438 21.433594 13.699219 21.191406 13.8125 21.449219 C 13.839844 21.589844 13.714844 21.703125 13.636719 21.808594 C 13.578125 21.875 13.519531 21.933594 13.453125 21.992188 C 13.453125 21.992188 13.453125 21.996094 13.457031 21.996094 C 13.535156 22.320312 13.964844 22.199219 14.425781 21.84375 C 14.601562 21.726562 14.992188 21.320312 15.234375 21.089844 C 15.265625 21.050781 15.308594 21.035156 15.359375 21.046875 C 15.40625 21.058594 15.441406 21.085938 15.457031 21.136719 C 15.46875 21.195312 15.4375 21.253906 15.417969 21.3125 C 15.402344 21.371094 15.386719 21.429688 15.375 21.492188 C 15.585938 21.15625 15.867188 20.898438 16.21875 20.71875 C 16.722656 20.484375 16.730469 21.238281 16.707031 21.554688 C 16.703125 21.574219 16.707031 21.632812 16.707031 21.65625 C 16.726562 21.652344 16.746094 21.652344 16.765625 21.644531 C 17.03125 21.558594 17.4375 21.28125 17.800781 21.15625 C 17.902344 21.113281 18.027344 21.09375 18.113281 21.175781 C 18.15625 21.21875 18.195312 21.269531 18.222656 21.328125 C 18.226562 21.332031 18.234375 21.335938 18.238281 21.34375 C 18.324219 21.402344 18.476562 21.378906 18.628906 21.347656 C 18.828125 21.285156 19.011719 21.195312 19.183594 21.078125 C 19.191406 21.027344 19.203125 20.980469 19.21875 20.929688 C 19.28125 20.746094 19.390625 20.515625 19.601562 20.703125 C 19.828125 20.886719 19.65625 21.0625 19.453125 21.199219 C 19.460938 21.253906 19.808594 21.300781 20.027344 21.238281 C 20.363281 21.164062 20.695312 21.0625 21.015625 20.929688 C 21.125 20.890625 21.253906 20.8125 21.371094 20.867188 C 21.394531 20.867188 21.457031 20.960938 21.457031 20.96875 C 21.457031 20.972656 21.460938 20.972656 21.460938 20.976562 C 21.46875 20.980469 21.472656 20.984375 21.480469 20.988281 C 21.5 20.992188 21.542969 21.003906 21.566406 21.011719 C 21.882812 21.039062 22.273438 20.84375 22.570312 20.605469 C 22.378906 20.488281 22.292969 20.277344 22.472656 19.960938 C 22.617188 19.734375 22.980469 19.644531 23.171875 19.863281 C 23.328125 20.03125 23.246094 20.253906 23.074219 20.46875 C 23.472656 20.449219 24.042969 20.1875 24.464844 19.957031 C 24.660156 19.867188 24.851562 19.769531 25.046875 19.675781 C 25.09375 19.636719 25.144531 19.628906 25.199219 19.664062 C 25.253906 19.695312 25.273438 19.742188 25.257812 19.804688 C 25.238281 19.855469 25.203125 19.890625 25.148438 19.90625 C 25.003906 19.972656 24.863281 20.046875 24.71875 20.113281 C 24.300781 20.320312 23.890625 20.546875 23.433594 20.660156 C 23.242188 20.722656 23.046875 20.738281 22.847656 20.703125 C 22.660156 20.871094 22.457031 21.007812 22.230469 21.109375 C 21.941406 21.230469 21.550781 21.375 21.277344 21.148438 C 21.265625 21.132812 21.257812 21.121094 21.246094 21.105469 C 20.917969 21.226562 19.925781 21.695312 19.363281 21.445312 C 19.3125 21.417969 19.273438 21.382812 19.242188 21.335938 C 19.214844 21.355469 19.1875 21.371094 19.167969 21.386719 C 18.824219 21.570312 18.207031 21.839844 17.964844 21.382812 C 17.964844 21.382812 17.960938 21.378906 17.960938 21.375 C 17.960938 21.375 17.957031 21.371094 17.957031 21.371094 C 17.816406 21.414062 17.679688 21.46875 17.550781 21.539062 C 17.277344 21.664062 17.023438 21.867188 16.722656 21.90625 C 16.476562 21.941406 16.433594 21.667969 16.460938 21.480469 C 16.464844 21.375 16.460938 21.269531 16.453125 21.164062 C 16.449219 21.082031 16.425781 21.003906 16.390625 20.925781 C 16.101562 20.996094 15.640625 21.441406 15.421875 21.910156 C 15.414062 21.933594 15.320312 22.222656 15.140625 22.070312 C 15.089844 22.015625 15.09375 21.929688 15.09375 21.855469 C 15.097656 21.753906 15.109375 21.65625 15.121094 21.554688 C 14.789062 21.882812 14.441406 22.203125 14.007812 22.378906 C 13.671875 22.519531 13.359375 22.390625 13.246094 22.152344 Z M 22.765625 20.429688 C 22.871094 20.332031 22.953125 20.21875 23.007812 20.085938 C 23.011719 20.078125 23.011719 20.074219 23.011719 20.066406 L 23.011719 20.058594 C 23.007812 20.054688 23.007812 20.050781 23.007812 20.046875 C 23.007812 20.050781 23.007812 20.050781 23.007812 20.054688 C 22.992188 20.039062 22.976562 20.023438 22.960938 20.007812 C 22.960938 20.007812 22.960938 20.007812 22.957031 20.007812 L 22.953125 20.003906 C 22.953125 20.003906 22.953125 20 22.949219 20 C 22.949219 20 22.945312 19.996094 22.945312 19.996094 L 22.949219 20 C 22.945312 20 22.941406 20 22.941406 19.996094 C 22.867188 19.964844 22.761719 20.015625 22.703125 20.066406 C 22.605469 20.203125 22.566406 20.359375 22.765625 20.429688 Z M 25.632812 23.410156 C 25.34375 23.539062 25.117188 23.707031 24.882812 23.761719 C 24.867188 23.761719 24.855469 23.765625 24.84375 23.765625 C 24.839844 23.765625 24.839844 23.765625 24.835938 23.765625 C 24.828125 23.761719 24.824219 23.753906 24.816406 23.746094 C 24.8125 23.738281 24.808594 23.730469 24.804688 23.726562 C 24.796875 23.714844 24.792969 23.707031 24.789062 23.695312 C 24.78125 23.679688 24.777344 23.664062 24.773438 23.644531 C 24.757812 23.601562 24.78125 23.445312 24.851562 23.269531 C 24.902344 23.113281 25 22.964844 25.007812 22.796875 C 24.996094 22.496094 24.625 22.46875 24.417969 22.59375 C 23.871094 22.859375 23.300781 23.484375 22.945312 23.800781 C 22.929688 23.8125 22.914062 23.824219 22.898438 23.832031 C 22.890625 23.832031 22.882812 23.835938 22.878906 23.835938 L 22.875 23.835938 C 22.859375 23.828125 22.828125 23.820312 22.816406 23.816406 C 22.78125 23.800781 22.726562 23.765625 22.710938 23.753906 C 22.566406 23.628906 22.574219 23.574219 22.480469 23.371094 C 22.257812 23.027344 21.859375 23.308594 21.613281 23.476562 C 21.390625 23.609375 21.113281 23.835938 20.957031 23.875 C 20.90625 23.898438 20.59375 23.808594 20.363281 23.855469 C 20.347656 23.859375 20.328125 23.863281 20.3125 23.867188 C 20.300781 23.851562 20.289062 23.835938 20.277344 23.820312 C 20.160156 23.699219 20.019531 23.640625 19.851562 23.644531 C 19.699219 23.648438 19.554688 23.722656 19.414062 23.785156 C 19.132812 23.921875 18.78125 24.269531 18.683594 24.4375 C 18.605469 24.582031 18.375 24.5 18.050781 24.480469 C 17.660156 24.441406 17.265625 24.488281 16.875 24.496094 C 16.902344 24.445312 16.894531 24.398438 16.859375 24.355469 C 16.765625 24.238281 16.589844 24.273438 16.457031 24.296875 C 16.257812 24.347656 16.066406 24.414062 15.878906 24.5 C 15.757812 24.554688 15.640625 24.621094 15.53125 24.699219 C 15.53125 24.6875 15.53125 24.675781 15.53125 24.671875 C 15.523438 24.609375 15.582031 24.382812 15.578125 24.21875 C 15.574219 24.160156 15.546875 24.113281 15.5 24.078125 C 15.449219 24.042969 15.394531 24.035156 15.339844 24.054688 C 15.199219 24.101562 15.109375 24.230469 15.011719 24.332031 C 14.875 24.484375 14.765625 24.664062 14.609375 24.792969 C 14.59375 24.800781 14.566406 24.816406 14.550781 24.828125 C 14.507812 24.84375 14.464844 24.851562 14.417969 24.859375 C 14.011719 24.867188 13.609375 24.921875 13.21875 25.027344 C 13.117188 25.050781 13.015625 25.085938 12.910156 25.109375 C 12.835938 25.128906 12.804688 25.175781 12.816406 25.25 C 12.820312 25.292969 12.84375 25.324219 12.878906 25.34375 C 12.917969 25.367188 12.953125 25.367188 12.992188 25.351562 C 12.996094 25.351562 12.996094 25.347656 12.996094 25.347656 C 13.191406 25.292969 13.382812 25.242188 13.582031 25.199219 C 13.78125 25.152344 13.980469 25.125 14.183594 25.121094 C 14.4375 25.125 14.714844 25.097656 14.882812 24.882812 C 15.011719 24.734375 15.195312 24.492188 15.316406 24.371094 C 15.3125 24.429688 15.308594 24.476562 15.3125 24.4375 C 15.289062 24.609375 15.191406 25.089844 15.484375 25.039062 C 15.625 24.953125 15.660156 24.898438 15.835938 24.804688 C 16.074219 24.675781 16.324219 24.582031 16.585938 24.53125 C 16.5625 24.605469 16.582031 24.667969 16.648438 24.714844 C 16.773438 24.785156 16.933594 24.738281 17.070312 24.738281 C 17.394531 24.714844 17.722656 24.710938 18.050781 24.730469 C 18.285156 24.738281 18.546875 24.835938 18.761719 24.707031 C 18.933594 24.566406 18.941406 24.476562 19.074219 24.351562 C 19.304688 24.125 19.628906 23.910156 19.863281 23.894531 C 19.949219 23.894531 20.023438 23.925781 20.085938 23.980469 C 20.101562 24.011719 20.175781 24.128906 20.234375 24.128906 C 20.304688 24.140625 20.371094 24.105469 20.441406 24.097656 C 20.554688 24.074219 20.753906 24.121094 20.929688 24.128906 C 21.097656 24.125 21.238281 24.023438 21.375 23.933594 C 21.609375 23.785156 21.835938 23.621094 22.078125 23.484375 C 22.191406 23.449219 22.253906 23.433594 22.292969 23.558594 C 22.378906 23.828125 22.632812 24.109375 22.933594 24.082031 C 23.152344 24.015625 23.300781 23.808594 23.464844 23.65625 C 23.839844 23.296875 24.113281 23.027344 24.589844 22.789062 C 24.960938 22.714844 24.632812 22.882812 24.523438 23.535156 C 24.492188 23.761719 24.652344 24.085938 24.917969 24.007812 C 25.078125 23.988281 25.214844 23.902344 25.351562 23.832031 C 25.496094 23.75 25.664062 23.699219 25.792969 23.597656 C 25.835938 23.542969 25.832031 23.488281 25.789062 23.4375 C 25.742188 23.386719 25.691406 23.378906 25.632812 23.410156 Z M 11.757812 11.886719 C 11.714844 11.894531 11.671875 11.902344 11.632812 11.902344 C 11.632812 11.902344 11.636719 11.90625 11.640625 11.90625 C 11.5 11.933594 11.355469 11.941406 11.210938 11.9375 C 11.125 11.925781 11 11.933594 11.1875 11.871094 C 11.242188 11.855469 11.300781 11.84375 11.359375 11.84375 C 11.359375 11.839844 11.355469 11.835938 11.355469 11.828125 C 11.363281 11.792969 11.375 11.753906 11.390625 11.71875 C 11.480469 11.34375 11.632812 10.992188 11.742188 10.625 C 11.777344 10.539062 11.804688 10.453125 11.824219 10.367188 C 11.828125 10.347656 11.828125 10.332031 11.835938 10.3125 C 11.746094 10.332031 11.65625 10.332031 11.570312 10.308594 C 11.863281 10.125 12.332031 10.125 12.539062 10.15625 C 12.820312 10.21875 12.929688 10.457031 12.90625 10.777344 C 12.859375 11.292969 12.453125 11.742188 11.933594 11.855469 C 11.9375 11.855469 11.941406 11.855469 11.945312 11.855469 C 11.945312 11.855469 11.949219 11.851562 11.949219 11.855469 C 11.886719 11.867188 11.820312 11.878906 11.757812 11.886719 Z M 11.71875 11.773438 C 11.730469 11.765625 11.746094 11.765625 11.757812 11.757812 C 11.941406 11.683594 12.113281 11.589844 12.277344 11.480469 C 12.40625 11.40625 12.605469 11.132812 12.644531 10.988281 C 12.765625 10.628906 12.714844 10.328125 12.515625 10.257812 C 12.453125 10.238281 12.390625 10.234375 12.328125 10.242188 C 12.246094 10.25 12.164062 10.265625 12.046875 10.28125 C 12.046875 10.296875 12.046875 10.316406 12.042969 10.332031 C 12.019531 10.433594 11.992188 10.527344 11.953125 10.625 C 11.878906 10.816406 11.78125 11.070312 11.691406 11.332031 C 11.640625 11.5 11.605469 11.691406 11.550781 11.820312 C 11.570312 11.8125 11.585938 11.808594 11.605469 11.808594 C 11.613281 11.808594 11.621094 11.804688 11.628906 11.800781 C 11.652344 11.796875 11.707031 11.773438 11.71875 11.773438 Z M 12.8125 11.542969 C 12.839844 11.390625 12.894531 11.316406 13.007812 11.167969 C 13.117188 11.042969 13.269531 10.808594 13.464844 10.722656 C 13.742188 10.605469 13.804688 10.875 13.648438 11.058594 C 13.574219 11.140625 13.484375 11.195312 13.378906 11.230469 C 13.371094 11.230469 13.363281 11.234375 13.355469 11.234375 C 13.351562 11.234375 13.347656 11.234375 13.347656 11.238281 C 13.3125 11.242188 13.273438 11.25 13.238281 11.253906 C 13.191406 11.269531 13.140625 11.265625 13.09375 11.238281 C 13.070312 11.28125 13.046875 11.328125 13.027344 11.375 C 13.015625 11.398438 13.011719 11.421875 13.007812 11.445312 C 13.007812 11.457031 13.003906 11.472656 13.003906 11.484375 L 13.003906 11.492188 C 13.003906 11.496094 13.007812 11.5 13.007812 11.503906 C 13.023438 11.542969 13.042969 11.574219 13.074219 11.601562 C 13.078125 11.605469 13.082031 11.605469 13.085938 11.609375 C 13.089844 11.609375 13.09375 11.613281 13.101562 11.617188 C 13.105469 11.617188 13.109375 11.617188 13.117188 11.617188 C 13.117188 11.621094 13.121094 11.621094 13.121094 11.621094 C 13.125 11.621094 13.128906 11.621094 13.128906 11.621094 C 13.132812 11.621094 13.15625 11.625 13.167969 11.625 C 13.1875 11.625 13.203125 11.625 13.222656 11.621094 C 13.230469 11.621094 13.246094 11.617188 13.261719 11.617188 C 13.273438 11.613281 13.285156 11.609375 13.296875 11.609375 C 13.300781 11.597656 13.371094 11.589844 13.394531 11.574219 C 13.441406 11.542969 13.488281 11.519531 13.539062 11.503906 C 13.507812 11.585938 13.449219 11.609375 13.386719 11.65625 C 13.359375 11.671875 13.332031 11.691406 13.328125 11.6875 C 13.324219 11.691406 13.316406 11.695312 13.3125 11.699219 C 13.289062 11.710938 13.269531 11.71875 13.246094 11.726562 C 13.230469 11.738281 13.210938 11.742188 13.171875 11.761719 C 13.136719 11.777344 13.101562 11.78125 13.0625 11.785156 C 12.902344 11.785156 12.820312 11.703125 12.8125 11.542969 Z M 13.234375 11.035156 C 13.328125 11 13.269531 11.027344 13.347656 10.992188 C 13.382812 10.976562 13.414062 10.957031 13.449219 10.9375 C 13.464844 10.925781 13.484375 10.914062 13.5 10.898438 C 13.507812 10.894531 13.511719 10.890625 13.519531 10.886719 C 13.539062 10.871094 13.554688 10.851562 13.566406 10.828125 L 13.554688 10.828125 C 13.527344 10.828125 13.5 10.832031 13.476562 10.84375 C 13.472656 10.84375 13.464844 10.84375 13.460938 10.847656 C 13.371094 10.894531 13.296875 10.957031 13.234375 11.035156 Z M 13.707031 11.511719 C 13.71875 11.589844 13.789062 11.6875 13.871094 11.679688 C 13.871094 11.683594 13.871094 11.683594 13.871094 11.683594 C 13.871094 11.683594 13.875 11.683594 13.875 11.679688 L 13.878906 11.679688 C 13.878906 11.679688 13.882812 11.679688 13.886719 11.679688 C 13.949219 11.6875 14.003906 11.675781 14.058594 11.648438 C 14.132812 11.609375 14.203125 11.5625 14.269531 11.515625 C 14.328125 11.488281 14.359375 11.441406 14.363281 11.375 C 14.320312 11.367188 14.265625 11.410156 14.25 11.429688 C 14.183594 11.476562 14.113281 11.511719 14.035156 11.539062 L 14.027344 11.539062 C 14.027344 11.539062 14.023438 11.539062 14.019531 11.539062 C 14.015625 11.539062 14.011719 11.539062 14.003906 11.539062 C 13.988281 11.535156 14 11.542969 13.964844 11.53125 C 13.957031 11.527344 13.949219 11.527344 13.945312 11.523438 L 13.941406 11.519531 C 13.9375 11.519531 13.933594 11.515625 13.929688 11.511719 C 13.925781 11.503906 13.921875 11.496094 13.917969 11.488281 C 13.855469 11.285156 14.023438 10.96875 14.199219 10.800781 C 14.269531 10.730469 14.265625 10.742188 14.3125 10.726562 C 14.3125 10.726562 14.3125 10.726562 14.316406 10.726562 C 14.316406 10.75 14.289062 10.8125 14.3125 10.859375 C 14.320312 10.878906 14.339844 10.886719 14.359375 10.886719 C 14.382812 10.886719 14.398438 10.875 14.40625 10.855469 C 14.417969 10.820312 14.421875 10.785156 14.414062 10.75 C 14.390625 10.601562 14.261719 10.636719 14.195312 10.660156 C 14.023438 10.730469 13.894531 10.847656 13.8125 11.011719 C 13.742188 11.152344 13.675781 11.296875 13.707031 11.511719 Z M 14.707031 11.597656 C 14.808594 11.554688 15.015625 11.445312 15.09375 11.347656 C 15.109375 11.308594 15.097656 11.292969 15.058594 11.292969 C 15.027344 11.292969 15 11.320312 14.972656 11.335938 C 14.886719 11.394531 14.789062 11.441406 14.683594 11.476562 C 14.695312 11.4375 14.703125 11.402344 14.714844 11.367188 C 14.867188 10.96875 15.03125 10.507812 15.09375 10.164062 C 15.105469 10.066406 15.21875 9.902344 15.101562 9.84375 C 15.003906 9.828125 14.988281 9.949219 14.957031 10.015625 C 14.863281 10.261719 14.832031 10.476562 14.730469 10.761719 C 14.671875 10.9375 14.628906 11.117188 14.570312 11.292969 C 14.546875 11.371094 14.535156 11.453125 14.542969 11.535156 C 14.574219 11.613281 14.628906 11.636719 14.707031 11.597656 Z M 15.199219 11.355469 C 15.207031 11.128906 15.28125 11.03125 15.359375 10.871094 C 15.445312 10.710938 15.554688 10.574219 15.691406 10.460938 C 15.746094 10.40625 15.808594 10.378906 15.878906 10.375 C 15.921875 10.375 15.957031 10.390625 15.984375 10.425781 C 15.984375 10.421875 15.980469 10.417969 15.980469 10.414062 C 15.980469 10.417969 15.984375 10.417969 15.984375 10.421875 C 16 10.441406 16.007812 10.449219 16.015625 10.460938 C 16.035156 10.421875 16.066406 10.40625 16.105469 10.414062 C 16.140625 10.429688 16.15625 10.453125 16.15625 10.488281 C 16.136719 10.578125 16.113281 10.660156 16.082031 10.742188 C 16.027344 10.921875 15.945312 11.144531 15.925781 11.277344 C 15.980469 11.257812 16.03125 11.230469 16.074219 11.195312 C 16.105469 11.175781 16.132812 11.140625 16.171875 11.140625 C 16.195312 11.136719 16.210938 11.148438 16.21875 11.171875 C 16.222656 11.191406 16.21875 11.210938 16.203125 11.226562 C 16.148438 11.277344 16.089844 11.320312 16.027344 11.359375 C 15.992188 11.386719 15.953125 11.402344 15.910156 11.410156 C 15.878906 11.433594 15.84375 11.4375 15.804688 11.421875 C 15.769531 11.410156 15.746094 11.382812 15.738281 11.34375 C 15.738281 11.328125 15.738281 11.316406 15.738281 11.304688 C 15.734375 11.308594 15.734375 11.308594 15.730469 11.308594 C 15.730469 11.3125 15.726562 11.3125 15.722656 11.316406 C 15.71875 11.320312 15.714844 11.324219 15.710938 11.324219 C 15.628906 11.417969 15.53125 11.488281 15.421875 11.542969 C 15.363281 11.554688 15.3125 11.542969 15.265625 11.503906 C 15.21875 11.464844 15.199219 11.417969 15.199219 11.355469 Z M 15.417969 11.308594 C 15.457031 11.289062 15.492188 11.265625 15.527344 11.242188 C 15.628906 11.179688 15.652344 11.167969 15.746094 11.101562 C 15.75 11.101562 15.757812 11.09375 15.769531 11.085938 C 15.777344 11.058594 15.789062 11.03125 15.796875 11 C 15.839844 10.867188 15.890625 10.738281 15.949219 10.613281 C 15.941406 10.597656 15.941406 10.585938 15.941406 10.570312 C 15.941406 10.570312 15.941406 10.566406 15.941406 10.566406 C 15.9375 10.558594 15.9375 10.546875 15.933594 10.539062 L 15.929688 10.539062 C 15.929688 10.535156 15.925781 10.535156 15.925781 10.535156 C 15.910156 10.527344 15.894531 10.523438 15.882812 10.515625 C 15.878906 10.515625 15.878906 10.515625 15.875 10.515625 L 15.855469 10.515625 C 15.78125 10.527344 15.652344 10.644531 15.601562 10.714844 C 15.453125 10.9375 15.402344 11.160156 15.417969 11.308594 Z M 16.441406 11.371094 C 16.488281 11.351562 16.519531 11.316406 16.527344 11.261719 C 16.546875 11.199219 16.574219 11.136719 16.597656 11.070312 C 16.648438 10.910156 16.703125 10.746094 16.75 10.582031 C 16.75 10.574219 16.753906 10.566406 16.757812 10.558594 C 16.8125 10.527344 16.851562 10.464844 16.902344 10.425781 C 16.914062 10.421875 16.925781 10.414062 16.9375 10.410156 C 16.933594 10.429688 16.933594 10.453125 16.941406 10.472656 C 16.957031 10.53125 16.992188 10.558594 17.054688 10.558594 C 17.113281 10.558594 17.152344 10.53125 17.167969 10.472656 C 17.175781 10.402344 17.160156 10.339844 17.113281 10.285156 C 17.078125 10.253906 17.035156 10.246094 16.992188 10.257812 C 16.976562 10.261719 16.964844 10.265625 16.953125 10.273438 C 16.953125 10.277344 16.953125 10.277344 16.949219 10.277344 C 16.945312 10.285156 16.929688 10.292969 16.929688 10.292969 C 16.90625 10.308594 16.882812 10.328125 16.863281 10.351562 C 16.84375 10.382812 16.816406 10.410156 16.789062 10.433594 C 16.785156 10.359375 16.75 10.316406 16.675781 10.3125 C 16.511719 10.332031 16.523438 10.550781 16.472656 10.667969 C 16.417969 10.859375 16.359375 11.046875 16.3125 11.238281 C 16.304688 11.277344 16.3125 11.3125 16.339844 11.339844 C 16.367188 11.371094 16.402344 11.382812 16.441406 11.371094 Z M 17.15625 10.914062 C 17.238281 10.6875 17.378906 10.511719 17.503906 10.355469 C 17.503906 10.351562 17.507812 10.351562 17.511719 10.347656 C 17.515625 10.34375 17.519531 10.339844 17.523438 10.335938 C 17.554688 10.308594 17.582031 10.28125 17.613281 10.257812 C 17.636719 10.238281 17.660156 10.222656 17.683594 10.210938 C 17.6875 10.207031 17.691406 10.203125 17.699219 10.199219 C 17.738281 10.160156 17.789062 10.144531 17.84375 10.152344 C 17.902344 10.160156 17.945312 10.191406 17.972656 10.242188 C 17.984375 10.203125 18.011719 10.183594 18.050781 10.179688 C 18.121094 10.25 18.027344 10.367188 18.015625 10.449219 C 18 10.503906 17.988281 10.554688 17.980469 10.613281 C 17.964844 10.683594 17.9375 10.753906 17.921875 10.828125 C 17.898438 10.90625 17.871094 10.972656 17.855469 11.03125 C 17.90625 11.003906 17.957031 10.972656 18.011719 10.945312 C 18.03125 10.925781 18.058594 10.914062 18.085938 10.910156 C 18.109375 10.910156 18.128906 10.921875 18.140625 10.945312 C 18.152344 10.96875 18.152344 10.988281 18.140625 11.011719 C 18.121094 11.039062 18.097656 11.0625 18.074219 11.082031 C 18.011719 11.144531 17.945312 11.195312 17.867188 11.238281 C 17.828125 11.257812 17.785156 11.253906 17.746094 11.226562 C 17.710938 11.203125 17.691406 11.164062 17.691406 11.117188 C 17.695312 11.0625 17.707031 11.007812 17.722656 10.953125 C 17.632812 11.050781 17.535156 11.140625 17.433594 11.222656 C 17.414062 11.234375 17.402344 11.242188 17.390625 11.25 C 17.371094 11.277344 17.339844 11.292969 17.304688 11.289062 C 17.1875 11.316406 17.070312 11.125 17.15625 10.914062 Z M 17.367188 11.050781 C 17.367188 11.054688 17.371094 11.058594 17.367188 11.0625 C 17.464844 11.023438 17.558594 10.976562 17.640625 10.914062 C 17.679688 10.882812 17.71875 10.851562 17.753906 10.820312 C 17.753906 10.816406 17.757812 10.816406 17.761719 10.816406 C 17.785156 10.738281 17.8125 10.65625 17.835938 10.589844 C 17.859375 10.523438 17.886719 10.453125 17.917969 10.390625 C 17.910156 10.351562 17.914062 10.308594 17.902344 10.296875 C 17.898438 10.289062 17.894531 10.28125 17.886719 10.277344 C 17.882812 10.273438 17.882812 10.273438 17.882812 10.273438 C 17.878906 10.273438 17.878906 10.273438 17.875 10.269531 C 17.828125 10.261719 17.800781 10.269531 17.675781 10.34375 C 17.65625 10.367188 17.640625 10.390625 17.628906 10.417969 C 17.609375 10.464844 17.4375 10.746094 17.429688 10.785156 C 17.40625 10.855469 17.382812 10.929688 17.367188 11.007812 C 17.367188 11.027344 17.367188 11.050781 17.367188 11.050781 Z M 18.703125 10.964844 C 18.746094 10.914062 18.792969 10.867188 18.835938 10.8125 C 18.847656 10.792969 18.84375 10.761719 18.820312 10.757812 C 18.773438 10.75 18.746094 10.796875 18.710938 10.820312 C 18.613281 10.910156 18.53125 10.992188 18.492188 11 C 18.488281 11 18.484375 11 18.476562 11.003906 L 18.476562 11 C 18.503906 10.839844 18.539062 10.683594 18.582031 10.527344 C 18.617188 10.390625 18.667969 10.253906 18.710938 10.121094 C 18.746094 10.113281 18.78125 10.105469 18.816406 10.101562 C 18.863281 10.089844 18.949219 10.09375 18.972656 10.046875 C 18.972656 10.035156 18.957031 10.027344 18.949219 10.023438 C 18.878906 10.027344 18.808594 10.035156 18.738281 10.050781 C 18.738281 10.050781 18.746094 10.050781 18.742188 10.050781 C 18.742188 10.050781 18.738281 10.050781 18.734375 10.050781 C 18.75 9.996094 18.765625 9.941406 18.78125 9.886719 C 18.804688 9.824219 18.824219 9.726562 18.742188 9.699219 C 18.597656 9.683594 18.605469 9.902344 18.566406 9.996094 C 18.515625 10.164062 18.457031 10.332031 18.417969 10.503906 C 18.382812 10.644531 18.355469 10.785156 18.328125 10.929688 C 18.3125 10.984375 18.316406 11.039062 18.332031 11.09375 C 18.449219 11.246094 18.597656 11.074219 18.703125 10.964844 Z M 19.085938 10.667969 C 19.101562 10.53125 19.128906 10.394531 19.171875 10.261719 C 19.210938 10.160156 19.226562 9.9375 19.371094 9.960938 C 19.492188 10.007812 19.40625 10.152344 19.386719 10.242188 C 19.328125 10.546875 19.261719 10.492188 19.195312 10.8125 C 19.183594 10.84375 19.179688 10.875 19.179688 10.910156 C 19.179688 10.914062 19.179688 10.921875 19.183594 10.925781 C 19.183594 10.933594 19.183594 10.9375 19.183594 10.941406 C 19.1875 10.941406 19.1875 10.941406 19.1875 10.941406 L 19.191406 10.941406 C 19.214844 10.945312 19.371094 10.84375 19.445312 10.785156 C 19.492188 10.75 19.539062 10.714844 19.578125 10.671875 C 19.601562 10.605469 19.625 10.542969 19.65625 10.480469 C 19.695312 10.382812 19.75 10.289062 19.8125 10.199219 C 19.871094 10.117188 19.941406 10.039062 20.023438 9.972656 C 20.042969 9.953125 20.0625 9.9375 20.082031 9.921875 C 20.085938 9.917969 20.089844 9.917969 20.09375 9.914062 C 20.15625 9.863281 20.117188 9.886719 20.171875 9.859375 C 20.175781 9.847656 20.246094 9.847656 20.261719 9.847656 C 20.332031 9.855469 20.375 9.890625 20.390625 9.957031 C 20.421875 10.039062 20.425781 10.125 20.398438 10.207031 C 20.390625 10.246094 20.375 10.277344 20.355469 10.308594 C 20.355469 10.320312 20.351562 10.328125 20.347656 10.335938 C 20.292969 10.527344 20.195312 10.691406 20.058594 10.828125 C 20.054688 10.832031 20.050781 10.839844 20.027344 10.863281 C 20.007812 10.882812 19.992188 10.898438 19.972656 10.914062 C 19.957031 10.929688 19.941406 10.945312 19.921875 10.957031 C 19.910156 10.96875 19.894531 10.980469 19.882812 10.988281 C 19.878906 10.988281 19.878906 10.988281 19.878906 10.988281 C 19.863281 11 19.847656 11.007812 19.828125 11.011719 C 19.828125 11.015625 19.824219 11.015625 19.820312 11.015625 C 19.816406 11.015625 19.816406 11.019531 19.8125 11.019531 C 19.699219 11.066406 19.574219 10.957031 19.558594 10.839844 C 19.558594 10.835938 19.558594 10.832031 19.558594 10.828125 C 19.554688 10.828125 19.554688 10.824219 19.554688 10.820312 C 19.554688 10.824219 19.550781 10.824219 19.546875 10.828125 C 19.429688 10.914062 19.273438 11.050781 19.167969 11.050781 C 18.960938 11.046875 19.085938 10.71875 19.085938 10.667969 Z M 19.769531 10.765625 C 19.769531 10.769531 19.769531 10.773438 19.773438 10.785156 C 19.773438 10.789062 19.777344 10.796875 19.78125 10.804688 C 19.78125 10.808594 19.785156 10.8125 19.789062 10.816406 C 19.792969 10.820312 19.796875 10.828125 19.800781 10.832031 C 19.804688 10.832031 19.808594 10.835938 19.8125 10.835938 C 19.816406 10.835938 19.820312 10.835938 19.824219 10.835938 C 19.847656 10.828125 19.871094 10.820312 19.894531 10.8125 C 19.945312 10.789062 19.984375 10.753906 20.023438 10.710938 C 20.09375 10.644531 20.191406 10.460938 20.226562 10.390625 C 20.234375 10.363281 20.246094 10.332031 20.253906 10.304688 C 20.242188 10.261719 20.242188 10.21875 20.257812 10.179688 C 20.261719 10.152344 20.257812 10.097656 20.261719 10.03125 C 20.261719 10.027344 20.257812 10.019531 20.257812 10.015625 C 20.257812 10.011719 20.257812 10.011719 20.257812 10.011719 C 20.253906 10.007812 20.253906 10.007812 20.253906 10.003906 C 20.25 10 20.25 9.996094 20.246094 9.996094 C 20.246094 9.992188 20.246094 9.992188 20.242188 9.988281 C 20.238281 9.988281 20.234375 9.984375 20.230469 9.980469 L 20.226562 9.976562 C 20.195312 9.964844 20.195312 9.96875 20.167969 9.960938 C 20.167969 9.960938 20.164062 9.960938 20.164062 9.960938 C 20.160156 9.960938 20.160156 9.960938 20.15625 9.960938 L 20.15625 9.964844 C 20.144531 9.964844 20.136719 9.972656 20.125 9.976562 C 20.125 9.976562 20.121094 9.976562 20.117188 9.976562 C 20.125 9.976562 20.117188 9.984375 20.109375 9.988281 C 20.09375 10 20.082031 10.007812 20.070312 10.019531 C 20.0625 10.023438 20.046875 10.042969 20.03125 10.054688 C 20.019531 10.070312 20 10.089844 19.996094 10.089844 C 19.996094 10.09375 19.996094 10.09375 19.996094 10.09375 C 19.988281 10.101562 19.984375 10.113281 19.976562 10.121094 C 19.925781 10.191406 19.882812 10.261719 19.84375 10.339844 C 19.832031 10.367188 19.800781 10.472656 19.78125 10.527344 C 19.773438 10.546875 19.769531 10.566406 19.765625 10.589844 C 19.761719 10.648438 19.761719 10.707031 19.769531 10.765625 Z M 20.570312 10.851562 C 20.625 10.851562 20.65625 10.800781 20.667969 10.753906 C 20.714844 10.625 20.746094 10.492188 20.789062 10.363281 C 20.796875 10.347656 20.800781 10.328125 20.808594 10.3125 C 20.828125 10.292969 20.847656 10.269531 20.863281 10.242188 C 20.953125 10.105469 21.039062 9.941406 21.148438 9.851562 C 21.203125 9.8125 21.242188 9.785156 21.253906 9.816406 C 21.230469 9.964844 21.089844 10.246094 21.035156 10.410156 C 21.003906 10.535156 20.972656 10.554688 20.980469 10.707031 C 21.023438 10.816406 21.097656 10.847656 21.207031 10.804688 C 21.285156 10.769531 21.386719 10.730469 21.417969 10.644531 C 21.441406 10.554688 21.410156 10.511719 21.316406 10.507812 C 21.273438 10.515625 21.238281 10.527344 21.207031 10.554688 C 21.234375 10.375 21.28125 10.199219 21.34375 10.03125 C 21.363281 9.949219 21.390625 9.851562 21.324219 9.785156 C 21.3125 9.761719 21.253906 9.714844 21.203125 9.738281 C 21.054688 9.792969 20.96875 9.9375 20.882812 10.070312 C 20.890625 10.046875 20.898438 10.023438 20.90625 10 C 20.929688 9.9375 20.929688 9.84375 20.855469 9.820312 C 20.777344 9.800781 20.726562 9.882812 20.714844 9.949219 C 20.679688 10.070312 20.644531 10.191406 20.601562 10.3125 C 20.566406 10.414062 20.550781 10.519531 20.523438 10.621094 C 20.496094 10.699219 20.441406 10.839844 20.570312 10.851562 Z M 19.464844 9.519531 C 19.546875 9.515625 19.589844 9.472656 19.589844 9.390625 C 19.589844 9.308594 19.546875 9.269531 19.464844 9.265625 C 19.386719 9.269531 19.34375 9.308594 19.34375 9.390625 C 19.34375 9.472656 19.386719 9.515625 19.464844 9.519531 Z M 22.136719 10.515625 C 22.109375 10.371094 22.210938 10.164062 22.25 10.082031 C 22.324219 9.933594 22.421875 9.804688 22.542969 9.691406 C 22.574219 9.652344 22.613281 9.625 22.65625 9.601562 C 22.660156 9.601562 22.671875 9.59375 22.679688 9.589844 C 22.679688 9.585938 22.679688 9.589844 22.683594 9.589844 C 22.695312 9.578125 22.707031 9.566406 22.722656 9.5625 C 22.726562 9.558594 22.726562 9.558594 22.730469 9.558594 C 22.742188 9.550781 22.757812 9.546875 22.773438 9.546875 L 22.792969 9.546875 C 22.886719 9.550781 22.917969 9.601562 22.945312 9.671875 C 22.953125 9.6875 22.953125 9.691406 22.949219 9.683594 C 22.980469 9.785156 22.980469 10 22.902344 10.09375 C 22.878906 10.164062 22.84375 10.234375 22.816406 10.300781 C 22.765625 10.433594 22.675781 10.539062 22.554688 10.613281 C 22.402344 10.734375 22.171875 10.75 22.136719 10.515625 Z M 22.558594 10.378906 C 22.597656 10.335938 22.625 10.289062 22.644531 10.234375 C 22.675781 10.167969 22.703125 10.101562 22.726562 10.035156 C 22.726562 10.019531 22.726562 10.007812 22.734375 9.992188 C 22.742188 9.964844 22.75 9.9375 22.753906 9.910156 L 22.753906 9.875 C 22.757812 9.835938 22.757812 9.769531 22.765625 9.722656 C 22.761719 9.707031 22.761719 9.695312 22.761719 9.679688 L 22.761719 9.675781 C 22.757812 9.675781 22.757812 9.675781 22.757812 9.671875 L 22.753906 9.671875 L 22.753906 9.667969 C 22.75 9.667969 22.75 9.667969 22.75 9.664062 L 22.746094 9.664062 C 22.742188 9.664062 22.738281 9.660156 22.734375 9.65625 C 22.730469 9.65625 22.726562 9.65625 22.722656 9.65625 C 22.714844 9.652344 22.707031 9.652344 22.699219 9.652344 C 22.675781 9.652344 22.65625 9.660156 22.636719 9.675781 C 22.546875 9.757812 22.472656 9.851562 22.414062 9.957031 C 22.347656 10.101562 22.300781 10.25 22.269531 10.402344 C 22.261719 10.640625 22.371094 10.554688 22.558594 10.378906 Z M 23.21875 9.574219 C 23.183594 9.707031 23.160156 9.839844 23.144531 9.976562 C 23.089844 10.40625 23.097656 10.6875 22.941406 10.929688 C 22.84375 11.0625 22.792969 11 22.707031 11.058594 C 22.683594 11.082031 22.675781 11.109375 22.683594 11.140625 C 22.691406 11.171875 22.710938 11.191406 22.742188 11.195312 C 22.8125 11.199219 22.875 11.179688 22.929688 11.136719 C 23.070312 10.972656 23.167969 10.792969 23.226562 10.585938 C 23.328125 10.222656 23.332031 9.875 23.378906 9.5625 C 23.429688 9.554688 23.480469 9.550781 23.53125 9.550781 C 23.570312 9.542969 23.625 9.558594 23.640625 9.515625 C 23.644531 9.492188 23.636719 9.480469 23.613281 9.472656 C 23.542969 9.46875 23.46875 9.472656 23.394531 9.480469 C 23.394531 9.480469 23.390625 9.480469 23.390625 9.480469 C 23.40625 9.382812 23.429688 9.289062 23.460938 9.195312 C 23.507812 9.078125 23.578125 8.976562 23.675781 8.894531 C 23.703125 8.875 23.726562 8.859375 23.753906 8.847656 C 23.730469 8.894531 23.6875 8.964844 23.738281 9.003906 C 23.78125 9.007812 23.808594 8.988281 23.828125 8.953125 C 23.839844 8.925781 23.851562 8.902344 23.863281 8.875 C 23.867188 8.867188 23.871094 8.863281 23.871094 8.859375 C 23.871094 8.863281 23.871094 8.863281 23.871094 8.863281 C 23.878906 8.851562 23.878906 8.847656 23.878906 8.847656 C 23.878906 8.84375 23.878906 8.84375 23.878906 8.84375 C 23.898438 8.839844 23.90625 8.816406 23.90625 8.796875 C 23.90625 8.796875 23.90625 8.800781 23.90625 8.800781 C 23.910156 8.796875 23.90625 8.796875 23.910156 8.792969 C 23.910156 8.785156 23.910156 8.777344 23.910156 8.765625 C 23.910156 8.75 23.90625 8.730469 23.898438 8.714844 C 23.855469 8.613281 23.667969 8.671875 23.546875 8.8125 C 23.441406 8.933594 23.363281 9.074219 23.316406 9.230469 C 23.289062 9.316406 23.261719 9.402344 23.238281 9.488281 C 23.179688 9.484375 23.125 9.503906 23.082031 9.546875 C 23.101562 9.566406 23.125 9.574219 23.152344 9.578125 C 23.171875 9.574219 23.195312 9.574219 23.21875 9.574219 Z M 14.25 12.945312 C 14.222656 13.03125 14.199219 13.117188 14.183594 13.207031 C 14.152344 13.3125 14.121094 13.421875 14.089844 13.53125 C 14.046875 13.730469 14.007812 13.933594 13.945312 14.128906 C 13.9375 14.144531 13.929688 14.164062 13.933594 14.183594 C 13.890625 14.191406 13.851562 14.199219 13.8125 14.210938 C 13.792969 14.222656 13.765625 14.242188 13.769531 14.269531 C 13.78125 14.289062 13.796875 14.300781 13.820312 14.304688 C 13.914062 14.3125 14.003906 14.28125 14.09375 14.273438 C 14.078125 14.273438 14.230469 14.261719 14.269531 14.257812 C 14.300781 14.253906 14.347656 14.25 14.359375 14.210938 C 14.363281 14.179688 14.351562 14.160156 14.324219 14.152344 C 14.265625 14.148438 14.210938 14.148438 14.15625 14.15625 C 14.15625 14.152344 14.15625 14.144531 14.152344 14.140625 C 14.15625 14.144531 14.15625 14.148438 14.152344 14.144531 C 14.152344 14.140625 14.152344 14.140625 14.152344 14.136719 L 14.152344 14.132812 C 14.152344 14.125 14.152344 14.121094 14.15625 14.113281 C 14.230469 13.695312 14.289062 13.269531 14.410156 12.859375 C 14.421875 12.796875 14.445312 12.738281 14.476562 12.683594 C 14.496094 12.652344 14.511719 12.621094 14.523438 12.589844 C 14.539062 12.585938 14.558594 12.585938 14.574219 12.585938 C 14.621094 12.578125 14.6875 12.597656 14.71875 12.554688 C 14.734375 12.527344 14.726562 12.511719 14.695312 12.503906 C 14.566406 12.492188 14.433594 12.527344 14.300781 12.527344 C 14.234375 12.539062 14.152344 12.523438 14.101562 12.578125 C 14.125 12.597656 14.15625 12.605469 14.1875 12.605469 C 14.21875 12.601562 14.25 12.601562 14.28125 12.601562 C 14.285156 12.628906 14.289062 12.660156 14.296875 12.6875 C 14.289062 12.765625 14.273438 12.84375 14.253906 12.921875 C 14.253906 12.929688 14.25 12.9375 14.25 12.945312 Z M 15.0625 13.121094 C 14.941406 13.136719 14.957031 13.296875 14.914062 13.382812 C 14.835938 13.613281 14.78125 13.847656 14.742188 14.089844 C 14.738281 14.136719 14.757812 14.167969 14.800781 14.1875 C 14.84375 14.203125 14.878906 14.199219 14.914062 14.164062 C 14.960938 14.101562 14.964844 14.011719 14.988281 13.9375 C 15.023438 13.773438 15.058594 13.609375 15.09375 13.449219 C 15.132812 13.417969 15.164062 13.375 15.203125 13.347656 C 15.285156 13.265625 15.425781 13.183594 15.46875 13.183594 C 15.46875 13.1875 15.46875 13.191406 15.46875 13.195312 C 15.46875 13.195312 15.46875 13.199219 15.46875 13.203125 C 15.464844 13.324219 15.324219 13.550781 15.261719 13.773438 C 15.238281 13.875 15.144531 14 15.238281 14.09375 C 15.277344 14.128906 15.320312 14.136719 15.367188 14.121094 C 15.378906 14.117188 15.390625 14.109375 15.402344 14.105469 C 15.429688 14.089844 15.457031 14.074219 15.484375 14.058594 C 15.558594 14.003906 15.835938 13.847656 15.699219 13.777344 C 15.679688 13.773438 15.664062 13.777344 15.648438 13.785156 C 15.574219 13.835938 15.496094 13.875 15.421875 13.917969 C 15.417969 13.921875 15.417969 13.921875 15.414062 13.921875 C 15.414062 13.921875 15.414062 13.917969 15.414062 13.917969 C 15.453125 13.714844 15.558594 13.53125 15.609375 13.332031 C 15.636719 13.234375 15.625 13.097656 15.519531 13.058594 C 15.453125 13.054688 15.390625 13.074219 15.335938 13.113281 C 15.257812 13.171875 15.183594 13.238281 15.121094 13.316406 C 15.140625 13.242188 15.160156 13.132812 15.0625 13.121094 Z M 16.378906 13.101562 C 16.4375 13.054688 16.496094 12.984375 16.453125 12.9375 C 16.390625 12.882812 16.316406 12.953125 16.265625 12.996094 C 16.230469 13.027344 16.191406 13.0625 16.160156 13.097656 C 16.128906 13.132812 16.101562 13.167969 16.074219 13.207031 C 16.070312 13.207031 16.066406 13.210938 16.0625 13.214844 C 15.949219 13.363281 15.890625 13.527344 15.886719 13.714844 C 15.90625 13.878906 15.992188 13.957031 16.089844 13.960938 C 16.171875 13.964844 16.285156 13.878906 16.382812 13.765625 C 16.550781 13.589844 16.679688 13.386719 16.769531 13.160156 C 16.84375 12.980469 16.882812 12.660156 16.808594 12.492188 C 16.679688 12.183594 16.386719 12.039062 16.113281 12.273438 C 16.050781 12.328125 16.023438 12.328125 15.996094 12.390625 C 15.988281 12.421875 16.011719 12.433594 16.039062 12.425781 C 16.046875 12.421875 16.089844 12.398438 16.070312 12.40625 C 16.132812 12.371094 16.195312 12.34375 16.261719 12.316406 C 16.28125 12.316406 16.296875 12.316406 16.3125 12.3125 C 16.320312 12.3125 16.324219 12.308594 16.332031 12.308594 C 16.394531 12.296875 16.460938 12.304688 16.519531 12.332031 C 16.601562 12.398438 16.648438 12.484375 16.660156 12.589844 C 16.671875 12.722656 16.675781 12.851562 16.664062 12.984375 C 16.648438 13.164062 16.601562 13.328125 16.519531 13.484375 C 16.449219 13.589844 16.367188 13.6875 16.277344 13.773438 C 16.222656 13.828125 16.183594 13.859375 16.128906 13.859375 C 16.125 13.859375 16.125 13.859375 16.121094 13.859375 C 16.117188 13.855469 16.113281 13.851562 16.109375 13.847656 C 16.113281 13.855469 16.117188 13.855469 16.109375 13.847656 C 16.105469 13.847656 16.105469 13.847656 16.105469 13.847656 C 16.101562 13.839844 16.097656 13.832031 16.097656 13.832031 C 16.09375 13.824219 16.09375 13.820312 16.089844 13.816406 C 16.058594 13.695312 16.085938 13.664062 16.109375 13.535156 C 16.167969 13.371094 16.257812 13.226562 16.378906 13.101562 Z M 17.164062 13.347656 C 17.132812 13.414062 17.121094 13.484375 17.125 13.558594 C 17.121094 13.582031 17.125 13.609375 17.136719 13.636719 L 17.136719 13.640625 L 17.140625 13.640625 C 17.144531 13.640625 17.148438 13.644531 17.15625 13.644531 C 17.171875 13.644531 17.1875 13.644531 17.199219 13.644531 C 17.214844 13.640625 17.242188 13.636719 17.253906 13.632812 C 17.339844 13.597656 17.417969 13.554688 17.492188 13.5 C 17.492188 13.5 17.492188 13.5 17.496094 13.5 C 17.496094 13.5 17.5 13.496094 17.503906 13.492188 C 17.523438 13.476562 17.546875 13.46875 17.570312 13.464844 C 17.617188 13.464844 17.632812 13.484375 17.617188 13.527344 C 17.605469 13.550781 17.589844 13.570312 17.570312 13.585938 C 17.566406 13.59375 17.5625 13.59375 17.5625 13.59375 C 17.503906 13.648438 17.445312 13.695312 17.382812 13.742188 C 17.257812 13.832031 17.011719 13.882812 16.96875 13.6875 C 16.957031 13.589844 16.96875 13.492188 17 13.398438 C 17.058594 13.230469 17.15625 13.089844 17.296875 12.980469 C 17.351562 12.941406 17.410156 12.894531 17.476562 12.898438 C 17.484375 12.898438 17.492188 12.902344 17.5 12.90625 C 17.507812 12.90625 17.515625 12.910156 17.523438 12.914062 C 17.582031 12.960938 17.59375 13.019531 17.558594 13.085938 C 17.492188 13.210938 17.386719 13.296875 17.25 13.339844 C 17.222656 13.351562 17.195312 13.355469 17.164062 13.347656 Z M 17.226562 13.230469 C 17.226562 13.230469 17.230469 13.226562 17.230469 13.226562 C 17.316406 13.175781 17.386719 13.113281 17.441406 13.03125 C 17.457031 13.007812 17.46875 12.996094 17.457031 12.972656 C 17.378906 13.015625 17.320312 13.074219 17.277344 13.152344 C 17.257812 13.179688 17.242188 13.203125 17.226562 13.230469 Z M 18.125 12.96875 C 18.1875 12.902344 18.257812 12.828125 18.351562 12.8125 C 18.472656 12.777344 18.5625 12.816406 18.621094 12.929688 C 18.714844 13.132812 18.472656 13.621094 18.21875 13.734375 C 18.148438 13.761719 18.0625 13.789062 17.996094 13.746094 C 17.984375 13.742188 17.976562 13.738281 17.96875 13.730469 C 17.933594 13.878906 17.890625 14.027344 17.84375 14.175781 C 17.820312 14.261719 17.75 14.328125 17.707031 14.238281 C 17.71875 14.0625 17.746094 13.890625 17.789062 13.722656 C 17.84375 13.476562 17.910156 13.230469 17.988281 12.988281 C 17.996094 12.945312 18.019531 12.917969 18.0625 12.90625 C 18.085938 12.910156 18.097656 12.933594 18.105469 12.953125 C 18.105469 12.964844 18.105469 12.976562 18.105469 12.992188 C 18.113281 12.984375 18.117188 12.976562 18.125 12.96875 Z M 18.078125 13.15625 C 18.070312 13.183594 18.066406 13.214844 18.0625 13.242188 C 18.042969 13.355469 18.019531 13.484375 17.992188 13.613281 C 17.996094 13.621094 18.003906 13.625 18.007812 13.628906 C 18.011719 13.632812 18.023438 13.644531 18.027344 13.652344 C 18.035156 13.65625 18.042969 13.660156 18.050781 13.664062 C 18.085938 13.679688 18.121094 13.667969 18.1875 13.644531 C 18.335938 13.5625 18.40625 13.40625 18.453125 13.25 C 18.550781 12.941406 18.460938 12.894531 18.253906 13.015625 C 18.1875 13.050781 18.128906 13.097656 18.078125 13.15625 Z M 18.890625 13.429688 C 18.902344 13.300781 18.933594 13.175781 18.980469 13.058594 C 19.035156 12.941406 19.109375 12.847656 19.207031 12.769531 C 19.273438 12.726562 19.304688 12.691406 19.390625 12.683594 C 19.476562 12.675781 19.5625 12.789062 19.46875 12.902344 C 19.390625 13.003906 19.292969 13.078125 19.175781 13.128906 C 19.144531 13.148438 19.109375 13.152344 19.074219 13.148438 C 19.054688 13.230469 19.042969 13.316406 19.035156 13.402344 C 19.035156 13.421875 19.042969 13.441406 19.046875 13.464844 C 19.050781 13.464844 19.050781 13.46875 19.054688 13.46875 C 19.054688 13.46875 19.054688 13.46875 19.058594 13.46875 C 19.074219 13.472656 19.089844 13.472656 19.109375 13.46875 C 19.128906 13.460938 19.191406 13.441406 19.214844 13.433594 L 19.226562 13.429688 C 19.269531 13.414062 19.273438 13.394531 19.34375 13.398438 C 19.5 13.484375 19.242188 13.589844 19.167969 13.621094 C 19.015625 13.675781 18.890625 13.59375 18.890625 13.429688 Z M 19.101562 13.046875 C 19.105469 13.042969 19.109375 13.042969 19.113281 13.042969 C 19.21875 12.988281 19.308594 12.910156 19.371094 12.8125 C 19.371094 12.808594 19.375 12.804688 19.375 12.804688 C 19.371094 12.800781 19.367188 12.796875 19.363281 12.792969 L 19.359375 12.792969 C 19.347656 12.785156 19.335938 12.785156 19.324219 12.789062 C 19.277344 12.792969 19.238281 12.816406 19.207031 12.855469 C 19.15625 12.910156 19.121094 12.972656 19.101562 13.046875 Z M 19.992188 12.851562 C 19.992188 12.839844 19.996094 12.828125 20 12.816406 C 20.019531 12.753906 20.019531 12.652344 19.933594 12.644531 C 19.835938 12.652344 19.835938 12.777344 19.816406 12.855469 C 19.757812 13.066406 19.714844 13.28125 19.683594 13.5 C 19.683594 13.539062 19.699219 13.566406 19.734375 13.582031 C 19.769531 13.601562 19.800781 13.59375 19.832031 13.566406 C 19.859375 13.519531 19.875 13.472656 19.882812 13.417969 C 19.90625 13.300781 19.929688 13.183594 19.953125 13.066406 C 20.019531 12.957031 20.097656 12.859375 20.183594 12.769531 C 20.234375 12.714844 20.300781 12.683594 20.375 12.679688 C 20.375 12.679688 20.375 12.679688 20.375 12.683594 C 20.371094 12.710938 20.363281 12.738281 20.351562 12.765625 C 20.253906 12.96875 20.1875 13.1875 20.152344 13.414062 C 20.152344 13.429688 20.152344 13.480469 20.167969 13.496094 C 20.191406 13.53125 20.222656 13.550781 20.269531 13.546875 C 20.328125 13.546875 20.445312 13.46875 20.511719 13.429688 C 20.546875 13.410156 20.570312 13.355469 20.53125 13.332031 C 20.503906 13.320312 20.480469 13.320312 20.457031 13.339844 C 20.441406 13.347656 20.390625 13.371094 20.351562 13.386719 C 20.382812 13.246094 20.40625 13.101562 20.445312 12.960938 C 20.472656 12.878906 20.484375 12.796875 20.484375 12.710938 C 20.476562 12.65625 20.476562 12.628906 20.433594 12.589844 C 20.242188 12.527344 20.089844 12.710938 19.992188 12.851562 Z M 21.058594 11.660156 C 21.011719 11.699219 20.964844 11.742188 20.929688 11.789062 C 20.910156 11.816406 20.875 11.839844 20.871094 11.875 C 20.859375 11.910156 20.902344 11.882812 20.914062 11.871094 C 21.089844 11.652344 21.335938 11.589844 21.449219 11.667969 C 21.523438 11.710938 21.570312 11.855469 21.613281 11.949219 C 21.699219 12.230469 21.628906 12.558594 21.5 12.8125 C 21.316406 13.140625 21.09375 13.367188 21.054688 13.207031 C 21.035156 13.066406 21.101562 12.789062 21.351562 12.566406 C 21.375 12.535156 21.445312 12.519531 21.4375 12.445312 C 21.40625 12.417969 21.371094 12.417969 21.335938 12.4375 C 21.328125 12.441406 21.285156 12.476562 21.304688 12.460938 C 21.175781 12.558594 21.0625 12.679688 20.96875 12.8125 C 20.914062 12.910156 20.84375 13.035156 20.871094 13.214844 C 20.886719 13.28125 20.925781 13.332031 20.980469 13.367188 C 20.945312 13.339844 21.003906 13.386719 21.023438 13.390625 C 21.0625 13.410156 21.109375 13.417969 21.152344 13.40625 C 21.367188 13.351562 21.484375 13.132812 21.601562 12.960938 C 21.691406 12.796875 21.746094 12.625 21.765625 12.4375 C 21.785156 12.277344 21.808594 12.109375 21.769531 11.949219 C 21.679688 11.546875 21.414062 11.386719 21.058594 11.660156 Z M 21.847656 13.042969 C 21.855469 12.910156 21.898438 12.792969 21.976562 12.683594 C 22.058594 12.578125 22.117188 12.480469 22.238281 12.394531 C 22.5 12.222656 22.601562 12.402344 22.46875 12.605469 C 22.390625 12.710938 22.292969 12.792969 22.171875 12.847656 C 22.132812 12.871094 22.089844 12.878906 22.042969 12.878906 C 22.027344 13.019531 22.074219 13.089844 22.140625 13.078125 C 22.171875 13.082031 22.40625 12.996094 22.445312 12.988281 C 22.472656 12.988281 22.488281 13 22.5 13.023438 C 22.507812 13.046875 22.503906 13.066406 22.484375 13.082031 C 22.390625 13.15625 22.289062 13.214844 22.179688 13.253906 C 22.179688 13.253906 22.175781 13.253906 22.175781 13.253906 C 22.175781 13.253906 22.175781 13.257812 22.171875 13.257812 C 22.097656 13.289062 22.023438 13.285156 21.953125 13.238281 C 21.882812 13.191406 21.847656 13.128906 21.847656 13.042969 Z M 22.074219 12.753906 C 22.089844 12.746094 22.101562 12.742188 22.109375 12.734375 C 22.203125 12.679688 22.277344 12.605469 22.332031 12.511719 C 22.359375 12.464844 22.382812 12.417969 22.386719 12.414062 L 22.390625 12.40625 C 22.394531 12.402344 22.394531 12.402344 22.394531 12.402344 C 22.378906 12.394531 22.363281 12.394531 22.347656 12.394531 C 22.289062 12.386719 22.199219 12.472656 22.175781 12.519531 C 22.132812 12.59375 22.101562 12.671875 22.074219 12.753906 Z M 23 12.203125 C 22.964844 12.203125 22.9375 12.222656 22.917969 12.257812 C 22.867188 12.398438 22.828125 12.546875 22.792969 12.695312 C 22.769531 12.800781 22.742188 12.902344 22.71875 13.007812 C 22.707031 13.054688 22.695312 13.105469 22.730469 13.144531 C 22.785156 13.195312 22.832031 13.1875 22.867188 13.121094 C 22.917969 12.976562 22.957031 12.832031 22.984375 12.679688 C 22.992188 12.675781 23 12.667969 23.003906 12.660156 C 23.007812 12.65625 22.996094 12.671875 23 12.664062 C 23.074219 12.566406 23.160156 12.476562 23.238281 12.382812 C 23.234375 12.382812 23.230469 12.386719 23.226562 12.390625 C 23.261719 12.363281 23.285156 12.324219 23.320312 12.300781 C 23.324219 12.292969 23.328125 12.292969 23.328125 12.292969 C 23.332031 12.289062 23.332031 12.289062 23.347656 12.277344 C 23.355469 12.269531 23.367188 12.265625 23.378906 12.261719 C 23.378906 12.257812 23.382812 12.257812 23.386719 12.257812 C 23.398438 12.328125 23.289062 12.601562 23.269531 12.660156 C 23.242188 12.785156 23.164062 12.917969 23.195312 13.046875 C 23.214844 13.085938 23.25 13.109375 23.292969 13.117188 C 23.335938 13.121094 23.375 13.109375 23.40625 13.074219 C 23.472656 13.042969 23.492188 13.019531 23.566406 12.980469 C 23.617188 12.945312 23.65625 12.941406 23.6875 12.90625 C 23.695312 12.894531 23.699219 12.878906 23.683594 12.871094 C 23.664062 12.863281 23.644531 12.863281 23.625 12.875 C 23.625 12.875 23.589844 12.886719 23.546875 12.902344 C 23.523438 12.910156 23.414062 12.949219 23.417969 12.953125 C 23.402344 12.957031 23.390625 12.957031 23.386719 12.960938 C 23.382812 12.957031 23.375 12.953125 23.371094 12.953125 C 23.390625 12.851562 23.457031 12.621094 23.496094 12.472656 C 23.597656 12.105469 23.34375 12.015625 23.132812 12.320312 C 23.101562 12.351562 23.074219 12.386719 23.046875 12.425781 C 23.074219 12.332031 23.105469 12.226562 23 12.203125 Z M 23.914062 12.769531 C 23.914062 12.78125 23.917969 12.789062 23.917969 12.796875 C 23.929688 12.824219 23.9375 12.847656 23.953125 12.871094 C 23.949219 12.863281 23.949219 12.859375 23.945312 12.855469 C 23.96875 12.910156 24.003906 12.953125 24.058594 12.976562 C 24.097656 12.996094 24.132812 13.007812 24.175781 13.007812 C 24.1875 13.007812 24.203125 13.007812 24.214844 13.003906 C 24.238281 13 24.261719 12.996094 24.285156 12.984375 C 24.292969 12.984375 24.296875 12.980469 24.304688 12.976562 C 24.328125 12.964844 24.347656 12.949219 24.367188 12.933594 C 24.445312 12.886719 24.515625 12.832031 24.574219 12.761719 C 24.597656 12.730469 24.640625 12.707031 24.644531 12.664062 C 24.648438 12.644531 24.625 12.648438 24.613281 12.652344 C 24.585938 12.671875 24.5625 12.691406 24.542969 12.714844 C 24.523438 12.730469 24.46875 12.769531 24.445312 12.785156 C 24.417969 12.800781 24.386719 12.8125 24.355469 12.824219 C 24.339844 12.828125 24.320312 12.832031 24.316406 12.832031 C 24.3125 12.835938 24.308594 12.835938 24.304688 12.835938 C 24.273438 12.839844 24.242188 12.835938 24.214844 12.816406 C 24.207031 12.8125 24.203125 12.804688 24.199219 12.800781 C 24.195312 12.796875 24.191406 12.792969 24.1875 12.789062 C 24.183594 12.785156 24.175781 12.773438 24.167969 12.757812 C 24.164062 12.753906 24.164062 12.75 24.160156 12.746094 C 24.15625 12.746094 24.15625 12.746094 24.15625 12.742188 C 24.144531 12.726562 24.152344 12.726562 24.144531 12.714844 C 24.113281 12.601562 24.109375 12.492188 24.136719 12.378906 C 24.15625 12.3125 24.179688 12.246094 24.210938 12.183594 C 24.242188 12.140625 24.277344 12.105469 24.324219 12.078125 C 24.324219 12.074219 24.328125 12.074219 24.332031 12.074219 C 24.332031 12.074219 24.332031 12.074219 24.335938 12.074219 C 24.339844 12.070312 24.34375 12.070312 24.347656 12.070312 L 24.371094 12.070312 L 24.371094 12.074219 C 24.378906 12.078125 24.382812 12.085938 24.390625 12.089844 C 24.394531 12.089844 24.398438 12.089844 24.402344 12.09375 C 24.40625 12.09375 24.40625 12.09375 24.410156 12.097656 C 24.414062 12.109375 24.421875 12.121094 24.425781 12.128906 C 24.453125 12.183594 24.496094 12.203125 24.550781 12.179688 C 24.625 12.128906 24.589844 12.023438 24.539062 11.972656 C 24.511719 11.949219 24.476562 11.933594 24.441406 11.933594 C 24.441406 11.933594 24.4375 11.933594 24.4375 11.933594 L 24.433594 11.933594 C 24.40625 11.933594 24.378906 11.941406 24.359375 11.960938 C 24.351562 11.96875 24.34375 11.976562 24.339844 11.976562 C 24.277344 12.023438 24.222656 12.074219 24.171875 12.132812 C 24.015625 12.308594 23.925781 12.507812 23.917969 12.589844 C 23.90625 12.648438 23.90625 12.710938 23.914062 12.769531 Z M 24.820312 12.460938 C 24.863281 12.285156 24.984375 12.105469 25.082031 11.984375 C 25.136719 11.90625 25.207031 11.851562 25.292969 11.820312 C 25.328125 11.8125 25.359375 11.820312 25.390625 11.839844 C 25.449219 11.878906 25.46875 11.933594 25.445312 12 C 25.410156 12.121094 25.304688 12.195312 25.210938 12.261719 C 25.136719 12.308594 25.136719 12.316406 25.058594 12.328125 C 25.035156 12.328125 25.011719 12.316406 24.996094 12.296875 C 24.992188 12.292969 24.996094 12.289062 24.992188 12.285156 C 24.886719 12.53125 24.933594 12.734375 25.097656 12.660156 C 25.167969 12.621094 25.234375 12.578125 25.300781 12.535156 C 25.339844 12.515625 25.378906 12.476562 25.421875 12.492188 C 25.519531 12.53125 25.457031 12.621094 25.390625 12.65625 C 25.308594 12.71875 25.222656 12.773438 25.125 12.8125 C 24.886719 12.878906 24.769531 12.675781 24.820312 12.460938 Z M 25.027344 12.210938 C 25.035156 12.203125 25.042969 12.199219 25.050781 12.195312 C 25.132812 12.144531 25.203125 12.082031 25.261719 12.007812 C 25.289062 11.976562 25.300781 11.941406 25.300781 11.902344 C 25.300781 11.902344 25.300781 11.902344 25.300781 11.898438 L 25.296875 11.894531 C 25.296875 11.890625 25.296875 11.890625 25.296875 11.890625 C 25.296875 11.890625 25.292969 11.890625 25.292969 11.886719 C 25.265625 11.894531 25.242188 11.902344 25.222656 11.921875 C 25.160156 11.960938 25.070312 12.109375 25.027344 12.210938 Z M 33.933594 12.09375 C 33.90625 12.507812 33.890625 12.925781 33.839844 13.339844 C 33.757812 13.902344 33.644531 14.457031 33.5 15.007812 C 33.472656 15.109375 33.449219 15.207031 33.433594 15.3125 C 33.429688 15.339844 33.417969 15.417969 33.390625 15.429688 C 33.058594 15.566406 32.699219 15.65625 32.367188 15.800781 C 32.265625 15.839844 32.167969 15.882812 32.070312 15.933594 C 32.378906 15.863281 32.695312 15.8125 32.921875 15.78125 C 33.039062 15.746094 33.1875 15.699219 33.207031 15.867188 C 33.195312 15.957031 33.132812 16.03125 33.101562 16.117188 C 33.054688 16.21875 32.921875 16.578125 32.808594 16.777344 C 32.566406 17.203125 32.320312 17.625 32.054688 18.039062 C 31.851562 18.371094 31.679688 18.726562 31.429688 19.023438 C 31.21875 19.238281 30.910156 19.292969 30.625 19.328125 C 30.5 19.34375 30.359375 19.367188 30.207031 19.394531 C 30.265625 19.394531 30.316406 19.398438 30.367188 19.398438 C 30.542969 19.402344 30.714844 19.390625 30.886719 19.402344 C 30.925781 19.402344 30.960938 19.414062 30.992188 19.441406 C 31.105469 19.585938 30.929688 19.660156 30.886719 19.707031 C 30.652344 19.925781 30.445312 20.171875 30.21875 20.398438 C 29.613281 21.039062 28.867188 21.519531 28.089844 21.921875 C 27.96875 21.988281 27.847656 22.058594 27.726562 22.128906 C 27.804688 22.75 27.953125 23.351562 28.171875 23.9375 C 28.375 24.457031 28.777344 25.238281 29.183594 25.648438 C 29.183594 25.648438 29.183594 25.648438 29.1875 25.648438 C 29.621094 25.558594 30.0625 25.503906 30.507812 25.484375 C 31.289062 25.453125 32.183594 25.460938 32.792969 26.019531 C 33.324219 26.464844 33.652344 27.152344 33.609375 27.851562 C 33.601562 28.894531 32.679688 29.589844 31.835938 30.023438 C 30.847656 30.53125 29.75 30.769531 28.65625 30.945312 C 27.746094 31.082031 26.835938 31.226562 25.921875 31.347656 C 24.507812 31.597656 23.046875 31.699219 21.726562 31.914062 C 20.589844 32.089844 19.503906 32.46875 18.402344 32.789062 C 17.617188 32.9375 16.835938 33.164062 16.03125 33.160156 C 15.804688 33.164062 15.578125 33.148438 15.351562 33.113281 C 15.273438 33.097656 15.253906 33.105469 15.226562 33.097656 C 15.109375 33.09375 14.996094 33.089844 14.882812 33.078125 C 13.875 33 12.96875 32.457031 12.246094 31.769531 C 11.773438 31.328125 11.375 30.816406 10.992188 30.292969 C 10.621094 29.789062 10.269531 29.257812 10.035156 28.667969 C 9.03125 26.164062 9.273438 23.371094 9.652344 20.757812 C 9.875 19.167969 10.011719 17.167969 10.070312 15.4375 C 10.109375 14.398438 10.140625 13.289062 9.964844 12.359375 C 9.949219 12.277344 9.929688 12.203125 9.914062 12.128906 C 8.851562 12.378906 7.75 12.484375 6.695312 12.785156 C 6.671875 12.792969 6.648438 12.792969 6.625 12.785156 C 6.589844 12.792969 6.554688 12.800781 6.519531 12.804688 C 6.117188 12.878906 5.742188 12.800781 5.398438 12.574219 C 4.691406 12.207031 4.167969 11.460938 4.238281 10.640625 C 4.257812 10.402344 4.308594 10.171875 4.382812 9.949219 C 4.382812 9.945312 4.382812 9.945312 4.382812 9.941406 C 4.386719 9.933594 4.390625 9.925781 4.398438 9.914062 C 4.46875 9.707031 4.5625 9.511719 4.675781 9.328125 C 4.792969 9.105469 4.929688 8.898438 5.09375 8.707031 C 5.488281 8.242188 5.964844 7.8125 6.542969 7.59375 C 7.472656 7.273438 8.429688 7.167969 9.410156 7.277344 C 10.46875 7.375 11.339844 7.613281 12.402344 7.574219 C 13.964844 7.515625 15.492188 7.183594 17.082031 6.84375 C 18.265625 6.589844 19.421875 6.214844 20.609375 5.984375 C 22.480469 5.636719 24.484375 6.382812 25.601562 7.953125 C 26.835938 9.515625 27.574219 10.992188 27.660156 13.027344 C 27.742188 14.714844 27.851562 16.40625 27.765625 18.097656 C 27.894531 17.847656 28.03125 17.601562 28.167969 17.355469 C 28.445312 16.902344 28.707031 16.4375 29.039062 16.023438 C 29.722656 15.195312 30.429688 14.382812 31.207031 13.640625 C 31.980469 12.925781 32.828125 12.316406 33.753906 11.8125 C 33.828125 11.765625 33.886719 11.78125 33.929688 11.859375 C 33.96875 11.929688 33.929688 12.015625 33.933594 12.09375 Z M 7.167969 11.957031 C 7.230469 11.828125 7.347656 11.429688 7.34375 11.273438 C 7.371094 11.070312 7.324219 10.792969 7.332031 10.695312 C 7.332031 10.6875 7.335938 10.683594 7.339844 10.679688 C 7.335938 10.652344 7.339844 10.625 7.355469 10.601562 C 7.382812 10.5625 7.421875 10.539062 7.46875 10.53125 C 7.796875 10.433594 8.125 10.335938 8.457031 10.246094 C 8.648438 10.1875 8.84375 10.144531 9.039062 10.097656 C 8.59375 9.492188 7.933594 8.847656 7.265625 8.648438 C 6.558594 8.421875 5.730469 8.570312 5.230469 9.039062 C 5.085938 9.191406 4.960938 9.355469 4.851562 9.535156 C 4.777344 9.6875 4.707031 9.835938 4.632812 9.984375 C 4.417969 10.558594 4.414062 11.191406 4.78125 11.714844 C 4.957031 11.964844 5.179688 12.164062 5.449219 12.3125 C 5.691406 12.449219 5.789062 12.519531 6.035156 12.566406 C 6.539062 12.621094 6.894531 12.523438 7.167969 11.957031 Z M 9.855469 11.894531 C 9.832031 11.816406 9.8125 11.742188 9.789062 11.667969 C 9.78125 11.667969 9.777344 11.667969 9.769531 11.667969 C 9.453125 11.730469 9.136719 11.796875 8.820312 11.871094 C 8.671875 11.890625 8.472656 11.988281 8.328125 11.945312 C 8.257812 11.902344 8.242188 11.84375 8.285156 11.773438 C 8.351562 11.679688 8.492188 11.703125 8.59375 11.664062 C 8.964844 11.582031 9.335938 11.496094 9.710938 11.425781 C 9.644531 11.246094 9.574219 11.070312 9.496094 10.894531 C 9.300781 10.933594 9.109375 10.976562 8.917969 11.007812 C 8.800781 11.03125 8.621094 11.070312 8.628906 10.890625 C 8.640625 10.773438 8.777344 10.78125 8.863281 10.765625 C 9.039062 10.734375 9.207031 10.695312 9.378906 10.664062 C 9.320312 10.542969 9.253906 10.425781 9.183594 10.308594 C 8.652344 10.464844 8.109375 10.59375 7.578125 10.761719 C 7.59375 10.886719 7.601562 11.011719 7.597656 11.136719 C 7.585938 11.554688 7.460938 12.054688 7.191406 12.402344 C 7.257812 12.386719 7.324219 12.367188 7.394531 12.351562 C 8.214844 12.203125 9.035156 12.050781 9.855469 11.894531 Z M 27.976562 26.203125 C 26.578125 26.589844 25.15625 26.820312 23.707031 26.898438 C 21.726562 26.945312 19.773438 26.773438 17.917969 27.339844 C 17.335938 27.480469 16.796875 27.71875 16.296875 28.050781 C 16.394531 28.03125 16.496094 28.019531 16.597656 28.019531 C 17.53125 28.042969 18.023438 29.097656 18.054688 29.929688 C 18.109375 30.863281 17.664062 31.773438 17.015625 32.425781 C 16.8125 32.636719 16.574219 32.796875 16.300781 32.902344 C 16.371094 32.902344 16.441406 32.898438 16.511719 32.890625 C 16.839844 32.859375 17.304688 32.75 17.71875 32.675781 C 18.71875 32.503906 19.65625 32.09375 20.644531 31.878906 C 21.855469 31.578125 23.101562 31.484375 24.335938 31.332031 C 25.808594 31.109375 27.59375 30.875 29.179688 30.597656 C 30.699219 30.332031 33.035156 29.585938 33.332031 28.109375 C 33.484375 27.355469 33.121094 26.558594 32.511719 26.109375 C 32.269531 25.929688 32.125 25.886719 31.832031 25.816406 C 31.425781 25.722656 31.085938 25.714844 30.625 25.730469 C 29.707031 25.757812 28.898438 25.941406 27.976562 26.203125 Z M 16.605469 28.53125 C 16.773438 28.496094 16.941406 28.46875 17.109375 28.449219 C 16.980469 28.359375 16.835938 28.300781 16.679688 28.273438 C 16.390625 28.238281 15.902344 28.378906 15.621094 28.660156 C 15.613281 28.671875 15.605469 28.679688 15.597656 28.691406 C 15.585938 28.707031 15.570312 28.722656 15.550781 28.734375 C 15.296875 29.019531 15.140625 29.515625 15.042969 30.015625 C 15.050781 30.015625 15.0625 30.011719 15.070312 30.011719 C 15.957031 29.816406 16.84375 29.625 17.738281 29.46875 C 17.699219 29.296875 17.636719 29.132812 17.554688 28.976562 C 17.226562 29.066406 16.878906 29.128906 16.542969 29.203125 C 16.390625 29.238281 16.238281 29.273438 16.085938 29.304688 C 16.023438 29.320312 15.976562 29.300781 15.945312 29.246094 C 15.910156 29.183594 15.917969 29.128906 15.976562 29.082031 C 16.449219 28.953125 16.9375 28.863281 17.421875 28.757812 C 17.398438 28.726562 17.375 28.695312 17.351562 28.664062 C 17.273438 28.691406 17.175781 28.675781 17.097656 28.699219 C 17.148438 28.691406 16.824219 28.742188 16.75 28.757812 C 16.652344 28.773438 16.519531 28.839844 16.453125 28.730469 C 16.394531 28.617188 16.5 28.535156 16.605469 28.53125 Z M 27.496094 22.253906 C 27.457031 22.277344 27.421875 22.292969 27.382812 22.3125 C 27.375 22.316406 27.371094 22.316406 27.363281 22.320312 C 27.203125 22.734375 27.054688 23.15625 26.925781 23.625 C 26.863281 23.75 26.847656 23.957031 26.746094 24.050781 C 26.707031 24.070312 26.667969 24.074219 26.628906 24.054688 C 26.589844 24.035156 26.566406 24 26.5625 23.957031 C 26.554688 23.894531 26.59375 23.835938 26.609375 23.777344 C 26.761719 23.300781 26.914062 22.820312 27.082031 22.351562 C 27.054688 22.316406 27.046875 22.28125 27.050781 22.242188 C 27.039062 22.207031 27.03125 22.167969 27.023438 22.132812 C 26.9375 21.765625 26.855469 21.398438 26.851562 21.019531 C 26.867188 20.429688 27.03125 19.859375 27.226562 19.3125 C 27.296875 19.097656 27.382812 18.894531 27.476562 18.6875 C 27.507812 18.21875 27.539062 17.75 27.542969 17.28125 C 27.574219 15.9375 27.480469 14.59375 27.425781 13.253906 C 27.382812 11.632812 26.902344 10.113281 25.894531 8.777344 C 25.480469 8.195312 25.144531 7.710938 24.585938 7.230469 C 23.714844 6.503906 22.464844 6.078125 21.242188 6.164062 C 20.667969 6.191406 20.082031 6.347656 19.453125 6.511719 C 18.695312 6.703125 17.941406 6.90625 17.179688 7.078125 C 16.183594 7.300781 15.183594 7.507812 14.171875 7.644531 C 13.496094 7.753906 12.816406 7.839844 12.132812 7.824219 C 11 7.828125 10.039062 7.535156 8.949219 7.496094 C 8.085938 7.449219 7.167969 7.605469 6.457031 7.902344 C 6.15625 8.050781 5.886719 8.246094 5.648438 8.480469 C 5.679688 8.464844 5.710938 8.453125 5.742188 8.441406 C 7.203125 7.941406 8.339844 8.773438 9.203125 9.894531 C 9.921875 10.886719 10.261719 12.125 10.332031 13.339844 C 10.394531 15.453125 10.238281 17.570312 10.035156 19.671875 C 9.867188 21.1875 9.613281 22.535156 9.574219 24.074219 C 9.5625 25.902344 9.726562 27.695312 10.59375 29.246094 C 11.222656 30.242188 11.839844 31.109375 12.753906 31.882812 C 13.410156 32.445312 14.324219 32.84375 15.222656 32.847656 C 15.242188 32.847656 15.257812 32.847656 15.277344 32.847656 C 15.59375 32.847656 15.902344 32.789062 16.199219 32.679688 C 16.84375 32.433594 17.4375 31.632812 17.671875 30.914062 C 17.804688 30.519531 17.84375 30.117188 17.78125 29.707031 C 16.859375 29.898438 15.917969 30.070312 14.992188 30.285156 C 14.945312 30.296875 14.90625 30.285156 14.871094 30.246094 C 14.835938 30.242188 14.808594 30.222656 14.789062 30.191406 C 14.769531 30.160156 14.765625 30.125 14.777344 30.09375 C 14.796875 29.957031 14.824219 29.824219 14.859375 29.691406 C 14.941406 29.394531 15.019531 29.09375 15.179688 28.828125 C 15.25 28.699219 15.339844 28.582031 15.445312 28.480469 C 15.617188 28.242188 15.882812 28.066406 16.101562 27.878906 C 16.605469 27.5 17.207031 27.285156 17.808594 27.109375 C 19.664062 26.535156 21.628906 26.683594 23.546875 26.652344 C 24.957031 26.605469 26.265625 26.382812 27.675781 26.023438 C 28.078125 25.910156 28.488281 25.800781 28.898438 25.710938 C 28.871094 25.679688 28.847656 25.648438 28.820312 25.617188 C 28.375 25.023438 28.039062 24.375 27.8125 23.664062 C 27.667969 23.203125 27.5625 22.734375 27.496094 22.253906 Z M 33.675781 12.144531 L 33.640625 12.167969 C 32.328125 12.90625 31.265625 13.835938 30.253906 14.996094 C 29.453125 15.859375 28.820312 16.65625 28.265625 17.699219 C 28.070312 18.042969 27.878906 18.402344 27.714844 18.769531 C 27.605469 19.015625 27.503906 19.261719 27.417969 19.507812 C 27.277344 19.902344 27.175781 20.304688 27.121094 20.71875 C 27.070312 21.171875 27.136719 21.519531 27.234375 21.945312 C 27.292969 21.800781 27.351562 21.65625 27.417969 21.515625 C 27.429688 21.488281 27.441406 21.457031 27.457031 21.425781 C 27.46875 21.398438 27.484375 21.363281 27.496094 21.332031 C 27.464844 21.273438 27.503906 21.203125 27.542969 21.148438 C 27.5625 21.117188 27.589844 21.085938 27.613281 21.054688 C 27.621094 21.03125 27.632812 21.003906 27.640625 20.980469 C 27.789062 20.636719 27.953125 20.261719 28.125 19.886719 C 28.121094 19.882812 28.117188 19.878906 28.117188 19.875 C 28.089844 19.644531 28.167969 19.40625 28.203125 19.175781 C 28.28125 18.84375 28.3125 18.5 28.441406 18.179688 C 28.507812 18.066406 28.527344 17.859375 28.652344 17.804688 C 28.730469 17.78125 28.78125 17.8125 28.804688 17.890625 C 28.8125 17.925781 28.808594 17.957031 28.792969 17.988281 C 28.726562 18.125 28.671875 18.265625 28.625 18.40625 C 28.558594 18.667969 28.496094 18.957031 28.445312 19.230469 C 28.507812 19.109375 28.566406 18.992188 28.632812 18.875 C 28.902344 18.40625 29.183594 17.9375 29.472656 17.472656 C 29.46875 17.398438 29.5 17.320312 29.507812 17.246094 C 29.597656 16.835938 29.722656 16.433594 29.882812 16.042969 C 29.910156 15.914062 30.113281 15.929688 30.125 16.058594 C 30.101562 16.222656 30.007812 16.378906 29.964844 16.535156 C 29.925781 16.648438 29.890625 16.757812 29.859375 16.871094 C 30.445312 15.96875 31.078125 15.101562 31.765625 14.269531 C 31.8125 14.222656 31.867188 14.21875 31.921875 14.257812 C 31.976562 14.296875 31.992188 14.347656 31.964844 14.410156 C 31.726562 14.703125 31.570312 14.902344 31.324219 15.222656 C 30.9375 15.714844 30.433594 16.449219 30.027344 17.078125 C 30.167969 17.019531 30.308594 16.964844 30.449219 16.914062 C 30.589844 16.859375 30.714844 16.804688 30.777344 16.777344 C 30.820312 16.746094 30.871094 16.734375 30.921875 16.742188 C 30.964844 16.753906 30.992188 16.78125 31.007812 16.824219 C 31.023438 16.867188 31.015625 16.90625 30.988281 16.941406 C 30.945312 16.996094 30.863281 17.003906 30.804688 17.039062 C 30.4375 17.195312 30.160156 17.273438 29.851562 17.433594 C 29.832031 17.449219 29.808594 17.453125 29.785156 17.453125 C 29.632812 17.6875 29.476562 17.929688 29.328125 18.179688 C 29.789062 17.992188 30.253906 17.878906 30.640625 17.652344 C 30.691406 17.625 30.734375 17.628906 30.777344 17.660156 C 30.824219 17.695312 30.839844 17.738281 30.824219 17.792969 C 30.816406 17.824219 30.796875 17.851562 30.765625 17.867188 C 30.660156 17.925781 30.550781 17.984375 30.441406 18.03125 C 29.96875 18.230469 29.542969 18.332031 29.144531 18.539062 C 29.132812 18.542969 29.121094 18.546875 29.113281 18.550781 C 28.730469 19.207031 28.382812 19.886719 28.074219 20.585938 C 28.417969 20.292969 28.792969 20.058594 29.199219 19.878906 C 29.246094 19.851562 29.292969 19.855469 29.339844 19.890625 C 29.382812 19.925781 29.398438 19.96875 29.382812 20.023438 C 29.375 20.054688 29.355469 20.078125 29.324219 20.097656 C 29.222656 20.144531 29.121094 20.195312 29.019531 20.246094 C 28.539062 20.507812 28.121094 20.8125 27.820312 21.199219 C 27.769531 21.320312 27.71875 21.4375 27.671875 21.554688 C 27.613281 21.691406 27.558594 21.824219 27.503906 21.957031 C 27.566406 21.925781 27.628906 21.890625 27.695312 21.855469 C 28.144531 21.613281 28.640625 21.335938 29.066406 21.054688 C 29.617188 20.695312 30.085938 20.164062 30.59375 19.648438 C 30.289062 19.652344 29.988281 19.644531 29.6875 19.617188 C 29.546875 19.589844 29.320312 19.636719 29.253906 19.480469 C 29.210938 19.304688 29.4375 19.300781 29.554688 19.269531 C 29.8125 19.21875 30.066406 19.160156 30.320312 19.121094 C 30.601562 19.070312 30.957031 19.070312 31.195312 18.898438 C 31.429688 18.703125 31.773438 17.976562 32.0625 17.554688 C 32.296875 17.1875 32.511719 16.804688 32.710938 16.414062 C 32.761719 16.304688 32.804688 16.179688 32.863281 16.046875 C 32.722656 16.066406 32.59375 16.074219 32.527344 16.089844 C 32.179688 16.164062 31.835938 16.25 31.484375 16.304688 C 31.386719 16.320312 31.269531 16.367188 31.171875 16.320312 C 31.136719 16.300781 31.113281 16.269531 31.109375 16.226562 C 31.101562 16.1875 31.113281 16.152344 31.144531 16.121094 C 31.222656 16.054688 31.328125 16.027344 31.417969 15.980469 C 31.683594 15.851562 31.9375 15.703125 32.210938 15.597656 C 32.535156 15.464844 32.863281 15.34375 33.195312 15.242188 C 33.230469 15.007812 33.304688 14.785156 33.359375 14.558594 C 33.441406 14.105469 33.566406 13.601562 33.601562 13.242188 C 33.648438 12.925781 33.648438 12.453125 33.675781 12.144531 Z M 33.675781 12.144531 " fill-opacity="1" fill-rule="nonzero"/></g></svg>