<svg xmlns="http://www.w3.org/2000/svg" xmlns:xlink="http://www.w3.org/1999/xlink" width="49" zoomAndPan="magnify" viewBox="0 0 36.75 36.750001" height="49" preserveAspectRatio="xMidYMid meet" version="1.0"><defs><clipPath id="1fb28b59a0"><path d="M 0 0 L 36.5 0 L 36.5 36.5 L 0 36.5 Z M 0 0 " clip-rule="nonzero"/></clipPath><clipPath id="4e431aa3e4"><path d="M 14.277344 16.4375 L 25.257812 16.4375 L 25.257812 27.417969 L 14.277344 27.417969 Z M 14.277344 16.4375 " clip-rule="nonzero"/></clipPath><clipPath id="c1c8fdbb83"><path d="M 5.136719 1.882812 L 7 1.882812 L 7 20 L 5.136719 20 Z M 5.136719 1.882812 " clip-rule="nonzero"/></clipPath><clipPath id="66215506f1"><path d="M 8 1.882812 L 10 1.882812 L 10 16 L 8 16 Z M 8 1.882812 " clip-rule="nonzero"/></clipPath><clipPath id="7fd98d06b2"><path d="M 30 1.882812 L 31 1.882812 L 31 16 L 30 16 Z M 30 1.882812 " clip-rule="nonzero"/></clipPath></defs><g clip-path="url(#1fb28b59a0)"><path fill="#ffffff" d="M 0 0 L 36.5 0 L 36.5 36.5 L 0 36.5 Z M 0 0 " fill-opacity="1" fill-rule="nonzero"/><path fill="#ffffff" d="M 0 0 L 36.5 0 L 36.5 36.5 L 0 36.5 Z M 0 0 " fill-opacity="1" fill-rule="nonzero"/></g><g clip-path="url(#4e431aa3e4)"><path fill="#fccd60" d="M 14.277344 16.4375 L 25.257812 16.4375 L 25.257812 27.417969 L 14.277344 27.417969 Z M 14.277344 16.4375 " fill-opacity="1" fill-rule="nonzero"/></g><path fill="#d62d20" d="M 15.292969 30.476562 C 17.238281 30.355469 17.238281 30.355469 18.863281 31.449219 C 27.742188 36.464844 37.363281 14.4375 23.644531 13.289062 C 21.699219 13.410156 21.699219 13.410156 20.074219 12.316406 C 7.628906 6.328125 5.140625 30.300781 15.292969 30.476562 " fill-opacity="1" fill-rule="evenodd"/><path fill="#ffffff" d="M 14.074219 14.101562 C 13.128906 13.425781 10.757812 15.371094 10.761719 18.914062 C 10.742188 19.761719 10.605469 21.191406 11.234375 19.25 C 12.410156 14.0625 14.546875 14.4375 14.074219 14.101562 " fill-opacity="0.3" fill-rule="nonzero"/><path fill="#000000" d="M 15.214844 30.777344 C 17.15625 30.660156 17.15625 30.660156 18.78125 31.75 C 28.105469 36.890625 37.890625 14.257812 23.722656 12.988281 C 21.78125 13.105469 21.78125 13.105469 20.15625 12.015625 C 7.738281 6.519531 5.679688 27.042969 12.816406 30.207031 C 12.898438 30.226562 12.976562 30.21875 13.050781 30.175781 C 13.121094 30.128906 13.171875 30.066406 13.191406 29.984375 C 13.214844 29.898438 13.203125 29.820312 13.160156 29.746094 C 13.117188 29.671875 13.058594 29.621094 12.976562 29.601562 C 6.097656 25.453125 9.085938 7.457031 19.996094 12.621094 C 21.621094 13.710938 21.621094 13.710938 23.5625 13.59375 C 36.988281 14.660156 26.957031 36.414062 18.941406 31.144531 C 17.316406 30.054688 17.316406 30.054688 15.375 30.171875 C 15.292969 30.152344 15.214844 30.160156 15.140625 30.203125 C 15.066406 30.25 15.019531 30.3125 14.996094 30.394531 C 14.976562 30.476562 14.984375 30.558594 15.027344 30.632812 C 15.070312 30.707031 15.132812 30.753906 15.214844 30.777344 Z M 14.058594 30.015625 C 14.140625 30.039062 14.203125 30.089844 14.246094 30.164062 C 14.289062 30.238281 14.300781 30.316406 14.277344 30.402344 C 14.253906 30.484375 14.207031 30.546875 14.132812 30.589844 C 14.0625 30.636719 13.984375 30.644531 13.902344 30.621094 C 13.820312 30.601562 13.757812 30.550781 13.714844 30.476562 C 13.671875 30.402344 13.660156 30.324219 13.683594 30.238281 C 13.703125 30.15625 13.753906 30.09375 13.828125 30.050781 C 13.898438 30.003906 13.976562 29.996094 14.058594 30.015625 " fill-opacity="1" fill-rule="evenodd"/><g clip-path="url(#c1c8fdbb83)"><path fill="#000000" d="M 5.605469 2.195312 C 5.605469 2.109375 5.636719 2.035156 5.699219 1.972656 C 5.757812 1.914062 5.832031 1.882812 5.914062 1.882812 C 6 1.882812 6.074219 1.914062 6.132812 1.972656 C 6.191406 2.035156 6.222656 2.109375 6.222656 2.195312 L 6.222656 17.859375 C 6.222656 17.949219 6.191406 18.023438 6.132812 18.082031 C 6.074219 18.144531 6 18.175781 5.914062 18.175781 C 5.832031 18.175781 5.757812 18.144531 5.699219 18.082031 C 5.636719 18.023438 5.605469 17.949219 5.605469 17.859375 Z M 5.605469 19.425781 C 5.605469 19.339844 5.636719 19.265625 5.699219 19.207031 C 5.757812 19.144531 5.832031 19.113281 5.914062 19.113281 C 6 19.113281 6.074219 19.144531 6.132812 19.207031 C 6.191406 19.265625 6.222656 19.339844 6.222656 19.425781 C 6.222656 19.515625 6.191406 19.589844 6.132812 19.648438 C 6.074219 19.710938 6 19.742188 5.914062 19.742188 C 5.832031 19.742188 5.757812 19.710938 5.699219 19.648438 C 5.636719 19.589844 5.605469 19.515625 5.605469 19.425781 " fill-opacity="1" fill-rule="nonzero"/></g><g clip-path="url(#66215506f1)"><path fill="#000000" d="M 8.6875 2.195312 C 8.6875 2.109375 8.714844 2.035156 8.777344 1.972656 C 8.835938 1.914062 8.910156 1.882812 8.992188 1.882812 C 9.078125 1.882812 9.152344 1.914062 9.210938 1.972656 C 9.273438 2.035156 9.300781 2.109375 9.300781 2.195312 L 9.300781 13.160156 C 9.300781 13.25 9.273438 13.320312 9.210938 13.382812 C 9.152344 13.445312 9.078125 13.476562 8.992188 13.476562 C 8.910156 13.476562 8.835938 13.445312 8.777344 13.382812 C 8.714844 13.320312 8.6875 13.25 8.6875 13.160156 Z M 8.6875 14.726562 C 8.6875 14.640625 8.714844 14.566406 8.777344 14.507812 C 8.835938 14.445312 8.910156 14.414062 8.992188 14.414062 C 9.078125 14.414062 9.152344 14.445312 9.210938 14.507812 C 9.273438 14.566406 9.300781 14.640625 9.300781 14.726562 C 9.300781 14.816406 9.273438 14.886719 9.210938 14.949219 C 9.152344 15.011719 9.078125 15.042969 8.992188 15.042969 C 8.910156 15.042969 8.835938 15.011719 8.777344 14.949219 C 8.714844 14.886719 8.6875 14.816406 8.6875 14.726562 " fill-opacity="1" fill-rule="nonzero"/></g><path fill="#000000" d="M 33.316406 5.328125 C 33.316406 5.242188 33.34375 5.167969 33.40625 5.109375 C 33.464844 5.046875 33.539062 5.015625 33.621094 5.015625 C 33.707031 5.015625 33.78125 5.046875 33.839844 5.109375 C 33.902344 5.167969 33.929688 5.242188 33.929688 5.328125 L 33.929688 20.996094 C 33.929688 21.082031 33.902344 21.15625 33.839844 21.214844 C 33.78125 21.277344 33.707031 21.308594 33.621094 21.308594 C 33.539062 21.308594 33.464844 21.277344 33.40625 21.214844 C 33.34375 21.15625 33.316406 21.082031 33.316406 20.996094 Z M 33.316406 22.5625 C 33.316406 22.472656 33.34375 22.398438 33.40625 22.339844 C 33.464844 22.277344 33.539062 22.246094 33.621094 22.246094 C 33.707031 22.246094 33.78125 22.277344 33.839844 22.339844 C 33.902344 22.398438 33.929688 22.472656 33.929688 22.5625 C 33.929688 22.648438 33.902344 22.722656 33.839844 22.78125 C 33.78125 22.84375 33.707031 22.875 33.621094 22.875 C 33.539062 22.875 33.464844 22.84375 33.40625 22.78125 C 33.34375 22.722656 33.316406 22.648438 33.316406 22.5625 " fill-opacity="1" fill-rule="nonzero"/><g clip-path="url(#7fd98d06b2)"><path fill="#000000" d="M 30.238281 2.195312 C 30.238281 2.109375 30.265625 2.035156 30.328125 1.972656 C 30.386719 1.914062 30.460938 1.882812 30.542969 1.882812 C 30.628906 1.882812 30.703125 1.914062 30.761719 1.972656 C 30.820312 2.035156 30.851562 2.109375 30.851562 2.195312 L 30.851562 13.160156 C 30.851562 13.25 30.820312 13.320312 30.761719 13.382812 C 30.703125 13.445312 30.628906 13.476562 30.542969 13.476562 C 30.460938 13.476562 30.386719 13.445312 30.328125 13.382812 C 30.265625 13.320312 30.238281 13.25 30.238281 13.160156 Z M 30.238281 14.726562 C 30.238281 14.640625 30.265625 14.566406 30.328125 14.507812 C 30.386719 14.445312 30.460938 14.414062 30.542969 14.414062 C 30.628906 14.414062 30.703125 14.445312 30.761719 14.507812 C 30.820312 14.566406 30.851562 14.640625 30.851562 14.726562 C 30.851562 14.816406 30.820312 14.886719 30.761719 14.949219 C 30.703125 15.011719 30.628906 15.042969 30.542969 15.042969 C 30.460938 15.042969 30.386719 15.011719 30.328125 14.949219 C 30.265625 14.886719 30.238281 14.816406 30.238281 14.726562 " fill-opacity="1" fill-rule="nonzero"/></g><path fill="#64421f" d="M 20.078125 14.964844 C 20.078125 12.707031 20.90625 9.605469 21.183594 9.324219 C 21.460938 8.476562 23.402344 8.476562 23.402344 9.324219 C 23.402344 9.605469 21.738281 13.269531 21.738281 14.964844 " fill-opacity="1" fill-rule="evenodd"/><path fill="#000000" d="M 19.769531 14.886719 C 19.769531 12.628906 20.601562 9.527344 20.878906 9.246094 C 21.15625 8.054688 23.710938 8.054688 23.710938 9.246094 C 23.710938 9.527344 22.363281 13.160156 22.363281 13.160156 C 22.363281 13.25 22.332031 13.320312 22.273438 13.382812 C 22.210938 13.445312 22.140625 13.476562 22.054688 13.476562 C 21.96875 13.476562 21.898438 13.445312 21.835938 13.382812 C 21.777344 13.320312 21.746094 13.25 21.746094 13.160156 C 21.746094 13.160156 21.746094 13.160156 23.054688 9.402344 C 23.488281 8.710938 21.453125 8.710938 21.453125 9.402344 C 20.992188 10.34375 20.222656 14.101562 20.378906 14.886719 C 20.378906 14.972656 20.347656 15.046875 20.285156 15.105469 C 20.226562 15.167969 20.152344 15.199219 20.070312 15.199219 C 19.984375 15.199219 19.910156 15.167969 19.851562 15.105469 C 19.792969 15.046875 19.761719 14.972656 19.761719 14.886719 M 21.839844 13.867188 C 21.925781 13.867188 21.996094 13.898438 22.058594 13.957031 C 22.117188 14.019531 22.148438 14.09375 22.148438 14.179688 C 22.148438 14.265625 22.117188 14.339844 22.058594 14.402344 C 21.996094 14.460938 21.925781 14.492188 21.839844 14.492188 C 21.753906 14.492188 21.683594 14.460938 21.621094 14.402344 C 21.5625 14.339844 21.53125 14.265625 21.53125 14.179688 C 21.53125 14.09375 21.5625 14.019531 21.621094 13.957031 C 21.683594 13.898438 21.753906 13.867188 21.839844 13.867188 " fill-opacity="1" fill-rule="evenodd"/><path fill="#000000" d="M 18.382812 14.179688 C 18.492188 14.371094 19.183594 15.371094 22.019531 15.496094 C 22.65625 15.507812 22.667969 14.859375 22.179688 14.890625 C 21.507812 15.03125 19.683594 14.695312 18.691406 13.613281 C 18.472656 13.230469 17.910156 13.5625 18.382812 14.179688 M 23.152344 14.832031 C 23.234375 14.855469 23.296875 14.902344 23.339844 14.976562 C 23.382812 15.050781 23.390625 15.132812 23.371094 15.214844 C 23.347656 15.296875 23.300781 15.363281 23.226562 15.40625 C 23.152344 15.449219 23.074219 15.457031 22.992188 15.4375 C 22.910156 15.414062 22.847656 15.367188 22.804688 15.289062 C 22.765625 15.214844 22.753906 15.136719 22.777344 15.054688 C 22.796875 14.96875 22.84375 14.90625 22.917969 14.863281 C 22.992188 14.820312 23.070312 14.808594 23.152344 14.832031 " fill-opacity="1" fill-rule="evenodd"/><path fill="#008744" d="M 16.074219 7.992188 C 15.703125 9.582031 19.570312 11.855469 20.742188 10.734375 C 21.109375 9.140625 17.246094 6.871094 16.074219 7.992188 " fill-opacity="1" fill-rule="evenodd"/><path fill="#000000" d="M 15.613281 8.148438 C 15.242188 9.742188 19.507812 12.246094 20.832031 10.855469 C 21.183594 9.613281 19.089844 7.660156 17.820312 7.546875 C 17.738281 7.53125 17.660156 7.550781 17.589844 7.597656 C 17.519531 7.648438 17.480469 7.714844 17.464844 7.800781 C 17.449219 7.886719 17.464844 7.964844 17.515625 8.035156 C 17.5625 8.105469 17.628906 8.148438 17.714844 8.164062 C 17.714844 8.164062 20.15625 8.875 20.164062 10.460938 C 18.960938 11.019531 16.292969 9.453125 16.167969 8.113281 C 16.101562 7.996094 16.007812 7.945312 15.878906 7.953125 C 15.75 7.960938 15.660156 8.027344 15.613281 8.148438 Z M 16.984375 7.371094 C 17.058594 7.417969 17.105469 7.480469 17.128906 7.5625 C 17.152344 7.648438 17.140625 7.726562 17.097656 7.800781 C 17.054688 7.875 16.992188 7.925781 16.910156 7.945312 C 16.828125 7.96875 16.75 7.957031 16.679688 7.914062 C 16.605469 7.871094 16.558594 7.808594 16.535156 7.726562 C 16.511719 7.640625 16.523438 7.5625 16.566406 7.488281 C 16.609375 7.414062 16.671875 7.363281 16.753906 7.34375 C 16.835938 7.320312 16.914062 7.328125 16.984375 7.371094 " fill-opacity="1" fill-rule="evenodd"/></svg>